{"glyphs":{"0":{"ha":1001,"x_min":57,"x_max":1110,"o":"m 1107 732 l 961 243 q 934 166 950 208 q 893 87 918 124 q 834 25 868 50 q 753 0 800 0 l 181 0 q 90 40 122 0 q 57 131 57 79 l 58 174 q 90 276 72 218 q 125 397 107 333 q 163 529 143 461 q 204 663 183 597 q 231 740 214 697 q 272 819 247 782 q 331 881 297 856 q 413 906 365 906 l 986 906 q 1038 894 1015 906 q 1077 866 1061 883 q 1101 825 1093 849 q 1110 776 1110 801 l 1107 732 m 107 139 q 109 112 107 126 q 117 83 111 97 q 133 60 122 69 q 163 51 144 51 l 753 51 q 818 74 792 51 q 862 129 844 97 q 891 197 879 161 q 911 260 903 233 q 980 476 951 379 q 1028 631 1008 574 q 1044 686 1038 660 q 1056 732 1050 713 q 1058 750 1057 736 q 1058 767 1058 764 q 1056 794 1058 779 q 1049 822 1054 808 q 1032 845 1043 836 q 1003 854 1021 854 l 413 854 q 349 831 375 854 q 303 776 322 808 q 274 708 285 744 q 256 646 263 672 q 187 425 219 519 q 139 274 154 331 q 111 174 119 213 q 108 156 110 169 q 107 139 107 143 m 728 635 l 604 225 l 426 225 l 563 681 l 739 681 l 725 635 l 728 635 m 604 628 l 494 278 l 563 278 l 672 628 l 604 628 z "},"1":{"ha":688,"x_min":172,"x_max":835,"o":"m 172 0 l 583 0 l 835 908 l 800 918 l 283 918 q 275 906 281 918 q 265 883 269 893 q 249 835 260 869 q 228 763 239 801 q 208 689 218 724 q 196 640 199 654 q 194 628 194 636 q 193 617 193 619 l 340 617 l 172 0 m 250 51 l 415 667 l 279 667 q 281 713 279 683 q 289 775 283 743 q 306 833 294 807 q 335 871 317 860 l 756 871 q 746 822 751 847 q 730 758 740 796 q 703 663 719 719 q 665 524 688 607 q 610 324 642 440 q 536 51 578 208 l 250 51 z "},"2":{"ha":1001,"x_min":57,"x_max":1110,"o":"m 1107 732 l 1110 776 l 1110 783 q 1076 869 1110 832 q 986 906 1042 906 l 413 906 q 331 881 365 906 q 272 819 297 856 q 231 740 247 782 q 204 663 214 697 l 208 626 l 663 626 l 640 561 l 194 561 q 158 463 179 524 q 115 342 136 403 q 78 234 94 282 q 58 174 63 186 l 57 131 l 57 124 q 90 37 57 74 q 181 0 124 0 l 753 0 q 809 16 782 0 q 859 56 836 32 q 901 108 882 79 q 933 164 919 138 q 954 211 947 190 q 961 239 961 232 l 961 243 l 961 274 l 501 274 l 522 342 l 978 342 l 993 394 l 1107 732 m 679 513 l 728 679 l 264 679 q 284 737 272 706 q 314 794 296 768 q 356 837 332 819 q 413 854 381 854 l 1003 854 q 1032 845 1021 854 q 1049 822 1043 836 q 1056 794 1054 808 q 1058 767 1058 779 q 1058 750 1058 764 q 1056 732 1057 736 l 950 394 l 481 394 l 432 225 l 899 225 q 878 167 890 197 q 850 110 867 136 q 810 68 833 85 q 753 51 786 51 l 163 51 q 133 60 144 51 q 117 83 122 69 q 109 112 111 97 q 107 139 107 126 q 108 156 107 143 q 111 174 110 169 q 118 201 111 179 q 135 253 125 222 q 157 322 144 285 q 182 394 169 358 q 207 462 194 431 q 229 513 219 493 l 679 513 z "},"3":{"ha":996,"x_min":44,"x_max":1142,"o":"m 1142 903 l 283 903 q 265 875 276 903 q 243 809 254 847 q 224 731 232 771 q 215 668 215 692 l 654 668 l 654 633 l 360 633 q 349 608 357 633 q 332 544 342 582 q 312 466 322 507 q 293 394 301 425 q 292 388 292 390 q 290 382 292 385 q 286 360 288 376 q 285 339 285 344 l 568 339 l 568 304 l 133 304 l 117 278 q 108 246 117 276 q 88 174 100 215 q 65 88 76 132 q 47 17 53 44 l 44 0 l 892 0 l 1142 903 m 1065 825 l 1064 815 q 1044 744 1057 792 q 1015 636 1031 696 q 981 510 999 576 q 947 385 963 444 q 917 278 931 326 q 897 208 904 231 q 890 186 894 203 q 879 150 885 169 q 868 113 874 131 q 860 90 863 96 q 849 68 856 81 q 842 56 843 56 l 111 56 l 113 72 q 122 107 117 83 q 134 155 128 131 q 144 199 140 179 q 151 225 149 219 q 158 242 153 232 q 168 251 164 251 l 603 251 q 609 267 603 251 q 619 294 615 283 q 634 333 631 325 q 638 346 638 342 q 635 356 638 349 q 633 390 633 363 l 356 390 q 358 440 356 408 q 368 503 361 472 q 385 558 375 535 q 411 582 396 582 l 707 582 q 721 601 718 582 q 724 647 724 621 q 722 694 724 672 q 721 721 721 715 l 274 721 l 301 850 l 1047 850 q 1055 844 1050 850 q 1064 833 1060 838 q 1065 830 1064 833 q 1065 825 1065 826 z "},"4":{"ha":1085,"x_min":131,"x_max":1235,"o":"m 131 301 l 267 903 l 683 903 l 599 599 l 611 599 q 619 598 615 599 q 626 596 622 597 l 731 596 l 818 903 l 1235 903 l 981 0 l 564 0 l 647 301 l 131 301 m 314 850 l 194 354 l 711 354 l 707 313 l 635 51 l 929 51 q 936 65 931 51 q 946 86 942 78 q 956 112 950 92 q 964 139 961 132 q 997 260 978 189 q 1038 408 1017 332 q 1080 560 1060 485 q 1117 697 1100 636 q 1144 794 1133 757 q 1154 833 1154 832 l 1154 850 l 864 850 l 769 543 l 524 543 q 556 656 542 603 q 581 747 571 708 q 598 809 592 786 q 604 833 604 832 l 604 850 l 314 850 z "},"5":{"ha":1001,"x_min":57,"x_max":1057,"o":"m 575 279 l 93 279 l 58 174 l 57 124 q 90 36 57 72 q 181 0 124 0 l 753 0 q 847 33 808 0 q 913 119 886 67 q 958 235 940 171 q 991 363 976 300 q 1021 479 1006 425 q 1057 564 1036 533 l 572 564 l 593 631 l 953 631 l 1033 908 l 285 908 l 133 396 l 131 396 l 113 343 l 597 343 l 575 279 m 926 679 l 556 679 l 508 513 l 988 513 q 928 303 954 390 q 877 160 903 217 q 822 78 851 104 q 753 51 793 51 l 163 51 q 133 60 144 51 q 117 83 122 69 q 109 112 111 97 q 107 139 107 126 l 125 228 l 617 228 l 667 396 l 182 396 l 322 856 l 975 856 l 926 679 z "},"6":{"ha":1001,"x_min":57,"x_max":1153,"o":"m 644 564 l 1057 564 q 1033 484 1043 521 q 1011 410 1022 447 q 988 332 1000 372 q 961 243 976 292 q 934 166 950 208 q 893 87 918 124 q 834 25 868 50 q 753 0 800 0 l 181 0 q 90 36 124 0 q 57 124 57 72 l 57 131 l 58 174 l 204 663 q 231 740 214 697 q 272 821 247 783 q 331 883 297 858 q 413 908 365 908 l 1153 908 l 1072 631 l 593 631 l 572 564 l 644 564 m 1036 676 l 1096 854 l 413 854 q 351 834 376 854 q 308 785 326 814 q 277 722 289 756 q 257 660 265 688 q 256 653 256 658 q 253 646 256 647 q 187 429 215 526 q 139 276 158 332 q 123 219 129 246 q 111 174 117 193 q 108 156 110 169 q 107 139 107 143 q 109 112 107 126 q 117 83 111 97 q 133 60 122 69 q 163 51 144 51 l 753 51 q 817 73 790 51 q 860 125 843 94 q 890 190 878 156 q 910 253 901 225 l 911 260 q 958 411 939 354 q 988 513 976 468 l 508 513 l 556 676 l 1036 676 m 488 396 l 667 396 l 617 228 l 439 228 l 488 396 m 575 279 l 597 346 l 526 346 l 503 279 l 575 279 z "},"7":{"ha":1001,"x_min":193,"x_max":1151,"o":"m 231 0 l 672 0 l 1075 617 l 1151 903 l 1117 919 l 283 919 q 275 907 281 919 q 265 885 269 894 q 249 837 260 871 q 228 764 239 803 q 208 690 218 725 q 196 642 199 656 q 194 629 194 639 q 193 617 193 619 l 632 617 l 231 0 m 339 51 l 743 668 l 265 668 q 266 699 261 672 q 281 758 271 725 q 306 823 292 792 q 335 867 319 854 l 1071 867 q 1058 797 1065 832 q 1045 733 1051 761 q 1034 686 1039 704 q 1029 668 1029 668 l 625 51 l 339 51 z "},"8":{"ha":1001,"x_min":57,"x_max":1110,"o":"m 1107 732 l 961 243 q 934 166 950 208 q 893 87 918 124 q 834 25 868 50 q 753 0 800 0 l 181 0 q 90 40 122 0 q 57 131 57 79 l 58 174 q 90 276 72 218 q 125 397 107 333 q 163 529 143 461 q 204 663 183 597 q 231 740 214 697 q 272 819 247 782 q 331 881 297 856 q 413 906 365 906 l 986 906 q 1038 894 1015 906 q 1077 866 1061 883 q 1101 825 1093 849 q 1110 776 1110 801 l 1107 732 m 107 139 q 109 112 107 126 q 117 83 111 97 q 133 60 122 69 q 163 51 144 51 l 753 51 q 818 74 792 51 q 862 129 844 97 q 891 197 879 161 q 911 260 903 233 q 980 476 951 379 q 1028 631 1008 574 q 1044 686 1038 660 q 1056 732 1050 713 q 1058 750 1057 736 q 1058 767 1058 764 q 1056 794 1058 779 q 1049 822 1054 808 q 1032 845 1043 836 q 1003 854 1021 854 l 413 854 q 347 831 375 854 q 299 774 319 807 q 267 703 279 740 q 247 640 254 667 q 203 492 222 554 q 167 379 183 431 q 138 280 151 328 q 111 174 124 232 q 108 156 110 169 q 107 139 107 143 m 679 510 l 500 510 l 550 679 l 728 679 l 679 510 m 592 626 l 569 561 l 640 561 l 663 626 l 592 626 m 611 225 l 432 225 l 481 394 l 658 394 l 611 225 m 522 342 l 501 276 l 572 276 l 593 342 l 522 342 z "},"9":{"ha":1001,"x_min":56,"x_max":1151,"o":"m 564 342 l 151 342 q 174 423 164 385 q 195 498 185 461 q 218 574 206 535 q 246 663 231 614 q 272 740 256 697 q 314 819 289 782 q 373 881 339 856 q 454 906 407 906 l 1028 906 q 1118 869 1085 906 q 1151 783 1151 833 l 1151 776 l 1149 732 l 1003 243 q 976 166 992 208 q 935 86 960 124 q 876 24 910 49 q 794 -1 842 -1 l 56 -1 l 135 276 l 614 276 l 635 342 l 564 342 m 172 229 l 113 51 l 794 51 q 856 72 831 51 q 901 121 882 92 q 931 184 919 150 q 951 246 943 218 q 953 253 953 249 q 954 260 953 258 q 1022 476 993 379 q 1069 631 1050 574 q 1085 686 1079 660 q 1097 732 1092 713 q 1099 750 1099 736 q 1100 767 1100 764 q 1098 794 1100 779 q 1090 822 1096 808 q 1074 845 1085 836 q 1044 854 1063 854 l 454 854 q 392 833 418 854 q 348 782 367 813 q 317 716 329 751 q 299 653 306 681 l 297 646 q 251 494 269 551 q 221 394 232 438 l 700 394 l 653 229 l 172 229 m 721 510 l 542 510 l 592 679 l 769 679 l 721 510 m 633 626 l 611 561 l 682 561 l 704 626 l 633 626 z "}," ":{"ha":375,"x_min":0,"x_max":0,"o":""},"!":{"ha":419,"x_min":6,"x_max":582,"o":"m 314 850 l 160 378 l 349 378 q 356 391 350 378 q 367 413 363 404 q 374 438 369 418 q 383 465 379 458 q 449 670 425 596 q 487 781 474 744 q 503 828 500 818 q 507 839 507 838 l 507 850 l 314 850 m 89 325 l 269 901 l 582 901 l 401 325 l 89 325 m 250 0 l 6 -1 q 7 20 6 4 q 10 42 8 36 q 30 110 17 71 q 56 183 43 149 q 80 242 69 218 q 93 267 90 267 l 342 267 q 340 245 342 261 q 336 224 339 229 q 316 156 329 194 q 289 83 303 118 q 263 24 275 49 q 250 0 251 0 m 76 50 l 201 49 q 229 68 217 49 q 251 115 242 88 q 266 170 261 142 q 271 217 271 199 l 146 217 q 118 197 131 217 q 96 151 106 178 q 81 97 86 125 q 76 50 76 68 z "},"\"":{"ha":739,"x_min":146,"x_max":904,"o":"m 575 510 l 700 508 q 724 531 710 508 q 753 587 739 553 q 783 663 768 621 q 808 742 797 704 q 826 810 819 781 q 833 853 833 840 l 708 853 q 685 831 699 853 q 656 774 671 808 q 627 699 642 740 q 601 620 613 658 q 582 551 589 582 q 575 510 575 521 m 390 472 l 146 471 q 147 492 146 476 q 151 514 149 508 q 167 570 154 533 q 195 651 179 607 q 228 743 211 696 q 261 828 246 790 q 287 891 276 867 q 299 915 297 915 l 547 915 q 545 893 547 910 q 542 871 543 876 q 526 815 538 851 q 497 733 514 778 q 461 642 479 689 q 427 558 443 596 q 401 497 411 521 q 390 472 390 472 m 217 522 l 342 521 q 366 543 351 521 q 395 599 381 565 q 424 674 410 633 q 450 753 439 715 q 468 822 461 792 q 475 864 475 851 l 350 864 q 326 842 340 864 q 298 785 313 819 q 269 710 283 751 q 242 632 254 669 q 224 564 231 594 q 217 522 217 533 m 749 460 l 503 458 q 505 480 503 464 q 508 501 507 496 q 524 558 511 521 q 552 639 536 594 q 586 731 568 683 q 619 816 604 778 q 644 878 635 854 q 656 903 654 903 l 904 903 q 903 881 904 897 q 899 860 901 865 q 883 803 894 840 q 854 722 871 767 q 819 631 838 678 q 785 547 800 585 q 759 484 769 508 q 749 460 749 460 z "},"#":{"ha":1001,"x_min":57,"x_max":1153,"o":"m 575 279 l 597 343 l 113 343 l 131 396 l 133 396 l 204 663 q 230 740 214 697 q 271 821 246 783 q 331 883 296 858 q 413 908 365 908 l 1153 908 l 1072 631 l 593 631 l 572 564 l 1057 564 q 1032 484 1043 521 q 1010 410 1021 447 q 988 332 1000 372 q 961 243 976 292 q 934 166 950 208 q 893 87 918 124 q 834 25 868 50 q 753 0 800 0 l 181 0 q 90 36 122 0 q 57 124 57 72 l 57 174 l 93 279 l 575 279 m 1036 676 l 1096 854 l 413 854 q 351 834 376 854 q 308 785 326 814 q 277 722 289 756 q 257 660 265 688 q 256 653 256 658 q 253 646 256 649 q 235 590 244 621 q 216 525 225 558 q 198 458 207 492 q 182 396 189 425 l 667 396 l 617 228 l 125 228 l 107 139 q 109 112 107 126 q 117 83 111 97 q 133 60 122 69 q 163 51 144 51 l 753 51 q 827 78 796 51 q 881 149 858 106 q 917 244 903 192 q 943 349 932 297 q 965 444 954 400 q 988 513 975 488 l 508 513 l 556 676 l 1036 676 z "},"$":{"ha":1001,"x_min":57,"x_max":1153,"o":"m 550 -140 q 558 -128 551 -140 q 573 -97 564 -117 q 592 -51 582 -76 q 613 0 603 -26 l 753 0 q 834 25 800 0 q 893 87 868 50 q 934 166 918 124 q 961 243 950 208 q 988 332 976 292 q 1010 410 1000 372 q 1032 484 1021 447 q 1057 564 1043 521 l 572 564 l 593 631 l 1072 631 l 1153 908 l 879 908 q 897 958 890 933 q 910 1001 904 982 q 914 1023 913 1007 q 915 1044 915 1039 l 667 1044 q 658 1033 664 1044 q 644 1002 653 1021 q 626 958 636 983 q 608 908 617 933 l 413 908 q 331 883 365 908 q 271 821 296 858 q 230 740 246 783 q 204 663 214 697 l 133 396 l 131 396 l 113 343 l 597 343 l 575 279 l 93 279 l 58 174 l 57 131 l 57 124 q 90 36 57 72 q 181 0 122 0 l 342 0 q 324 -52 332 -26 q 311 -99 315 -78 q 307 -120 308 -104 q 306 -142 306 -136 l 550 -140 m 376 -90 q 381 -49 376 -74 q 393 0 385 -25 l 413 51 l 163 51 q 133 60 144 51 q 117 83 122 69 q 109 112 111 97 q 107 139 107 126 l 125 228 l 617 228 l 667 396 l 182 396 q 198 458 189 425 q 216 525 207 492 q 235 590 225 558 q 253 646 244 621 q 256 653 256 649 q 257 660 256 658 q 277 722 265 688 q 308 785 289 756 q 351 834 326 814 q 413 854 376 854 l 664 854 q 678 894 671 869 q 692 940 685 918 q 706 978 699 963 q 719 994 713 994 l 844 994 q 840 956 844 979 q 828 908 836 932 l 814 853 l 1096 853 l 1036 676 l 556 676 l 508 513 l 988 513 q 965 444 975 488 q 943 349 954 400 q 917 244 932 297 q 881 149 903 192 q 827 78 858 106 q 753 51 796 51 l 578 51 q 565 17 572 40 q 549 -31 557 -7 q 533 -72 540 -54 q 521 -90 525 -90 l 376 -90 z "},"%":{"ha":1522,"x_min":140,"x_max":1543,"o":"m 336 0 l 753 0 l 1317 896 l 900 896 l 336 0 m 410 39 l 911 857 l 1233 857 l 1233 840 q 1209 794 1233 836 q 1144 688 1185 753 q 1049 539 1103 622 q 938 368 996 456 q 821 194 879 281 q 711 36 763 108 l 410 39 m 717 803 l 718 826 q 701 876 718 854 q 651 899 683 899 l 335 899 q 290 885 310 899 q 258 851 271 871 q 235 807 244 831 q 221 764 226 783 q 199 691 210 728 q 177 619 188 654 q 158 552 167 583 q 140 496 149 521 l 140 472 q 158 422 140 444 q 207 400 175 400 l 522 400 q 567 414 549 400 q 599 448 586 428 q 622 491 613 468 q 638 533 631 514 l 717 803 m 167 476 q 183 545 175 515 q 199 606 190 575 q 217 673 207 638 q 244 757 228 708 q 256 790 249 771 q 274 828 263 810 q 299 858 285 846 q 335 869 314 869 l 660 869 q 685 852 679 869 q 690 822 690 835 q 690 813 690 819 q 689 803 690 806 q 683 777 686 792 q 674 747 679 763 q 647 663 663 715 q 610 543 632 610 q 599 508 606 528 q 583 471 593 489 q 558 440 572 453 q 522 428 543 428 l 197 428 q 172 445 178 428 q 167 476 167 463 m 508 749 l 507 749 l 515 774 l 418 774 l 343 524 l 440 524 l 508 749 m 440 746 l 478 746 l 418 553 l 381 553 l 440 746 m 1542 408 l 1543 432 q 1526 482 1543 460 q 1476 504 1508 504 l 1160 504 q 1115 490 1135 504 q 1083 456 1096 476 q 1060 413 1069 436 q 1046 369 1051 389 q 1024 297 1035 333 q 1002 224 1013 260 q 983 158 992 189 q 965 101 974 126 l 965 78 q 983 28 965 50 q 1032 6 1000 6 l 1347 6 q 1392 19 1374 6 q 1424 53 1411 33 q 1447 97 1438 74 q 1463 139 1456 119 l 1542 408 m 992 82 q 1008 151 1000 121 q 1024 212 1015 181 q 1042 278 1032 243 q 1069 363 1053 314 q 1081 396 1074 376 q 1099 433 1088 415 q 1124 463 1110 451 q 1160 475 1139 475 l 1485 475 q 1510 458 1504 475 q 1515 428 1515 440 q 1515 418 1515 425 q 1514 408 1515 411 q 1508 383 1511 397 q 1499 353 1504 368 q 1472 268 1488 321 q 1435 149 1457 215 q 1424 114 1431 133 q 1408 76 1418 94 q 1383 46 1397 58 q 1347 33 1368 33 l 1022 33 q 997 51 1003 33 q 992 82 992 68 m 1333 354 l 1332 354 l 1340 379 l 1243 379 l 1168 129 l 1265 129 l 1333 354 m 1265 351 l 1303 351 l 1243 158 l 1206 158 l 1265 351 z "},"&":{"ha":1153,"x_min":65,"x_max":1199,"o":"m 482 -6 l 482 -75 l 535 -75 q 576 -70 538 -75 q 668 -54 615 -65 q 776 -27 721 -43 q 864 13 831 -11 q 886 22 874 15 q 899 29 899 28 l 961 244 l 1131 244 q 1140 265 1132 244 q 1158 317 1149 286 q 1178 382 1168 347 q 1194 446 1188 417 q 1197 467 1196 451 q 1199 489 1199 483 l 806 489 q 862 513 826 496 q 935 547 897 529 q 1007 580 974 564 q 1056 603 1040 596 q 1078 654 1068 631 q 1095 700 1088 678 q 1106 744 1103 722 q 1110 793 1110 767 q 1106 830 1110 808 q 1094 870 1103 851 q 1072 902 1086 889 q 1038 915 1058 915 l 361 915 q 310 897 333 915 q 269 851 288 878 q 240 794 251 824 q 222 742 228 764 q 197 535 219 626 q 149 372 175 443 q 98 251 122 301 q 65 168 74 200 l 65 151 q 100 58 65 100 q 189 0 135 17 q 230 -3 203 -3 q 290 -5 257 -4 q 358 -6 324 -6 q 424 -6 394 -6 l 482 -6 m 1131 431 q 1128 390 1131 413 q 1119 346 1125 367 q 1103 311 1113 325 q 1078 297 1093 297 l 976 297 l 929 292 q 913 269 921 292 q 899 220 906 247 q 888 167 893 193 q 882 133 883 142 q 831 61 869 89 q 742 17 793 33 q 635 -8 692 0 q 528 -19 578 -15 l 538 36 l 264 38 l 188 56 q 162 72 174 58 q 142 101 150 85 q 129 135 133 118 q 126 163 125 151 q 154 249 132 200 q 201 366 176 299 q 247 521 226 433 q 274 724 268 608 q 288 763 279 739 q 310 808 297 786 q 340 847 322 831 q 378 863 357 863 l 1021 863 q 1036 854 1029 863 q 1047 835 1043 846 q 1054 812 1051 824 q 1057 793 1057 800 q 1042 713 1057 753 q 1003 638 1026 672 q 983 629 989 633 q 972 622 976 625 q 960 615 967 618 q 939 610 953 613 l 679 479 l 729 690 l 557 690 l 447 307 l 447 238 l 604 238 q 632 301 617 253 l 672 431 l 1131 431 m 569 290 q 556 289 565 290 q 543 288 547 288 q 518 290 532 288 q 500 307 504 292 q 522 395 510 344 q 546 494 533 446 q 571 581 558 543 q 596 633 583 619 l 668 633 l 569 290 z "},"'":{"ha":367,"x_min":131,"x_max":531,"o":"m 375 460 l 131 458 q 132 480 131 464 q 135 501 133 496 q 150 558 138 521 q 178 639 163 594 q 213 731 194 683 q 246 816 231 778 q 272 878 261 854 q 283 903 282 903 l 531 903 q 529 881 531 897 q 526 860 528 865 q 508 803 521 840 q 480 722 496 767 q 446 631 464 678 q 413 547 428 585 q 388 484 399 508 q 375 460 378 460 m 201 510 l 326 508 q 351 531 336 508 q 380 587 365 553 q 409 663 394 621 q 435 742 424 704 q 453 810 446 781 q 460 853 460 840 l 335 853 q 311 831 325 853 q 283 774 297 808 q 253 699 268 740 q 227 620 239 658 q 208 551 215 582 q 201 510 201 521 z "},"(":{"ha":869,"x_min":114,"x_max":1024,"o":"m 1024 899 l 565 447 l 732 0 l 306 0 l 114 458 l 572 899 l 1024 899 m 204 447 l 363 51 l 644 51 q 500 457 646 51 l 892 847 l 603 847 l 204 447 z "},")":{"ha":897,"x_min":10,"x_max":919,"o":"m 10 0 l 468 451 l 301 899 l 729 899 l 919 440 l 461 0 l 10 0 m 829 451 l 672 847 l 390 847 q 535 443 388 847 l 142 51 l 432 51 l 829 451 z "},"*":{"ha":389,"x_min":217,"x_max":558,"o":"m 461 693 q 475 718 463 693 q 502 779 488 743 q 531 854 517 815 q 553 922 546 893 q 557 944 556 928 q 558 965 558 960 l 310 965 q 296 940 307 965 q 270 879 285 915 q 242 803 256 843 q 222 735 229 764 q 218 713 219 729 q 217 692 217 697 l 461 693 m 288 743 q 294 790 288 761 q 310 847 300 819 q 334 895 321 875 q 363 915 347 915 l 488 915 q 481 868 488 897 q 465 810 475 839 q 440 762 454 782 q 413 742 426 742 l 288 743 z "},"+":{"ha":983,"x_min":85,"x_max":1042,"o":"m 460 594 l 178 594 q 164 565 175 594 q 138 493 153 535 q 110 408 124 451 q 89 335 96 364 q 86 313 88 329 q 85 292 85 297 l 310 292 q 336 288 325 289 q 356 289 347 288 l 321 122 l 326 68 l 631 71 l 697 300 l 718 301 l 968 301 q 969 304 969 301 q 971 306 971 306 q 972 308 971 307 q 978 325 975 315 q 983 347 981 335 q 985 350 985 349 q 986 354 985 351 q 992 375 988 364 q 1016 469 1003 418 q 1038 553 1029 519 l 1038 554 q 1039 563 1039 557 q 1040 574 1039 568 q 1041 582 1040 578 q 1042 589 1042 586 l 1042 596 l 793 596 l 850 801 l 550 801 l 460 594 m 368 343 l 156 343 q 154 354 153 340 q 161 390 156 368 q 174 440 167 413 q 191 490 182 467 q 210 528 200 513 q 231 543 221 543 l 483 542 q 489 540 486 542 q 495 540 492 538 q 505 552 499 542 q 522 588 511 563 q 548 656 532 613 q 588 767 564 699 l 781 769 l 781 753 l 728 572 q 732 569 728 569 q 739 563 738 569 l 739 544 l 971 544 l 971 532 q 970 527 971 529 q 969 522 969 525 q 965 475 969 500 q 963 456 965 469 q 950 400 958 424 q 943 381 949 390 q 940 374 940 376 q 936 368 939 371 q 929 358 935 364 q 918 353 921 353 l 667 353 q 663 351 664 353 q 657 349 660 351 q 653 345 654 346 q 649 342 651 344 q 646 338 646 339 q 640 331 643 336 q 639 328 639 329 q 638 326 639 328 q 637 324 638 325 q 636 322 636 324 q 633 307 632 313 q 634 305 633 306 q 635 304 635 304 q 638 301 635 304 q 621 247 631 278 q 602 188 611 215 q 586 141 593 160 q 578 122 579 122 l 364 119 l 413 333 l 368 343 z "},",":{"ha":415,"x_min":-54,"x_max":342,"o":"m 186 -175 q 198 -151 188 -175 q 224 -89 208 -126 q 256 -5 239 -51 q 290 86 274 42 q 318 167 306 131 q 336 224 331 204 q 340 245 339 229 q 342 267 342 261 l 93 267 q 82 239 93 267 q 54 169 71 211 q 19 78 38 128 q -17 -17 0 28 q -44 -94 -33 -61 q -54 -133 -54 -126 l -53 -176 l 186 -175 m 13 -125 q 19 -83 13 -114 q 38 -15 26 -53 q 65 63 50 22 q 94 138 79 104 q 122 194 108 172 q 146 217 136 217 l 271 217 q 264 174 271 204 q 246 106 257 144 q 220 27 235 68 q 191 -48 206 -14 q 163 -104 176 -82 q 138 -126 149 -126 l 13 -125 z "},"-":{"ha":708,"x_min":110,"x_max":753,"o":"m 679 303 q 689 331 681 303 q 708 399 697 360 q 731 482 719 439 q 749 554 742 525 q 751 576 750 560 q 753 597 753 592 l 183 597 q 172 569 181 597 q 153 501 164 540 q 132 419 143 461 q 114 347 121 376 q 111 326 113 342 q 110 304 110 310 l 679 303 m 181 356 q 181 394 178 364 q 191 459 183 425 q 210 520 199 493 q 236 547 221 547 l 682 547 q 685 508 688 539 q 675 442 683 476 q 654 381 667 408 q 626 354 642 354 l 181 356 z "},".":{"ha":415,"x_min":0,"x_max":342,"o":"m 244 -6 l 0 -7 q 1 15 0 -1 q 6 36 3 31 q 26 105 13 65 q 53 181 39 144 q 79 242 68 217 q 93 267 90 267 l 342 267 q 340 245 342 261 q 336 224 339 229 q 315 156 329 194 q 286 81 301 117 q 258 19 271 44 q 244 -6 246 -6 m 71 44 l 196 43 q 224 63 211 43 q 248 112 238 83 q 265 169 258 140 q 271 217 271 199 l 146 217 q 117 197 131 217 q 94 149 104 176 q 77 92 83 121 q 71 44 71 63 z "},"/":{"ha":771,"x_min":0,"x_max":981,"o":"m 0 0 l 417 0 l 981 896 l 564 896 l 0 0 m 97 56 l 611 843 l 857 843 l 857 826 q 835 783 857 822 q 774 681 813 743 q 687 540 736 619 q 583 376 638 461 q 472 208 528 292 q 364 51 415 124 l 97 56 z "},":":{"ha":415,"x_min":0,"x_max":501,"o":"m 244 -6 q 258 19 246 -6 q 285 81 271 44 q 315 156 300 117 q 336 224 329 194 q 340 245 339 229 q 342 267 342 261 l 93 267 q 79 242 90 267 q 53 181 68 217 q 26 105 39 144 q 6 36 13 65 q 1 15 3 31 q 0 -7 0 -1 l 244 -6 m 71 44 q 77 92 71 63 q 94 149 83 121 q 117 197 104 176 q 146 217 131 217 l 271 217 q 265 169 271 199 q 248 112 258 140 q 224 63 238 83 q 196 43 210 43 l 71 44 m 404 422 q 418 447 406 422 q 445 508 431 472 q 474 583 460 544 q 496 651 489 622 q 500 673 499 657 q 501 694 501 689 l 253 694 q 239 669 250 694 q 213 608 228 644 q 185 533 199 572 q 165 464 172 493 q 161 442 163 458 q 160 421 160 426 l 404 422 m 231 472 q 237 519 231 490 q 253 576 243 549 q 277 624 264 604 q 306 644 290 644 l 431 644 q 424 597 431 626 q 408 540 418 568 q 383 491 397 511 q 356 471 369 471 l 231 472 z "},";":{"ha":415,"x_min":-54,"x_max":501,"o":"m 404 422 q 418 447 406 422 q 445 508 431 472 q 474 583 460 544 q 496 651 489 622 q 500 673 499 657 q 501 694 501 689 l 253 694 q 239 669 250 694 q 213 608 228 644 q 185 533 199 572 q 165 464 172 493 q 161 442 163 458 q 160 421 160 426 l 404 422 m 231 472 q 237 519 231 490 q 253 576 243 549 q 277 624 264 604 q 306 644 290 644 l 431 644 q 424 597 431 626 q 408 540 418 568 q 383 491 397 511 q 356 471 369 471 l 231 472 m 186 -175 q 198 -151 188 -175 q 224 -89 208 -126 q 256 -5 239 -51 q 290 86 274 42 q 318 167 306 131 q 336 224 331 204 q 340 245 339 229 q 342 267 342 261 l 93 267 q 82 239 93 267 q 54 169 71 211 q 19 78 38 128 q -17 -17 0 28 q -44 -94 -33 -61 q -54 -133 -54 -126 l -53 -176 l 186 -175 m 13 -125 q 19 -83 13 -114 q 38 -15 26 -53 q 65 63 50 22 q 94 138 79 104 q 122 194 108 172 q 146 217 136 217 l 271 217 q 264 174 271 204 q 246 106 257 144 q 220 27 235 68 q 191 -48 206 -14 q 163 -104 176 -82 q 138 -126 149 -126 l 13 -125 z "},"<":{"ha":869,"x_min":114,"x_max":1024,"o":"m 1024 899 l 565 447 l 732 0 l 306 0 l 114 458 l 572 899 l 1024 899 m 204 447 l 363 51 l 644 51 q 500 457 646 51 l 892 847 l 603 847 l 204 447 z "},"=":{"ha":708,"x_min":64,"x_max":801,"o":"m 721 485 q 732 513 722 485 q 754 580 742 540 q 778 662 767 619 q 797 733 790 704 q 800 755 799 739 q 801 776 801 771 l 232 776 q 221 748 229 776 q 202 680 213 719 q 181 598 192 640 q 163 526 169 556 q 160 505 161 521 q 158 483 158 489 l 721 485 m 229 535 q 229 574 226 543 q 240 638 232 604 q 258 699 247 672 q 285 726 269 726 l 731 726 q 734 687 736 718 q 724 622 732 656 q 703 560 715 588 q 675 533 690 533 l 229 535 m 631 138 q 641 165 632 138 q 661 233 650 193 q 684 315 672 272 q 703 386 696 357 q 706 408 704 392 q 707 429 707 424 l 138 429 q 126 401 135 429 q 108 333 118 372 q 86 251 97 293 q 68 179 75 208 q 65 158 67 174 q 64 136 64 142 l 631 138 m 135 188 q 135 226 132 196 q 145 291 138 257 q 164 352 153 325 q 190 379 175 379 l 636 379 q 640 340 642 371 q 629 274 638 308 q 608 213 621 240 q 581 186 596 186 l 135 188 z "},">":{"ha":993,"x_min":106,"x_max":1015,"o":"m 106 0 l 564 451 l 397 899 l 825 899 l 1015 440 l 557 0 l 106 0 m 925 451 l 768 847 l 486 847 q 631 443 483 847 l 238 51 l 528 51 l 925 451 z "},"?":{"ha":1001,"x_min":65,"x_max":1110,"o":"m 229 513 l 144 326 l 464 326 l 490 394 l 950 394 l 1056 732 q 1058 750 1057 736 q 1058 767 1058 764 q 1056 794 1058 779 q 1049 822 1054 808 q 1032 845 1043 836 q 1003 854 1021 854 l 413 854 q 356 837 381 854 q 314 794 332 819 q 284 737 296 768 q 264 679 272 706 l 728 679 l 679 513 l 229 513 m 993 394 l 978 342 l 522 342 l 510 318 l 485 282 q 83 282 485 282 l 194 561 l 640 561 l 663 626 l 208 626 l 204 663 q 231 740 214 697 q 272 819 247 782 q 331 881 297 856 q 413 906 365 906 l 986 906 q 1076 869 1042 906 q 1110 783 1110 832 l 1110 776 l 1107 732 l 993 394 m 310 0 l 65 -1 q 67 20 65 4 q 69 42 68 36 q 88 104 76 71 q 111 166 100 138 q 131 213 122 194 q 143 232 140 232 l 392 232 q 390 210 392 226 q 386 189 389 194 q 367 127 379 160 q 344 66 356 94 q 322 19 332 38 q 310 0 311 0 m 136 50 l 261 49 q 288 63 276 49 q 306 97 299 76 q 317 141 314 118 q 321 182 321 164 l 196 182 q 169 168 181 182 q 151 134 158 154 q 140 91 143 114 q 136 50 136 68 z "},"@":{"ha":1001,"x_min":57,"x_max":1110,"o":"m 611 628 l 682 628 l 599 340 l 985 340 q 1003 380 994 357 q 1026 444 1013 403 q 1058 555 1039 486 q 1107 732 1076 624 l 1110 776 q 1077 866 1110 826 q 986 906 1044 906 l 413 906 q 332 881 367 906 q 272 819 297 856 q 231 740 247 782 q 204 663 214 697 q 163 529 183 597 q 124 397 143 461 q 89 276 106 333 q 58 174 72 218 l 57 131 q 90 40 57 79 q 181 0 122 0 l 753 0 q 860 26 814 0 q 933 104 907 51 l 981 275 l 501 275 l 611 628 m 107 139 q 108 156 107 143 q 111 174 110 169 q 137 280 124 232 q 167 379 150 328 q 203 492 183 431 q 247 640 222 554 q 267 703 254 667 q 299 774 279 740 q 347 831 319 807 q 413 854 375 854 l 1003 854 q 1032 845 1021 854 q 1049 822 1043 836 q 1056 794 1054 808 q 1058 767 1058 779 q 1058 750 1058 764 q 1056 732 1057 736 q 1047 699 1054 725 q 1030 638 1040 674 q 1008 563 1019 603 q 987 485 997 522 q 968 421 976 449 q 957 383 960 393 l 660 383 l 747 681 l 569 681 l 432 225 l 929 225 q 901 129 924 164 q 851 77 879 94 q 797 56 824 60 q 753 51 769 51 l 163 51 q 133 60 144 51 q 117 83 122 69 q 109 112 111 97 q 107 139 107 126 z "},"A":{"ha":1347,"x_min":10,"x_max":1328,"o":"m 657 1083 l 1218 1083 l 1328 0 l 853 0 l 853 83 l 574 83 l 490 0 l 10 0 l 657 1083 m 718 1019 l 676 978 q 649 934 675 976 q 580 823 622 892 q 485 668 538 754 q 379 494 432 582 q 278 325 326 406 q 199 186 231 244 q 165 128 179 158 q 150 61 150 97 l 449 61 l 532 144 l 917 144 l 917 61 l 1244 61 q 1244 90 1244 69 q 1242 135 1243 111 q 1241 179 1242 158 q 1240 208 1240 200 q 1226 353 1235 269 q 1209 526 1218 436 q 1191 705 1200 617 q 1174 863 1182 793 q 1162 976 1167 933 q 1157 1019 1157 1019 l 718 1019 m 865 728 q 886 581 881 661 q 892 425 892 500 l 892 333 l 635 333 l 676 417 q 713 482 688 438 q 765 573 738 526 q 814 658 792 619 q 843 708 836 697 q 852 720 844 714 q 865 728 860 726 m 824 519 q 778 476 800 504 q 757 417 757 447 l 824 417 l 824 519 z "},"B":{"ha":1179,"x_min":11,"x_max":1324,"o":"m 1319 878 l 1324 932 l 1324 940 q 1284 1043 1324 1000 q 1175 1086 1244 1086 l 324 1086 l 11 -6 l 894 -6 q 992 27 950 -4 q 1063 103 1033 58 q 1112 199 1092 149 q 1144 292 1132 250 l 1319 878 m 374 1024 l 1194 1024 q 1236 1003 1228 1024 q 1244 960 1244 983 l 1244 928 q 1244 908 1244 925 q 1242 886 1243 892 q 1205 749 1224 813 q 1165 619 1186 686 q 1117 476 1143 553 q 1060 300 1092 400 q 1033 221 1047 263 q 997 144 1018 179 q 946 85 975 108 q 876 61 917 61 l 100 61 l 374 1024 m 819 615 l 878 817 l 667 817 l 607 615 l 819 615 m 717 753 l 801 753 l 775 675 l 690 675 l 717 753 m 740 274 l 794 475 l 583 475 l 525 274 l 740 274 m 633 411 l 718 411 l 693 333 l 608 333 l 633 411 z "},"C":{"ha":1226,"x_min":83,"x_max":1358,"o":"m 83 174 q 84 205 83 183 q 85 228 85 226 l 274 917 q 297 968 281 939 q 335 1023 313 997 q 385 1066 358 1049 q 440 1083 413 1083 l 1232 1083 q 1280 1071 1257 1083 q 1320 1038 1303 1058 q 1348 994 1338 1018 q 1358 949 1358 971 q 1355 920 1358 942 q 1346 870 1351 899 q 1333 810 1340 842 q 1318 751 1325 778 q 1304 706 1311 724 q 1293 686 1297 688 l 835 561 l 769 561 q 778 636 769 601 q 786 715 786 671 q 776 718 783 715 q 760 724 768 721 q 744 729 751 728 q 732 728 736 731 q 708 695 719 721 q 685 633 696 669 q 663 553 674 596 q 643 467 653 510 q 625 386 633 424 q 608 324 617 349 l 1192 324 q 1180 245 1192 299 q 1151 137 1168 192 q 1115 41 1133 82 q 1085 0 1097 0 l 210 0 q 148 17 172 0 q 109 59 124 33 q 89 115 94 85 q 83 174 83 146 m 143 167 q 173 92 143 122 q 251 61 203 61 l 1065 61 q 1071 81 1065 63 q 1083 126 1076 100 q 1097 181 1090 153 q 1107 228 1104 208 q 1108 244 1107 233 q 1110 260 1110 254 l 528 260 l 668 792 l 875 790 q 849 712 861 751 q 836 632 836 672 q 860 633 842 632 q 883 636 878 635 q 1049 679 981 663 q 1161 710 1117 696 q 1231 741 1206 725 q 1269 783 1256 757 q 1285 847 1282 808 q 1290 944 1289 885 q 1283 970 1290 957 q 1263 994 1275 983 q 1237 1013 1251 1006 q 1210 1019 1222 1019 l 460 1019 q 389 983 418 1019 q 340 900 360 947 q 310 809 321 853 q 293 750 299 765 q 276 687 288 729 q 250 592 265 644 q 218 481 235 539 q 187 369 201 422 q 162 272 172 315 q 149 208 151 229 q 146 188 149 203 q 143 167 143 172 z "},"D":{"ha":1179,"x_min":11,"x_max":1324,"o":"m 1319 878 l 1324 932 q 1313 989 1324 961 q 1284 1038 1303 1017 q 1238 1073 1265 1060 q 1175 1086 1210 1086 l 324 1086 l 11 -6 l 894 0 q 992 30 950 0 q 1063 104 1033 60 q 1112 199 1092 149 q 1144 292 1132 250 l 1319 878 m 374 1024 l 1194 1024 q 1228 1013 1215 1024 q 1249 987 1242 1003 q 1258 953 1256 971 q 1261 919 1261 935 q 1259 911 1261 918 q 1255 896 1257 904 q 1251 881 1253 888 q 1249 872 1249 874 q 1214 738 1231 799 q 1178 614 1197 678 q 1137 476 1160 550 q 1081 303 1114 403 q 1052 218 1065 261 q 1019 140 1039 175 q 971 83 1000 106 q 894 61 942 61 l 100 61 l 374 1024 m 717 269 l 878 817 l 667 817 l 503 269 l 717 269 m 717 753 l 799 753 l 667 333 l 585 333 l 717 753 z "},"E":{"ha":1181,"x_min":25,"x_max":1340,"o":"m 25 0 l 1057 0 q 1070 19 1061 0 q 1089 67 1079 38 q 1108 134 1099 97 q 1126 206 1118 171 q 1140 273 1135 242 q 1144 324 1144 304 l 589 324 l 600 365 l 974 365 q 985 399 975 365 q 1008 481 994 433 q 1035 581 1021 529 q 1057 667 1049 632 q 1060 692 1058 674 q 1061 718 1061 711 l 703 718 l 714 760 l 1243 760 l 1265 792 q 1274 827 1265 793 q 1294 908 1282 861 q 1319 1006 1307 956 q 1340 1090 1332 1057 l 1340 1093 l 324 1093 l 25 0 m 117 93 q 117 98 117 94 q 118 103 118 101 q 143 192 126 132 q 180 329 160 253 q 222 490 200 406 q 265 651 244 575 q 301 788 285 728 q 326 875 318 847 q 333 897 328 882 q 342 929 338 913 q 352 962 347 946 q 360 985 357 978 q 372 1011 365 996 q 382 1026 378 1026 l 1258 1026 q 1258 1015 1258 1021 q 1257 1007 1257 1010 q 1246 969 1251 994 q 1236 919 1240 944 q 1228 875 1232 894 q 1224 853 1225 856 q 1213 834 1219 844 q 1201 824 1207 824 l 682 824 q 674 804 682 824 q 660 769 665 785 q 643 725 646 735 q 640 710 640 715 q 642 697 640 704 q 643 657 643 690 l 999 657 l 940 426 l 582 426 q 551 403 568 426 q 535 349 535 381 q 538 292 535 318 q 540 260 540 267 l 1074 260 q 1072 244 1074 254 q 1068 228 1069 233 l 1024 61 l 990 60 l 140 60 q 129 69 135 61 q 118 83 124 78 q 117 88 118 83 q 117 93 117 92 z "},"F":{"ha":1147,"x_min":25,"x_max":1336,"o":"m 25 0 l 557 0 q 574 29 565 0 q 592 108 582 58 q 614 225 601 158 q 643 365 626 292 l 974 365 q 985 399 975 365 q 1008 481 994 433 q 1035 581 1021 529 q 1057 667 1049 632 q 1060 692 1058 674 q 1061 718 1061 711 l 724 718 l 724 760 l 1243 760 l 1265 792 l 1335 1074 l 1336 1093 l 319 1093 l 25 0 m 119 90 l 124 100 q 135 153 122 103 q 167 281 147 204 q 210 450 186 358 q 258 627 235 542 q 300 780 282 713 q 326 875 318 847 q 347 951 338 906 q 375 1035 356 996 l 1260 1035 l 1258 1015 q 1253 971 1258 997 q 1242 919 1249 944 q 1231 875 1236 894 q 1224 853 1225 856 q 1213 834 1219 844 q 1201 824 1207 824 l 682 824 q 674 804 682 824 q 660 769 665 785 q 643 725 646 735 q 640 710 640 715 q 642 697 640 704 q 643 658 643 690 l 992 658 l 933 425 l 608 425 q 584 388 596 425 q 561 294 572 350 q 538 175 550 239 q 510 58 525 111 l 119 58 l 124 78 q 122 82 124 78 q 119 90 119 86 z "},"G":{"ha":1185,"x_min":78,"x_max":1332,"o":"m 578 -7 l 508 -7 q 431 -7 474 -7 q 349 -6 389 -7 q 276 -4 308 -6 q 226 0 243 -3 q 119 69 161 19 q 78 182 78 119 l 78 201 q 99 281 85 228 q 131 400 113 333 q 168 541 149 467 q 206 683 188 615 q 241 806 225 751 q 267 890 257 861 q 288 953 274 917 q 323 1021 301 989 q 372 1076 344 1053 q 433 1099 400 1099 l 1244 1099 q 1286 1083 1269 1099 q 1313 1044 1303 1067 q 1328 995 1324 1021 q 1332 951 1332 969 q 1315 839 1332 889 q 1267 724 1297 789 q 1031 646 1153 674 q 786 618 908 618 l 767 618 l 801 760 l 715 760 q 685 697 700 743 q 655 593 669 651 q 626 474 640 535 q 600 368 613 414 q 622 347 606 349 q 651 344 638 344 q 667 347 657 344 q 683 349 678 349 q 690 373 685 356 q 703 413 696 390 q 718 458 711 435 q 732 499 725 481 q 767 576 757 564 l 1236 576 l 1078 35 q 1063 26 1078 33 q 1036 15 1047 18 q 969 -18 1008 -3 q 888 -45 931 -33 q 801 -65 844 -57 q 724 -79 758 -74 q 666 -87 689 -85 q 642 -90 643 -90 l 578 -90 l 578 -7 m 644 43 l 633 -24 q 762 -9 693 -18 q 891 20 831 0 q 997 74 951 40 q 1058 160 1043 107 q 1078 234 1065 185 q 1106 333 1092 283 q 1130 424 1119 383 q 1142 474 1140 464 q 1144 493 1143 476 q 1144 515 1144 510 l 808 515 q 800 489 806 507 q 788 449 794 471 q 773 403 781 426 q 758 361 765 379 q 740 315 747 333 q 725 285 733 296 l 536 285 l 536 368 l 668 828 l 875 828 l 857 674 l 1126 732 q 1151 738 1143 735 q 1166 746 1160 742 q 1179 755 1172 750 q 1203 765 1186 760 q 1250 854 1232 806 q 1268 951 1268 903 q 1265 974 1268 960 q 1257 1001 1263 988 q 1243 1025 1251 1015 q 1225 1035 1235 1035 l 453 1035 q 408 1015 428 1035 q 372 969 388 996 q 346 915 357 943 q 328 868 335 886 q 303 781 318 835 q 269 662 288 726 q 233 527 251 597 q 198 393 214 457 q 169 277 182 329 q 151 194 157 225 q 155 162 150 182 q 170 122 160 142 q 194 85 181 101 q 225 67 208 69 l 317 44 l 644 43 z "},"H":{"ha":1288,"x_min":17,"x_max":1482,"o":"m 17 0 l 517 0 l 618 360 l 649 361 l 776 361 l 676 0 l 1176 0 l 1482 1083 l 982 1083 l 876 715 l 751 715 q 742 717 746 717 q 733 718 739 718 l 718 718 l 819 1083 l 319 1083 l 17 0 m 376 1019 l 725 1019 l 725 1000 q 718 971 725 999 q 699 897 711 943 q 668 787 686 850 q 628 651 650 724 l 924 651 l 1036 1019 l 1385 1019 l 1385 1000 q 1373 953 1385 999 q 1341 835 1361 908 q 1297 672 1321 763 q 1247 490 1272 582 q 1197 313 1221 397 q 1157 167 1174 228 q 1152 153 1154 163 q 1147 134 1150 144 q 1140 115 1143 124 q 1135 103 1138 106 q 1123 77 1129 93 q 1115 61 1117 61 l 761 61 l 849 375 l 853 425 l 582 425 l 494 167 q 491 153 493 163 q 486 134 489 144 q 481 115 483 124 q 475 103 478 106 q 463 77 469 93 q 453 61 457 61 l 101 61 l 376 1019 z "},"I":{"ha":628,"x_min":17,"x_max":819,"o":"m 319 1083 l 819 1083 l 517 0 l 17 0 l 319 1083 m 101 61 l 453 61 q 463 77 457 61 q 475 103 469 93 q 481 115 478 106 q 487 134 483 124 q 492 153 490 144 q 494 167 494 163 q 535 313 511 228 q 584 490 558 397 q 635 672 610 582 q 680 835 660 763 q 713 953 700 908 q 725 1000 725 999 l 725 1019 l 376 1019 l 101 61 z "},"J":{"ha":1281,"x_min":74,"x_max":1482,"o":"m 74 157 q 74 183 74 164 q 75 208 75 201 q 93 283 85 244 q 117 354 101 321 q 164 414 133 388 q 251 453 194 440 q 324 474 283 463 q 407 498 365 486 q 488 521 449 510 q 559 540 528 532 q 610 553 590 549 q 632 558 631 558 l 693 558 q 617 488 646 511 q 572 447 589 465 q 542 404 554 428 q 517 332 531 381 l 744 332 l 860 703 l 860 753 q 780 751 810 753 q 726 741 750 750 q 676 713 701 732 q 610 661 650 694 l 610 703 l 715 1083 l 1482 1083 q 1431 1028 1453 1064 q 1399 958 1408 992 l 1158 186 q 1122 118 1149 151 q 1061 58 1096 85 q 986 16 1026 32 q 908 0 946 0 l 200 0 q 143 15 167 0 q 103 52 119 29 q 81 103 88 75 q 74 157 74 131 m 133 215 q 134 174 133 200 q 141 124 135 149 q 161 80 147 99 q 200 61 175 61 l 886 61 q 957 67 924 61 q 1017 88 990 74 q 1065 126 1044 103 q 1094 185 1085 150 l 1344 1042 l 771 1042 q 756 1024 764 1042 q 738 978 747 1006 q 719 918 728 950 q 702 858 710 886 q 689 810 694 829 q 682 788 683 790 l 940 819 l 786 268 l 433 268 q 456 331 442 304 q 485 392 471 358 q 492 410 486 399 q 503 435 497 422 q 513 458 508 447 q 517 475 517 468 q 443 458 485 468 q 359 438 401 449 q 277 415 317 426 q 211 393 238 403 q 192 365 204 381 q 168 330 181 350 q 145 282 156 310 q 133 215 135 254 z "},"K":{"ha":1447,"x_min":17,"x_max":1649,"o":"m 1649 1078 l 1107 1078 l 742 710 l 718 715 l 817 1083 l 319 1083 l 17 0 l 517 0 l 618 360 l 669 361 l 785 0 l 1299 0 l 1099 536 l 1649 1078 m 376 1019 l 725 1019 l 725 1000 q 718 971 725 999 q 699 897 711 943 q 668 787 686 850 q 628 651 650 724 l 774 651 l 1142 1017 l 1490 1017 l 1018 549 q 1192 61 1193 61 l 853 61 l 724 425 l 582 425 l 494 167 q 491 153 493 163 q 486 134 489 144 q 481 115 483 124 q 475 103 478 106 q 463 77 469 93 q 453 61 457 61 l 101 61 l 376 1019 z "},"L":{"ha":1244,"x_min":17,"x_max":1258,"o":"m 17 19 q 72 47 42 31 q 133 83 103 63 q 188 128 164 103 q 225 186 213 154 l 482 1101 l 1126 1101 q 1066 1072 1101 1089 q 997 1033 1031 1056 q 937 982 964 1011 q 900 915 910 953 l 735 336 l 1065 336 q 1126 351 1100 336 q 1174 387 1153 365 q 1215 433 1196 408 q 1258 475 1235 457 l 1258 453 l 1124 19 q 1115 9 1124 17 q 1101 0 1107 1 l 1093 0 l 1025 0 l 885 0 l 572 0 q 312 1 408 0 q 160 3 215 1 q 75 9 104 6 q 17 19 46 13 m 286 167 l 246 58 l 1058 58 l 1082 103 q 1090 119 1082 104 q 1110 156 1099 133 q 1132 203 1121 178 q 1149 253 1143 229 q 1153 265 1149 256 q 1161 284 1157 274 q 1169 304 1165 294 q 1174 317 1174 314 l 1085 285 l 665 285 l 665 317 q 671 338 665 317 q 685 395 676 360 q 705 476 693 431 q 729 568 717 521 q 754 663 742 615 q 778 749 767 710 q 799 824 786 783 q 828 903 813 864 q 863 978 844 942 q 901 1040 882 1014 l 558 1040 l 517 999 l 286 167 z "},"M":{"ha":1560,"x_min":10,"x_max":1750,"o":"m 576 249 l 501 0 l 10 0 l 319 1083 l 649 1083 q 686 1056 667 1083 q 724 987 706 1029 q 762 894 743 944 q 799 798 781 844 q 838 715 818 751 q 876 667 857 679 l 1317 1083 l 1690 1083 l 1750 1075 l 1449 0 l 976 0 q 977 21 976 6 q 982 42 978 36 l 1024 228 l 1024 250 l 717 -57 l 576 249 m 357 1000 q 319 866 343 949 q 266 686 294 783 q 209 488 238 589 q 157 299 181 386 q 119 147 133 211 q 107 61 106 83 l 440 61 q 448 77 442 61 q 460 103 454 93 l 543 375 q 552 396 544 381 q 565 417 560 411 l 585 394 l 710 103 q 719 92 711 100 q 732 83 726 85 q 736 83 732 83 q 742 82 740 82 l 751 83 q 853 167 799 118 q 962 268 908 217 q 1063 365 1015 319 q 1143 436 1110 410 l 1065 83 l 1061 61 l 1399 61 l 1649 936 l 1657 1019 q 1625 1024 1649 1024 l 1582 1024 q 1527 1023 1556 1024 q 1474 1022 1499 1022 q 1428 1021 1449 1022 q 1399 1019 1408 1019 q 1378 1017 1390 1019 q 1352 1013 1365 1015 q 1328 1006 1339 1010 q 1315 1000 1318 1003 l 849 553 l 636 1019 l 376 1019 l 357 1000 z "},"N":{"ha":1219,"x_min":10,"x_max":1418,"o":"m 649 1083 l 319 1083 l 10 0 l 501 0 l 574 326 l 732 0 l 1108 0 l 1418 1083 l 926 1083 l 835 744 q 817 783 831 754 q 785 850 803 813 q 745 928 767 888 q 705 1004 724 969 q 671 1061 686 1039 q 649 1083 656 1083 m 1074 83 l 1051 61 l 785 61 q 764 86 776 69 l 578 469 l 557 483 l 540 453 l 460 103 q 448 77 454 93 q 440 61 442 61 l 86 61 q 118 163 94 79 q 177 374 142 246 q 258 663 213 501 q 357 1000 304 825 l 376 1019 l 636 1019 l 851 615 l 951 976 q 963 1003 957 988 q 974 1018 969 1018 l 1324 1018 l 1324 978 q 1303 903 1322 978 q 1250 705 1283 829 q 1172 419 1217 581 q 1074 83 1126 257 z "},"O":{"ha":1188,"x_min":68,"x_max":1332,"o":"m 1328 878 l 1332 932 q 1322 989 1332 961 q 1292 1038 1311 1017 q 1246 1073 1274 1060 q 1183 1086 1218 1086 l 494 1086 q 398 1056 439 1086 q 326 983 357 1026 q 276 888 296 939 q 244 794 257 836 q 195 634 219 715 q 149 476 171 553 q 106 331 126 400 q 69 208 86 263 l 68 157 q 78 98 68 126 q 108 48 89 69 q 154 13 126 26 q 217 0 182 0 l 903 0 q 1000 30 958 0 q 1071 104 1042 60 q 1120 199 1100 149 q 1153 292 1140 250 l 1328 878 m 128 167 q 163 316 147 250 q 197 449 179 382 q 238 594 214 517 q 299 778 263 671 q 322 853 307 810 q 360 934 336 896 q 417 999 383 972 q 494 1025 450 1025 l 1203 1025 q 1238 1014 1225 1025 q 1258 987 1251 1003 q 1267 952 1265 971 q 1269 919 1269 933 q 1269 900 1269 917 q 1267 878 1268 883 q 1252 823 1260 854 q 1233 757 1244 792 q 1176 572 1210 688 q 1093 311 1142 456 q 1069 236 1083 279 q 1034 154 1056 193 q 981 88 1013 115 q 903 61 949 61 l 194 61 q 159 72 172 61 q 139 99 146 83 q 130 133 132 115 q 128 167 128 151 m 874 761 l 869 761 l 886 817 l 675 817 l 511 269 l 725 269 l 874 761 m 725 753 l 807 753 l 675 333 l 593 333 l 725 753 z "},"P":{"ha":1172,"x_min":43,"x_max":1294,"o":"m 43 83 l 319 1083 l 1168 1083 q 1235 1069 1210 1083 q 1273 1031 1260 1054 q 1290 976 1286 1007 q 1294 911 1294 944 q 1288 804 1294 863 q 1268 685 1282 746 q 1232 564 1254 624 q 1177 453 1210 504 q 1101 365 1144 403 q 1001 311 1057 328 q 902 278 960 293 q 784 253 844 264 q 666 238 724 243 q 567 232 608 232 q 555 182 564 219 q 535 104 546 144 q 510 32 524 64 q 482 0 496 0 l 43 0 l 43 83 m 104 67 l 447 67 q 458 109 449 79 q 477 172 467 139 q 497 235 488 206 q 510 274 507 264 q 521 299 517 290 q 531 313 525 308 q 547 317 538 317 q 574 315 557 317 q 701 315 640 313 q 822 328 763 317 q 940 363 881 340 q 1061 425 999 385 q 1092 459 1074 433 q 1130 513 1111 485 q 1163 567 1149 542 q 1178 601 1176 593 q 1203 690 1193 651 q 1221 765 1214 729 q 1231 834 1228 800 q 1233 908 1233 868 q 1228 944 1233 925 q 1213 981 1224 964 q 1187 1008 1203 997 q 1149 1019 1171 1019 l 368 1019 l 104 67 m 585 561 l 626 728 q 632 743 629 733 q 638 763 635 753 q 644 781 642 772 q 649 792 646 789 q 658 804 650 797 q 668 811 667 811 l 878 811 q 860 685 878 753 q 815 561 842 617 q 804 550 810 558 q 793 542 799 542 l 607 542 l 585 561 m 794 736 q 735 733 758 736 q 698 718 711 729 q 678 685 685 707 q 668 625 671 663 q 689 624 674 625 q 710 624 704 624 q 777 655 760 624 q 794 736 794 686 z "},"Q":{"ha":1371,"x_min":68,"x_max":1407,"o":"m 1317 0 q 1330 34 1319 0 q 1353 116 1340 68 q 1378 215 1365 164 q 1400 301 1392 267 q 1404 327 1401 308 q 1407 353 1407 346 l 1174 353 l 1328 878 l 1332 932 q 1322 989 1332 961 q 1292 1038 1311 1017 q 1246 1073 1274 1060 q 1183 1086 1218 1086 l 494 1086 q 398 1056 439 1086 q 326 983 357 1026 q 276 888 296 939 q 244 794 257 836 q 195 634 219 715 q 149 476 171 553 q 106 331 126 400 q 69 208 86 263 l 68 157 q 78 98 68 126 q 108 48 89 69 q 154 13 126 26 q 217 0 182 0 l 1317 0 m 128 167 q 130 188 128 172 q 133 208 132 203 q 167 328 144 258 l 178 332 q 225 511 188 399 q 307 775 263 624 q 328 850 315 807 q 364 932 342 893 q 418 998 386 971 q 494 1025 450 1025 l 1203 1025 q 1238 1014 1225 1025 q 1258 987 1251 1003 q 1267 952 1265 971 q 1269 919 1269 933 q 1269 900 1269 917 q 1267 878 1268 883 q 1252 823 1260 854 q 1233 757 1244 792 q 1181 595 1214 701 q 1107 353 1147 489 l 1101 343 l 1093 292 l 1339 292 q 1322 226 1331 265 q 1306 149 1314 186 q 1289 85 1297 111 q 1272 58 1281 58 l 194 58 q 159 71 172 60 q 139 99 146 82 q 130 133 132 115 q 128 167 128 151 m 874 761 l 869 761 l 886 817 l 675 817 l 511 269 l 725 269 l 874 761 m 725 753 l 807 753 l 675 333 l 593 333 l 725 753 z "},"R":{"ha":1219,"x_min":25,"x_max":1294,"o":"m 43 83 l 319 1083 l 1168 1083 q 1235 1069 1210 1083 q 1273 1031 1260 1054 q 1290 976 1286 1007 q 1294 911 1294 944 q 1288 804 1294 863 q 1268 685 1282 746 q 1232 564 1254 624 q 1177 453 1210 504 q 1101 365 1144 403 q 1001 311 1057 328 l 1001 301 l 1001 292 l 1085 83 l 1107 19 q 1108 12 1107 18 q 1108 0 1108 6 l 649 0 q 616 21 628 0 q 594 70 604 42 q 574 126 585 99 q 543 167 563 154 q 533 127 539 154 q 521 72 528 100 q 505 22 514 43 q 482 0 496 0 l 25 0 l 43 83 m 115 57 l 443 57 q 453 97 444 67 q 471 163 461 128 q 490 229 481 199 q 501 269 499 260 q 516 306 513 297 q 543 315 519 315 q 555 313 549 315 q 565 311 561 311 l 682 75 q 692 61 685 69 q 701 53 700 53 l 1018 53 q 1017 63 1018 58 q 1015 75 1017 68 q 1004 97 1013 79 q 985 140 996 115 q 964 192 975 164 q 942 246 953 221 q 926 289 932 271 q 918 311 919 307 q 917 322 918 315 q 917 333 917 328 q 917 345 917 339 q 918 353 918 351 q 964 365 939 354 q 1013 390 989 376 q 1056 417 1036 404 q 1085 436 1075 429 q 1118 470 1103 446 q 1144 520 1133 494 q 1163 569 1156 546 q 1174 600 1171 592 q 1200 690 1189 650 q 1219 765 1211 729 q 1230 834 1226 800 q 1233 908 1233 868 q 1228 944 1233 925 q 1213 981 1224 964 q 1187 1008 1203 997 q 1149 1019 1171 1019 l 368 1019 l 115 57 m 594 607 l 626 728 q 632 743 629 733 q 638 763 635 753 q 644 781 642 772 q 649 792 646 789 q 658 804 650 797 q 668 811 667 811 l 878 811 q 865 708 878 753 q 825 607 851 663 q 814 594 819 603 q 803 586 808 586 l 617 586 l 594 607 m 811 747 l 693 747 l 668 651 l 776 651 l 811 747 z "},"S":{"ha":1218,"x_min":85,"x_max":1342,"o":"m 85 200 q 101 313 85 257 q 149 418 118 369 q 165 432 151 424 q 179 446 179 440 q 168 450 179 450 l 376 450 q 319 481 349 463 q 265 523 289 499 q 224 576 240 547 q 208 636 208 604 l 210 668 q 227 736 215 689 q 251 835 239 783 q 277 933 264 886 q 299 1000 290 979 q 317 1033 306 1015 q 341 1067 328 1051 q 370 1092 354 1082 q 401 1103 386 1103 l 1257 1103 q 1297 1091 1281 1103 q 1323 1062 1313 1079 q 1338 1024 1333 1044 q 1342 985 1342 1003 q 1340 942 1342 976 q 1332 871 1338 908 q 1319 802 1326 833 q 1299 769 1311 771 l 893 682 q 995 660 939 669 q 1101 635 1051 651 q 1183 588 1150 618 q 1217 500 1217 557 q 1210 408 1217 460 q 1191 300 1204 356 q 1156 190 1178 244 q 1101 94 1133 136 q 1024 26 1068 51 q 924 0 981 0 l 257 0 q 196 18 226 0 q 140 65 165 36 q 100 130 115 94 q 85 200 85 165 m 144 228 q 156 166 146 194 q 178 115 165 138 q 203 81 190 93 q 224 68 215 68 l 957 68 q 1018 95 990 68 q 1067 164 1046 122 q 1105 256 1089 206 q 1132 353 1121 306 q 1148 438 1143 400 q 1153 490 1153 475 q 1090 561 1153 546 l 632 667 q 630 679 632 667 q 628 700 628 692 q 628 722 628 704 q 632 760 629 740 q 640 795 635 779 q 651 811 644 811 l 882 811 q 883 771 882 782 q 888 757 883 760 q 900 757 892 754 q 925 760 908 760 q 964 768 946 764 q 1000 775 982 772 q 1144 803 1093 793 q 1221 824 1194 814 q 1256 844 1247 833 q 1274 875 1265 856 l 1278 985 q 1273 1023 1282 1004 q 1235 1042 1264 1042 l 428 1042 q 390 1017 408 1042 q 357 955 372 993 q 330 871 342 917 q 310 783 318 825 q 297 706 301 740 q 292 658 292 672 q 328 568 292 600 q 417 518 364 536 q 533 492 471 500 q 649 476 596 485 q 739 454 703 468 q 775 411 775 440 q 773 382 775 401 q 766 342 771 363 q 753 308 761 322 q 732 293 744 293 l 543 293 q 531 301 538 293 q 524 315 525 310 q 519 328 524 317 q 511 355 515 340 q 503 383 507 369 q 499 400 499 396 q 413 401 451 400 q 343 401 375 401 q 249 397 286 401 q 190 374 213 392 q 158 321 168 356 q 144 228 149 286 m 558 408 q 576 369 565 389 q 600 350 586 350 q 623 349 607 350 q 655 348 639 347 q 682 355 671 349 q 690 376 693 361 q 683 385 688 378 q 671 401 679 393 q 651 417 663 410 q 624 424 640 424 l 590 428 l 578 428 q 567 420 575 426 q 558 408 560 414 m 707 750 q 717 718 704 729 q 751 701 731 707 q 790 695 771 696 q 819 694 810 694 l 825 751 l 707 750 z "},"T":{"ha":1188,"x_min":232,"x_max":1382,"o":"m 311 0 l 515 740 l 232 740 q 233 755 232 743 q 235 769 233 767 q 249 828 238 786 q 273 916 260 869 q 299 1003 286 963 q 318 1061 311 1044 q 330 1088 324 1072 q 340 1103 336 1103 l 1340 1103 l 1382 1083 l 1290 740 l 1015 740 l 807 0 l 311 0 m 407 61 l 750 61 l 965 801 l 1235 801 q 1240 823 1235 801 q 1253 878 1246 844 q 1269 956 1261 913 q 1285 1040 1278 999 l 401 1040 q 366 999 379 1031 q 346 931 353 968 q 337 858 339 894 q 335 801 335 822 l 603 801 l 407 61 z "},"U":{"ha":1194,"x_min":82,"x_max":1375,"o":"m 82 157 q 83 183 82 164 q 83 208 83 201 q 108 298 92 238 q 145 435 125 358 q 188 595 165 511 q 231 755 211 679 q 267 890 251 831 q 292 978 283 950 q 300 1012 292 989 q 311 1042 308 1035 l 343 1083 l 814 1083 l 792 1019 l 603 333 l 686 333 l 894 1083 l 1375 1083 l 1375 1061 q 1364 1018 1375 1060 q 1335 910 1353 976 q 1294 759 1317 843 q 1247 590 1271 675 q 1203 426 1224 504 q 1167 292 1182 347 q 1134 199 1154 250 q 1085 104 1114 149 q 1014 30 1056 60 q 917 0 972 0 l 228 0 q 166 13 193 0 q 120 48 139 26 q 92 98 101 69 q 82 157 82 126 m 142 167 q 144 133 142 151 q 153 99 146 115 q 173 72 160 83 q 208 61 186 61 l 917 61 q 993 88 961 61 q 1047 154 1025 115 q 1081 236 1068 193 q 1103 311 1094 279 q 1138 431 1118 361 q 1179 576 1158 500 q 1220 728 1200 653 q 1256 863 1240 803 q 1282 961 1272 924 q 1292 1000 1292 999 l 1292 1019 l 950 1019 l 736 269 l 525 269 l 725 1019 l 375 1019 q 369 1006 375 1019 q 357 972 364 992 q 343 930 350 951 q 333 894 336 908 q 310 816 325 869 q 276 694 294 763 q 237 551 257 626 q 199 408 217 476 q 166 287 181 340 q 144 208 151 233 q 142 188 143 203 q 142 167 142 172 z "},"V":{"ha":1322,"x_min":203,"x_max":1524,"o":"m 710 561 l 675 974 l 678 1083 l 203 1083 l 315 0 l 876 0 l 1524 1085 l 999 1085 l 960 1000 l 817 750 q 785 688 801 719 q 756 631 769 657 q 730 585 742 604 q 710 561 718 567 m 815 61 l 376 61 q 372 104 376 61 q 359 217 367 147 q 342 376 351 288 q 322 556 332 465 q 305 731 313 647 q 293 875 297 814 q 290 905 293 885 q 284 947 288 925 q 278 990 281 969 q 275 1019 275 1010 l 603 1019 q 619 733 611 847 q 635 546 626 619 q 651 428 643 472 q 668 353 660 385 q 690 375 681 363 q 719 426 697 388 q 766 512 740 465 q 815 602 792 558 q 849 669 839 646 l 1050 1019 l 1383 1019 q 1370 960 1383 986 q 1342 907 1357 933 q 1338 901 1340 903 q 1335 894 1336 899 q 1253 758 1301 838 q 1152 590 1206 678 q 1046 415 1099 501 q 951 260 993 329 q 883 147 910 190 q 857 103 857 104 l 815 61 z "},"W":{"ha":1560,"x_min":17,"x_max":1758,"o":"m 1192 835 l 1267 1083 l 1758 1083 l 1449 0 l 1119 0 q 1072 26 1092 0 q 1034 93 1051 53 q 1002 183 1017 133 q 971 279 988 233 q 935 363 954 325 q 892 417 917 400 l 451 0 l 78 0 l 17 19 l 319 1083 l 792 1083 q 791 1063 792 1078 q 786 1042 790 1047 l 744 853 l 744 843 l 744 833 l 1051 1140 l 1192 835 m 1411 83 q 1426 128 1417 96 q 1445 198 1435 161 q 1464 267 1456 235 q 1475 311 1472 299 l 1494 375 q 1526 480 1508 418 q 1561 608 1543 542 q 1597 741 1579 675 q 1629 859 1615 807 q 1652 944 1643 911 q 1661 978 1661 978 l 1661 1019 l 1328 1019 q 1320 1004 1326 1019 q 1308 978 1314 989 l 1225 708 q 1216 688 1224 703 q 1203 667 1208 672 l 1183 686 l 1058 978 q 1049 991 1057 983 q 1036 1000 1042 999 q 1032 1001 1036 1000 q 1026 1001 1028 1001 q 1022 1001 1025 1001 q 1017 1000 1018 1000 q 913 915 968 965 q 803 813 857 865 q 701 710 749 760 q 619 625 653 660 l 619 635 l 619 644 l 703 1000 q 705 1011 703 1006 q 707 1019 707 1017 l 369 1019 l 119 144 l 103 61 q 113 60 107 60 q 125 60 118 60 l 157 60 l 236 60 q 318 60 281 60 q 369 61 356 61 q 389 64 375 61 q 417 70 403 67 q 441 77 431 74 q 453 83 451 81 l 919 528 l 1132 61 l 1392 61 l 1411 83 z "},"X":{"ha":1497,"x_min":10,"x_max":1699,"o":"m 835 0 l 1349 0 l 1149 536 l 1699 1078 l 1157 1078 l 942 835 l 874 1078 l 360 1078 l 560 542 l 10 0 l 551 0 l 769 201 l 835 0 m 924 719 l 1192 1017 l 1540 1017 l 1068 549 q 1242 61 1243 61 l 903 61 l 808 310 l 790 308 l 517 61 l 168 61 l 640 532 q 467 1017 464 1017 l 803 1017 l 901 726 l 924 719 z "},"Y":{"ha":1460,"x_min":319,"x_max":1658,"o":"m 1108 536 l 1658 1078 l 1117 1078 l 901 835 l 833 1078 l 319 1078 l 519 542 l 390 0 l 932 0 l 1108 536 m 883 719 l 1151 1017 l 1500 1017 l 1028 549 l 874 60 l 465 60 l 600 532 q 426 1017 424 1017 l 765 1017 l 861 726 l 883 719 z "},"Z":{"ha":1251,"x_min":65,"x_max":1383,"o":"m 1290 740 l 1383 1058 l 1342 1078 l 342 1078 q 331 1063 338 1078 q 319 1036 325 1047 q 300 983 313 1019 q 274 904 288 946 q 249 824 260 863 q 235 769 238 786 q 233 755 233 767 q 232 740 232 743 l 718 740 l 149 344 q 135 309 146 343 q 112 227 125 275 q 86 128 99 179 q 65 43 74 76 l 65 0 l 1136 0 q 1149 38 1139 3 q 1170 119 1158 72 q 1194 217 1182 167 q 1215 301 1207 267 q 1218 327 1217 308 q 1219 353 1219 346 l 799 353 l 1290 740 m 892 801 l 324 801 q 330 851 324 822 q 347 909 336 879 q 372 967 358 939 q 403 1015 386 994 l 1286 1015 q 1271 935 1279 974 q 1255 866 1263 896 q 1241 819 1247 836 q 1235 801 1235 801 l 619 293 l 1135 293 q 1131 232 1135 271 q 1119 155 1128 193 q 1099 89 1111 117 q 1068 61 1086 61 l 143 61 q 147 120 143 79 q 160 203 151 161 q 183 276 169 244 q 215 307 197 307 l 892 801 z "},"[":{"ha":1029,"x_min":114,"x_max":1024,"o":"m 1024 -1 l 565 450 l 732 897 l 306 897 l 114 439 l 572 -1 l 1024 -1 m 204 450 l 363 846 l 644 846 q 500 440 646 846 l 892 50 l 603 50 l 204 450 z "},"\\":{"ha":1201,"x_min":68,"x_max":1383,"o":"m 690 335 l 717 411 l 135 411 l 157 475 l 160 475 l 244 794 q 276 889 257 838 q 324 985 294 940 q 396 1060 354 1029 q 494 1090 438 1090 l 1383 1090 l 1286 757 l 711 757 l 686 676 l 1268 676 q 1238 581 1251 625 q 1213 492 1225 536 q 1185 399 1200 447 q 1153 292 1171 350 q 1120 199 1140 250 q 1071 104 1100 149 q 1000 30 1042 60 q 903 0 958 0 l 217 0 q 108 43 147 0 q 68 149 68 86 l 68 157 l 69 208 l 111 335 l 690 335 m 1243 811 l 1315 1025 l 494 1025 q 422 1001 453 1025 q 369 941 390 976 q 333 865 347 906 q 308 792 318 825 q 307 783 307 790 q 303 775 307 776 q 282 707 293 744 q 259 630 271 669 q 237 550 247 590 q 218 475 226 510 l 800 475 l 740 274 l 150 274 l 128 167 q 130 133 128 151 q 139 99 132 115 q 159 72 146 83 q 194 61 172 61 l 903 61 q 993 94 956 61 q 1057 178 1031 126 q 1101 293 1083 229 q 1132 418 1118 357 q 1158 532 1146 479 q 1185 615 1169 585 l 610 615 l 667 811 l 1243 811 z "},"]":{"ha":897,"x_min":10,"x_max":919,"o":"m 10 897 l 468 446 l 301 -1 l 729 -1 l 919 457 l 461 897 l 10 897 m 829 446 l 672 50 l 390 50 q 535 454 388 50 l 142 846 l 432 846 l 829 446 z "},"^":{"ha":1190,"x_min":14,"x_max":1114,"o":"m 692 435 l 721 92 l 718 0 l 1114 0 l 1021 903 l 553 903 l 14 -1 l 451 -1 l 483 69 l 603 278 q 628 329 615 303 q 653 377 642 356 q 675 415 665 399 q 692 435 685 431 m 604 851 l 969 851 q 974 815 969 851 q 984 721 978 779 q 999 588 990 663 q 1015 439 1007 514 q 1028 294 1022 364 q 1039 174 1035 224 q 1041 149 1039 165 q 1047 113 1043 132 q 1052 78 1050 94 q 1054 53 1054 61 l 781 53 q 767 291 774 196 q 754 448 761 386 q 740 546 747 510 q 726 608 733 582 q 708 590 717 600 q 685 548 703 581 q 645 476 667 515 q 604 401 624 438 q 576 344 585 364 l 408 53 l 131 53 q 142 103 131 81 q 165 147 153 125 q 168 152 167 150 q 171 157 169 154 q 239 271 199 204 q 323 411 279 338 q 411 557 367 485 q 490 687 456 629 q 547 781 525 744 q 569 817 569 817 l 604 851 z "},"_":{"ha":663,"x_min":3,"x_max":646,"o":"m 572 -8 q 582 20 574 -8 q 601 88 590 49 q 624 171 613 128 q 642 243 635 214 q 644 265 643 249 q 646 286 646 281 l 76 286 q 65 258 74 286 q 47 190 57 229 q 25 108 36 150 q 7 36 14 65 q 4 15 6 31 q 3 -7 3 -1 l 572 -8 m 74 44 q 74 83 71 53 q 84 148 76 114 q 103 209 92 182 q 129 236 114 236 l 575 236 q 578 197 581 228 q 568 131 576 165 q 547 70 560 97 q 519 43 535 43 l 74 44 z "},"`":{"ha":396,"x_min":222,"x_max":500,"o":"m 494 693 q 498 718 496 693 q 500 779 500 743 q 497 854 500 815 q 489 922 494 893 q 484 944 490 928 q 475 965 478 960 l 226 965 q 223 940 224 965 q 224 879 222 915 q 230 803 226 843 q 239 735 233 764 q 242 713 238 729 q 250 692 247 697 l 494 693 m 299 743 q 285 790 292 761 q 278 847 279 819 q 281 895 276 875 q 301 915 286 915 l 426 915 q 440 868 433 897 q 447 810 446 839 q 443 762 449 782 q 424 742 438 742 l 299 743 z "},"a":{"ha":1135,"x_min":8,"x_max":1107,"o":"m 547 903 l 1015 903 l 1107 0 l 711 0 l 711 69 l 478 69 l 408 0 l 8 0 l 547 903 m 599 850 l 564 815 q 544 785 561 813 q 499 714 526 758 q 435 611 471 669 q 360 490 399 553 q 284 361 322 426 q 212 237 246 296 q 151 129 178 178 q 111 50 125 81 l 374 50 l 443 121 l 764 121 l 764 51 l 1038 51 q 1037 76 1038 58 q 1035 113 1036 93 q 1034 149 1035 132 q 1033 174 1033 167 q 1022 294 1029 224 q 1008 439 1015 364 q 992 588 1000 514 q 978 719 985 661 q 968 814 972 778 q 964 850 964 850 l 599 850 m 721 607 q 739 484 735 551 q 743 354 743 417 l 743 278 l 529 278 l 564 347 q 594 402 574 365 q 638 477 615 439 q 678 548 660 515 q 703 590 697 581 q 710 600 704 594 q 721 607 717 606 m 686 433 q 649 396 667 419 q 631 347 631 372 l 686 347 l 686 433 z "},"b":{"ha":994,"x_min":10,"x_max":1103,"o":"m 1100 732 l 954 243 q 927 165 943 207 q 886 86 911 124 q 827 23 861 49 q 746 -4 793 -3 l 10 -4 l 269 906 l 979 906 q 1069 869 1036 906 q 1103 783 1103 833 l 1103 776 l 1100 732 m 311 853 l 83 51 l 731 51 q 788 71 764 51 q 831 120 813 90 q 861 185 849 150 q 883 250 874 219 q 931 397 910 333 q 970 517 953 461 q 1003 625 988 572 q 1035 739 1019 678 q 1037 757 1036 743 q 1038 774 1038 771 q 1038 800 1038 786 q 1035 826 1038 814 q 1023 845 1032 838 q 996 853 1014 853 l 311 853 m 683 513 l 506 513 l 556 681 l 732 681 l 683 513 m 597 628 l 575 563 l 646 563 l 668 628 l 597 628 m 617 228 l 438 228 l 486 396 l 663 396 l 617 228 m 528 343 l 507 278 l 578 278 l 599 343 l 528 343 z "},"c":{"ha":1033,"x_min":69,"x_max":1132,"o":"m 69 144 q 74 95 69 121 q 92 49 79 69 q 124 14 104 28 q 175 0 144 0 l 904 0 q 929 34 914 0 q 959 114 944 68 q 983 204 974 160 q 993 269 993 249 l 507 269 q 528 353 517 300 q 553 460 540 407 q 580 556 565 514 q 610 607 594 599 q 633 603 617 611 q 656 596 650 596 q 649 531 656 560 q 642 468 642 501 l 696 468 l 1078 572 q 1092 605 1083 574 q 1110 674 1101 636 q 1126 747 1119 713 q 1132 790 1132 782 q 1124 828 1132 808 q 1101 865 1115 849 q 1067 892 1086 882 q 1026 903 1047 903 l 367 903 q 321 888 343 903 q 280 852 299 874 q 247 806 261 831 q 228 764 233 782 l 71 190 q 70 171 71 189 q 69 144 69 153 m 119 139 q 122 156 119 143 q 124 174 124 169 q 135 226 126 190 q 156 307 144 263 q 182 401 168 351 q 208 494 196 450 q 230 573 219 538 q 244 625 240 608 q 258 674 249 638 q 283 750 267 711 q 324 819 300 789 q 383 850 349 850 l 1008 850 q 1031 844 1019 850 q 1053 829 1043 839 q 1069 808 1063 819 q 1075 788 1075 797 q 1070 706 1074 738 q 1057 652 1067 674 q 1026 617 1047 631 q 968 592 1006 604 q 874 567 931 581 q 736 531 818 553 q 717 528 732 529 q 697 526 701 526 q 708 594 697 561 q 729 658 718 626 l 557 660 l 440 217 l 925 217 q 924 203 925 213 q 922 190 922 194 q 914 151 919 174 q 902 106 908 128 q 892 68 896 83 q 888 51 888 53 l 210 51 q 144 77 169 51 q 119 139 119 103 z "},"d":{"ha":994,"x_min":10,"x_max":1103,"o":"m 1100 732 l 954 243 q 927 166 943 208 q 886 87 911 124 q 827 25 861 50 q 746 0 793 0 l 10 -4 l 269 906 l 979 906 q 1031 894 1008 906 q 1070 866 1054 883 q 1094 825 1086 849 q 1103 776 1103 801 l 1100 732 m 311 853 l 83 51 l 746 51 q 809 69 785 51 q 849 117 833 88 q 876 182 865 146 q 900 253 888 218 q 947 397 928 336 q 983 512 967 458 q 1012 615 999 565 q 1040 726 1025 665 q 1042 734 1040 728 q 1047 747 1044 740 q 1050 760 1049 754 q 1051 767 1051 765 q 1049 794 1051 779 q 1041 822 1047 810 q 1024 844 1035 835 q 996 853 1013 853 l 311 853 m 597 225 l 419 225 l 556 681 l 732 681 l 597 225 m 597 628 l 488 278 l 556 278 l 665 628 l 597 628 z "},"e":{"ha":996,"x_min":21,"x_max":1117,"o":"m 21 0 l 881 0 q 899 33 886 0 q 924 111 911 67 q 945 201 936 156 q 954 269 954 246 l 490 269 l 500 304 l 811 304 q 821 333 813 304 q 840 401 829 361 q 863 484 851 442 q 881 556 874 526 q 883 577 882 561 q 885 599 885 593 l 586 599 l 594 633 l 1036 633 l 1054 660 q 1061 690 1054 661 q 1078 758 1068 718 q 1099 839 1089 797 q 1117 908 1110 881 l 1117 911 l 269 911 l 21 0 m 97 78 q 98 82 97 79 q 99 86 99 85 q 119 160 106 110 q 150 275 133 211 q 185 409 167 339 q 221 542 204 479 q 251 656 238 606 q 272 729 265 706 q 277 747 274 735 q 285 774 281 760 q 293 801 289 789 q 300 821 297 814 q 310 843 304 831 q 318 856 315 856 l 1049 856 q 1048 847 1049 851 q 1047 839 1047 842 q 1039 808 1043 828 q 1031 767 1035 788 q 1024 730 1026 746 q 1019 711 1021 714 q 1011 695 1017 704 q 1001 686 1006 686 l 568 686 q 561 669 568 686 q 550 642 554 653 q 536 604 539 613 q 533 592 533 596 q 535 581 533 588 q 536 547 536 575 l 832 547 l 783 356 l 485 356 q 460 336 474 356 q 446 290 446 317 q 448 244 446 265 q 450 217 450 222 l 894 217 q 893 203 894 213 q 890 190 892 194 l 853 51 l 825 50 l 117 50 q 108 58 113 51 q 99 69 103 65 q 98 73 99 69 q 97 78 97 76 z "},"f":{"ha":968,"x_min":21,"x_max":1114,"o":"m 21 0 l 267 911 l 1114 911 l 1113 894 l 1054 660 l 1036 633 l 603 633 l 603 599 l 885 599 q 883 577 885 593 q 881 556 882 561 q 863 484 874 526 q 840 401 851 442 q 821 333 829 361 q 811 304 813 304 l 536 304 q 512 188 522 243 q 493 90 501 132 q 478 24 485 49 q 464 0 471 0 l 21 0 m 100 75 q 101 69 100 72 q 103 65 103 65 l 100 49 l 425 49 q 448 147 438 93 q 467 246 458 200 q 486 323 476 292 q 507 354 496 354 l 778 354 l 826 549 l 536 549 q 535 581 536 575 q 533 592 533 588 q 536 604 533 596 q 550 642 539 613 q 561 669 554 653 q 568 686 568 686 l 1001 686 q 1011 695 1006 686 q 1019 711 1017 704 q 1025 730 1021 714 q 1035 767 1029 746 q 1044 809 1040 788 q 1049 846 1049 831 l 1050 863 l 313 863 q 289 792 297 831 q 272 729 281 754 q 250 649 265 706 q 216 522 235 593 q 176 375 197 451 q 140 235 156 299 q 113 128 124 171 q 103 83 101 86 l 100 75 z "},"g":{"ha":999,"x_min":65,"x_max":1110,"o":"m 482 -6 l 482 -75 l 535 -75 q 576 -70 538 -75 q 668 -54 615 -65 q 775 -27 721 -43 q 864 13 829 -11 q 886 22 874 15 q 899 29 899 28 l 1031 481 l 639 481 q 610 415 631 471 q 598 381 604 400 q 585 344 592 363 q 575 311 579 326 q 569 290 571 296 q 556 289 565 290 q 543 288 547 288 q 518 290 532 288 q 500 307 504 292 q 522 395 510 344 q 546 494 533 446 q 571 581 558 543 q 596 633 583 619 l 668 633 l 639 515 l 656 515 q 858 538 756 515 q 1056 603 961 561 q 1078 654 1068 631 q 1095 700 1088 678 q 1106 744 1103 722 q 1110 793 1110 767 q 1106 830 1110 808 q 1094 870 1103 851 q 1072 902 1086 889 q 1038 915 1058 915 l 361 915 q 310 897 333 915 q 269 851 286 878 q 240 794 251 824 q 222 742 228 764 q 201 671 214 717 q 172 569 188 625 q 140 451 157 513 q 108 333 122 389 q 82 233 93 278 q 65 168 71 189 l 65 151 q 100 58 65 100 q 189 0 135 17 q 249 -3 207 -3 q 336 -5 290 -4 q 424 -6 382 -6 q 482 -6 465 -6 m 538 36 l 264 38 l 188 56 q 162 72 174 58 q 142 101 150 85 q 129 135 133 118 q 126 163 125 151 q 141 231 131 188 q 165 328 151 275 q 194 439 178 381 q 225 551 210 497 q 253 651 240 606 q 274 724 265 696 q 288 763 279 739 q 310 808 297 786 q 340 847 322 831 q 378 863 357 863 l 1021 863 q 1036 854 1029 863 q 1047 835 1043 846 q 1054 812 1051 824 q 1057 793 1057 800 q 1042 713 1057 753 q 1003 638 1026 672 q 983 630 989 633 q 972 623 976 626 q 960 616 967 619 q 939 610 953 613 l 714 561 l 729 690 l 557 690 l 447 307 l 447 238 l 604 238 q 617 262 611 246 q 632 301 624 278 q 643 336 638 317 q 655 374 649 356 q 666 408 661 393 q 674 429 671 422 l 954 429 q 953 411 954 425 q 951 394 953 397 q 941 353 950 386 q 920 278 932 319 q 898 195 908 236 q 882 133 888 154 q 832 61 869 89 q 743 17 794 33 q 635 -8 692 0 q 528 -19 578 -15 l 538 36 z "},"h":{"ha":1085,"x_min":14,"x_max":1235,"o":"m 14 0 l 267 903 l 683 903 l 599 599 l 611 599 q 619 598 615 599 q 626 596 622 597 l 731 596 l 818 903 l 1235 903 l 981 0 l 564 0 l 647 301 l 540 301 l 515 300 l 431 0 l 14 0 m 314 850 l 85 51 l 378 51 q 386 65 381 51 q 396 86 392 78 q 405 112 400 92 q 413 139 410 132 l 485 354 l 711 354 l 707 313 l 635 51 l 929 51 q 936 65 931 51 q 946 86 942 78 q 956 112 950 92 q 964 139 961 132 q 997 260 978 189 q 1038 408 1017 332 q 1080 560 1060 485 q 1117 697 1100 636 q 1144 794 1133 757 q 1154 833 1154 832 l 1154 850 l 864 850 l 769 543 l 524 543 q 556 656 542 603 q 581 747 571 708 q 598 809 592 786 q 604 833 604 832 l 604 850 l 314 850 z "},"i":{"ha":535,"x_min":14,"x_max":683,"o":"m 267 903 l 14 0 l 431 0 l 683 903 l 267 903 m 85 51 l 314 850 l 604 850 l 604 833 q 594 794 604 832 q 567 697 583 757 q 529 560 550 636 q 487 408 508 485 q 446 260 465 332 q 413 139 426 189 q 406 112 411 132 q 396 86 400 92 q 386 65 392 78 q 378 51 381 51 l 85 51 z "},"j":{"ha":1079,"x_min":61,"x_max":1235,"o":"m 61 131 q 62 152 61 136 q 63 174 63 168 q 77 237 71 204 q 97 299 83 269 q 137 351 111 328 q 210 385 163 374 q 304 411 250 397 q 407 438 358 425 q 490 458 456 450 q 526 465 524 465 l 578 465 q 514 407 538 425 q 475 374 490 389 q 450 340 460 360 q 431 276 440 319 l 621 276 l 717 586 l 717 628 q 650 626 675 628 q 605 617 625 625 q 563 594 585 610 q 508 551 542 579 l 508 586 l 596 903 l 1235 903 q 1192 856 1211 886 q 1165 799 1174 826 l 965 156 q 935 99 957 126 q 885 49 914 71 q 822 13 856 26 q 757 0 789 0 l 167 0 q 119 13 139 0 q 86 44 99 25 q 67 85 74 63 q 61 131 61 108 m 111 179 q 112 145 111 167 q 118 103 113 124 q 135 67 124 82 q 167 51 146 51 l 739 51 q 782 60 756 51 q 835 84 808 69 q 885 117 863 99 q 913 154 907 135 l 1121 868 l 646 868 q 625 816 635 844 q 607 760 615 788 q 593 708 599 732 q 586 674 588 685 l 785 679 l 656 224 l 361 224 q 381 276 368 254 q 404 326 393 299 q 410 342 406 332 q 419 362 414 351 q 427 381 424 372 q 431 396 431 390 q 369 382 404 390 q 299 365 335 374 q 231 346 264 356 q 176 328 199 336 q 164 306 171 317 q 149 278 157 294 q 131 238 140 261 q 111 179 121 214 z "},"k":{"ha":1218,"x_min":14,"x_max":1374,"o":"m 1374 899 l 922 899 l 618 592 l 599 596 l 681 903 l 267 903 l 14 0 l 431 0 l 515 300 l 558 300 l 654 0 l 1082 0 l 915 447 l 1374 899 m 314 850 l 604 850 l 604 833 q 599 809 604 832 q 583 747 593 786 q 557 656 572 708 q 524 543 542 603 l 644 543 l 951 847 l 1242 847 l 849 457 q 993 51 994 51 l 711 51 l 603 354 l 485 354 l 413 139 q 409 127 411 135 q 405 111 407 119 q 400 96 403 103 q 396 86 397 89 q 386 65 392 78 q 378 51 381 51 l 85 51 l 314 850 z "},"l":{"ha":1049,"x_min":14,"x_max":1049,"o":"m 14 17 q 60 39 35 26 q 111 69 86 51 q 157 108 136 86 q 188 156 178 129 l 401 918 l 939 918 q 889 893 918 907 q 831 860 860 879 q 781 817 803 842 q 750 763 758 793 l 613 281 l 888 281 q 939 293 917 281 q 978 323 961 306 q 1013 360 996 340 q 1049 396 1029 381 l 1049 378 l 936 17 q 929 8 936 14 q 918 0 922 1 l 911 0 l 854 0 l 738 0 l 476 0 q 260 1 340 0 q 133 3 179 1 q 63 8 86 6 q 14 17 39 11 m 239 139 l 181 54 l 888 58 l 901 86 q 908 99 901 88 q 925 130 915 111 q 944 170 935 149 q 957 211 953 192 q 960 220 957 213 q 967 237 964 228 q 974 253 971 246 q 978 264 978 261 l 904 238 l 554 238 l 554 264 q 564 303 554 265 q 588 397 574 342 q 618 513 601 451 q 649 624 635 575 q 666 686 656 653 q 690 752 676 719 q 719 815 704 785 q 751 867 735 844 l 465 867 l 431 832 l 239 139 z "},"m":{"ha":1311,"x_min":8,"x_max":1458,"o":"m 481 207 l 597 -47 l 853 208 l 853 190 l 818 35 q 815 17 815 31 q 814 0 814 4 l 1207 0 l 1458 896 l 1408 903 l 1097 903 l 731 556 q 698 597 714 567 q 666 665 682 626 q 634 745 650 703 q 603 822 618 788 q 572 880 588 857 q 540 903 556 903 l 267 903 l 8 0 l 418 0 l 481 207 m 297 833 l 314 850 l 531 850 l 707 461 l 1096 833 q 1106 838 1097 835 q 1126 844 1115 842 q 1148 848 1138 846 q 1165 850 1158 850 q 1190 851 1174 850 q 1228 851 1207 851 q 1272 852 1249 851 q 1318 853 1296 853 l 1354 853 q 1381 850 1375 853 l 1374 781 l 1165 51 l 885 51 l 888 69 l 953 364 q 885 303 925 342 q 801 223 846 265 q 711 140 757 181 q 626 69 665 99 l 618 68 q 613 69 617 68 q 610 69 610 69 q 599 77 606 71 q 592 86 593 83 l 488 329 l 471 347 q 460 330 467 343 q 453 313 454 317 l 383 86 q 374 65 379 78 q 367 51 368 51 l 89 51 q 100 123 88 69 q 132 249 113 176 q 176 406 151 321 q 223 571 200 490 q 266 721 246 651 q 297 833 286 790 z "},"n":{"ha":1028,"x_min":8,"x_max":1182,"o":"m 540 903 l 267 903 l 8 0 l 418 0 l 478 272 l 610 0 l 924 0 l 1182 903 l 772 903 l 696 621 q 681 653 692 629 q 654 709 669 678 q 622 774 639 740 q 588 837 604 808 q 558 884 571 865 q 540 903 546 903 m 894 69 l 876 51 l 654 51 q 646 60 650 56 q 636 72 642 65 l 482 392 l 464 403 l 450 378 l 383 86 q 374 65 379 78 q 367 51 368 51 l 72 51 q 99 135 79 65 q 147 312 118 206 q 215 553 176 418 q 297 833 253 688 l 314 850 l 531 850 l 710 513 l 793 814 q 803 836 797 824 q 811 849 808 849 l 1103 849 l 1103 815 q 1085 753 1101 815 q 1042 587 1069 690 q 976 349 1014 483 q 894 69 939 214 z "},"o":{"ha":1001,"x_min":57,"x_max":1110,"o":"m 1107 732 l 1110 776 q 1077 866 1110 826 q 986 906 1044 906 l 413 906 q 332 881 367 906 q 272 819 297 856 q 231 740 247 782 q 204 663 214 697 q 163 529 183 597 q 124 397 143 461 q 89 276 106 333 q 58 174 72 218 l 57 131 q 90 40 57 79 q 181 0 122 0 l 753 0 q 834 25 800 0 q 893 87 868 50 q 934 166 918 124 q 961 243 950 208 l 1107 732 m 107 139 q 136 263 124 208 q 164 374 149 318 q 199 495 179 431 q 249 649 218 560 q 268 710 256 675 q 300 778 281 746 q 347 832 319 810 q 413 854 375 854 l 1003 854 q 1032 845 1021 854 q 1049 822 1043 836 q 1056 794 1054 808 q 1058 767 1058 779 q 1058 750 1058 764 q 1056 732 1057 736 q 1044 686 1050 713 q 1028 631 1038 660 q 980 476 1008 572 q 911 260 951 381 q 892 197 903 233 q 863 129 881 161 q 818 74 844 97 q 753 51 792 51 l 163 51 q 133 60 144 51 q 117 83 122 69 q 109 112 111 97 q 107 139 107 126 m 728 635 l 725 635 l 739 681 l 563 681 l 426 225 l 604 225 l 728 635 m 604 628 l 672 628 l 563 278 l 494 278 l 604 628 z "},"p":{"ha":989,"x_min":36,"x_max":1079,"o":"m 36 69 l 267 903 l 974 903 q 1029 891 1008 903 q 1061 859 1050 879 q 1076 813 1072 839 q 1079 760 1079 788 q 1067 622 1079 700 q 1027 471 1056 544 q 951 339 999 397 q 835 260 904 281 q 752 232 800 244 q 653 211 704 219 q 555 198 603 203 q 472 193 507 193 q 463 152 469 183 q 446 87 456 121 q 424 26 436 53 q 401 0 413 0 l 36 0 l 36 69 m 83 58 l 375 58 q 383 93 376 68 q 399 145 390 118 q 415 196 407 172 q 425 228 422 219 q 434 249 431 242 q 443 260 438 257 q 456 264 449 264 q 478 263 464 264 q 585 263 533 261 q 685 274 636 264 q 783 302 735 283 q 885 354 832 321 q 910 383 894 361 q 942 428 926 404 q 969 473 957 451 q 982 501 981 494 q 1003 576 994 543 q 1017 638 1013 608 q 1025 695 1022 667 q 1028 757 1028 724 q 1024 787 1028 771 q 1010 817 1019 803 q 988 840 1001 831 q 957 850 975 850 l 307 850 l 83 58 m 488 468 l 522 607 q 532 636 526 617 q 540 660 538 656 q 549 670 542 664 q 557 676 556 676 l 732 676 q 717 571 732 628 q 679 468 701 514 q 670 458 675 465 q 661 451 665 451 l 506 451 l 488 468 m 663 614 q 613 611 632 614 q 581 599 593 608 q 565 570 569 589 q 557 521 560 551 q 574 520 561 521 q 592 519 588 519 q 648 546 633 519 q 663 614 663 572 z "},"q":{"ha":1154,"x_min":57,"x_max":1172,"o":"m 1097 0 q 1108 28 1099 0 q 1127 97 1117 57 q 1149 180 1138 138 q 1167 251 1160 222 q 1170 273 1168 257 q 1172 294 1172 289 l 978 294 l 1107 732 l 1110 776 q 1077 866 1110 826 q 986 906 1044 906 l 413 906 q 332 881 367 906 q 272 819 297 856 q 231 740 247 782 q 204 663 214 697 q 163 529 183 597 q 124 397 143 461 q 89 276 106 333 q 58 174 72 218 l 57 131 q 90 40 57 79 q 181 0 122 0 l 1097 0 m 107 139 q 108 156 107 143 q 111 174 110 169 q 122 218 115 193 q 139 274 129 243 l 149 276 q 188 426 156 332 q 256 646 219 519 q 274 708 263 672 q 303 776 285 744 q 349 831 322 808 q 413 854 375 854 l 1003 854 q 1032 845 1021 854 q 1049 822 1043 836 q 1056 794 1054 808 q 1058 767 1058 779 q 1058 750 1058 764 q 1056 732 1057 736 q 1044 686 1050 713 q 1028 631 1038 660 q 985 496 1013 585 q 922 294 957 407 l 918 286 l 911 243 l 1117 242 q 1107 195 1114 226 q 1091 133 1100 164 q 1072 78 1082 101 q 1054 54 1063 54 l 163 54 q 133 62 144 53 q 117 84 122 71 q 109 112 111 97 q 107 139 107 126 m 728 635 l 725 635 l 739 681 l 563 681 l 426 225 l 604 225 l 728 635 m 604 628 l 672 628 l 563 278 l 494 278 l 604 628 z "},"r":{"ha":1028,"x_min":21,"x_max":1079,"o":"m 36 69 l 21 0 l 401 0 q 421 18 413 0 q 435 60 429 36 q 444 106 440 83 q 453 139 449 129 q 478 105 469 128 q 496 58 488 82 q 514 17 504 35 q 540 0 524 0 l 924 0 q 923 10 924 4 q 922 17 922 15 l 904 69 l 835 243 l 835 251 l 835 260 q 951 339 904 281 q 1027 471 999 397 q 1067 622 1056 544 q 1079 760 1079 700 q 1076 813 1079 788 q 1061 859 1072 839 q 1029 891 1050 879 q 974 903 1008 903 l 267 903 l 36 69 m 96 47 l 307 850 l 957 850 q 988 840 975 850 q 1010 817 1001 831 q 1024 787 1019 803 q 1028 757 1028 771 q 1024 695 1028 724 q 1015 637 1021 667 q 999 574 1008 607 q 978 500 990 542 q 969 474 975 493 q 954 434 964 456 q 932 392 944 413 q 904 364 919 372 q 879 348 896 358 q 843 326 863 338 q 803 305 824 314 q 765 294 782 296 q 765 288 765 293 q 764 278 764 282 q 765 268 764 274 q 765 260 765 263 q 778 224 767 253 q 804 161 790 194 q 830 98 818 128 q 846 63 842 68 q 848 53 847 57 q 849 44 849 49 l 585 44 q 577 51 583 44 q 568 63 571 58 l 471 260 q 463 261 468 260 q 453 263 457 263 q 431 255 433 263 q 418 225 428 247 q 408 191 415 217 q 392 136 400 165 q 378 81 385 107 q 369 47 371 56 l 96 47 m 496 506 l 514 489 l 669 489 q 678 496 674 489 q 688 506 683 503 q 721 590 710 551 q 732 676 732 628 l 557 676 q 549 670 556 676 q 540 660 542 664 q 532 636 538 656 q 522 607 526 617 l 496 506 m 676 622 l 647 543 l 557 543 l 578 622 l 676 622 z "},"s":{"ha":1018,"x_min":71,"x_max":1118,"o":"m 71 167 q 85 261 71 214 q 124 349 99 308 q 131 356 125 351 q 143 365 138 361 q 149 372 149 369 q 140 375 150 375 l 314 375 q 265 400 290 385 q 220 435 240 415 q 187 479 200 456 q 174 531 174 503 q 174 544 174 535 q 175 557 175 553 q 190 614 181 575 q 210 696 199 653 q 231 778 221 739 q 249 833 242 817 q 263 861 254 846 q 284 890 272 876 q 309 911 296 903 q 335 919 322 919 l 1047 919 q 1081 910 1067 919 q 1103 885 1094 900 q 1115 853 1111 871 q 1118 821 1118 836 q 1116 785 1118 814 q 1110 726 1114 757 q 1099 669 1106 694 q 1082 642 1092 643 l 744 568 q 828 550 782 557 q 917 529 875 543 q 986 490 958 515 q 1014 417 1014 464 q 1002 295 1014 367 q 963 158 990 224 q 888 47 935 93 q 769 0 840 0 l 214 0 q 163 15 189 0 q 117 54 138 31 q 83 108 96 78 q 71 167 71 138 m 121 190 q 131 138 122 163 q 149 96 139 114 q 169 67 160 78 q 186 57 179 57 l 797 57 q 848 79 825 57 q 890 136 871 101 q 922 213 908 171 q 944 294 935 256 q 957 365 953 333 q 961 408 961 396 q 908 468 961 456 l 526 556 q 525 566 526 556 q 524 583 524 576 q 524 602 524 588 q 527 633 525 617 q 533 663 529 650 q 543 676 536 676 l 735 676 q 735 643 735 653 q 740 631 736 633 q 750 631 743 629 q 771 633 757 633 q 926 664 871 653 q 1009 684 982 675 q 1045 703 1036 693 q 1061 729 1054 713 l 1065 821 l 1067 831 q 1058 856 1067 844 q 1029 868 1049 868 l 357 868 q 326 848 340 868 q 298 796 311 828 q 275 726 285 764 q 258 652 265 688 q 247 588 250 617 q 243 549 243 560 q 273 473 243 500 q 347 431 303 446 q 444 410 392 417 q 542 397 497 404 q 616 379 586 390 q 646 343 646 368 q 644 318 646 335 q 639 285 643 301 q 628 257 635 269 q 610 244 621 244 l 453 244 q 443 251 449 244 q 436 263 438 258 q 433 274 436 264 q 426 297 429 285 q 419 319 422 308 q 415 333 415 331 q 343 334 375 333 q 283 335 311 335 q 206 331 236 335 q 158 312 176 326 q 132 268 140 297 q 121 190 124 239 m 465 340 q 480 308 471 325 q 500 292 489 292 q 519 290 506 292 q 546 290 532 289 q 569 297 560 292 q 575 314 578 301 q 569 322 574 315 q 559 335 565 328 q 543 347 553 342 q 519 353 533 353 l 492 357 l 482 357 q 473 350 479 356 q 465 340 467 344 m 589 625 q 598 599 586 608 q 626 585 610 589 q 658 580 642 581 q 683 579 675 579 l 688 626 l 589 625 z "},"t":{"ha":1001,"x_min":193,"x_max":1151,"o":"m 260 0 l 429 617 l 193 617 q 194 629 193 619 q 196 642 194 639 q 208 690 199 656 q 228 764 217 725 q 249 837 239 803 q 265 885 260 871 q 275 907 269 894 q 283 919 281 919 l 1117 919 l 1151 903 l 1075 617 l 846 617 l 672 0 l 260 0 m 339 51 l 625 51 l 804 668 l 1029 668 q 1034 686 1029 668 q 1045 733 1039 704 q 1058 797 1051 761 q 1071 867 1065 832 l 325 867 q 307 826 317 856 q 289 763 297 796 q 276 701 281 729 q 274 668 271 674 l 503 668 l 339 51 z "},"u":{"ha":1007,"x_min":68,"x_max":1146,"o":"m 68 131 q 100 40 68 79 q 190 0 132 0 l 764 0 q 845 25 811 0 q 904 87 879 50 q 945 166 929 124 q 972 243 961 208 q 1002 355 985 289 q 1039 492 1019 421 q 1077 633 1058 563 q 1111 758 1096 703 q 1136 849 1126 814 q 1146 885 1146 883 l 1146 903 l 746 903 l 572 278 l 503 278 l 660 850 l 678 903 l 286 903 l 260 868 q 256 858 258 865 q 250 843 253 851 q 245 827 247 835 q 243 815 243 819 q 222 742 236 792 q 192 630 208 693 q 156 497 175 567 q 121 363 138 426 q 90 248 104 299 q 69 174 76 197 q 69 152 69 168 q 68 131 68 136 m 118 139 q 119 156 118 143 q 121 174 119 169 q 138 239 126 194 q 165 340 150 283 q 197 460 179 397 q 229 579 214 522 q 258 681 244 636 q 278 746 271 725 q 285 776 279 758 q 298 810 292 793 q 308 838 304 826 q 313 850 313 850 l 604 850 l 438 225 l 614 225 l 792 850 l 1076 850 l 1076 833 q 1068 801 1076 832 q 1047 719 1060 769 q 1016 607 1033 669 q 981 481 999 544 q 948 360 964 418 q 919 260 932 301 q 901 197 913 233 q 872 129 890 161 q 828 74 854 97 q 764 51 801 51 l 174 51 q 144 60 156 51 q 128 83 133 69 q 120 112 122 97 q 118 139 118 126 z "},"v":{"ha":1114,"x_min":169,"x_max":1269,"o":"m 592 468 q 608 488 597 472 q 630 525 618 503 q 655 574 642 547 q 681 625 668 600 l 800 833 l 832 904 l 1269 904 l 731 0 l 263 0 l 169 903 l 565 903 l 563 811 l 592 468 m 679 51 l 714 86 q 736 124 714 88 q 794 217 758 160 q 873 346 829 274 q 961 491 917 418 q 1045 631 1006 564 q 1113 746 1085 699 q 1115 751 1114 749 q 1118 756 1117 753 q 1142 800 1131 778 q 1153 850 1153 822 l 875 850 l 707 558 q 679 502 699 539 q 638 426 660 465 q 599 355 617 388 q 575 313 581 322 q 567 303 572 308 q 557 294 561 297 q 544 358 550 321 q 531 456 538 394 q 517 611 524 517 q 503 850 510 706 l 229 850 q 231 825 229 842 q 237 790 233 808 q 242 753 240 771 q 244 729 244 736 q 254 609 247 679 q 269 464 261 539 q 285 315 276 389 q 299 182 293 240 q 310 88 306 124 q 314 51 314 51 l 679 51 z "},"w":{"ha":1311,"x_min":14,"x_max":1465,"o":"m 993 696 l 876 950 l 621 694 l 621 703 l 621 711 l 656 868 q 659 885 658 872 q 660 903 660 899 l 267 903 l 14 17 l 65 0 l 376 0 l 743 347 q 780 302 764 333 q 809 233 796 271 q 835 153 822 194 q 862 77 847 111 q 893 22 876 43 q 933 0 910 0 l 1207 0 l 1465 903 l 1056 903 l 993 696 m 1176 69 l 1160 51 l 943 51 l 767 440 l 378 69 q 367 64 376 67 q 347 58 358 61 q 325 53 336 56 q 308 51 314 51 q 265 51 297 51 q 197 50 233 50 l 131 50 q 104 50 115 50 q 86 51 93 50 l 100 121 l 308 850 l 589 850 q 588 842 589 847 q 586 833 586 838 l 517 538 l 517 529 l 517 521 q 585 592 544 550 q 670 677 625 633 q 761 763 715 721 q 847 833 807 804 q 851 834 849 833 q 856 835 854 835 q 860 834 857 835 q 864 833 864 833 q 874 826 868 832 q 882 815 881 819 l 986 572 l 1003 556 q 1013 573 1007 560 q 1021 590 1019 586 l 1090 815 q 1100 838 1094 825 q 1107 850 1106 850 l 1385 850 l 1385 815 q 1377 788 1385 815 q 1358 716 1369 760 q 1331 617 1346 672 q 1301 507 1317 563 q 1272 400 1286 451 q 1246 313 1257 349 l 1229 260 q 1219 222 1226 249 q 1204 165 1213 196 q 1188 108 1196 135 q 1176 69 1181 81 z "},"x":{"ha":1260,"x_min":8,"x_max":1415,"o":"m 696 0 l 642 168 l 460 0 l 8 0 l 467 451 l 300 899 l 728 899 l 785 696 l 964 899 l 1415 899 l 957 447 l 1124 0 l 696 0 m 769 600 l 751 606 l 669 847 l 389 847 q 533 443 386 847 l 140 51 l 431 51 l 658 257 l 674 258 l 753 51 l 1035 51 q 890 457 1036 51 l 1283 847 l 993 847 l 769 600 z "},"y":{"ha":1228,"x_min":267,"x_max":1382,"o":"m 924 447 l 776 0 l 325 0 l 433 451 l 267 899 l 694 899 l 751 696 l 931 899 l 1382 899 l 924 447 m 736 600 l 718 606 l 638 847 l 356 847 q 500 443 353 847 l 388 50 l 728 50 l 857 457 l 1250 847 l 960 847 l 736 600 z "},"z":{"ha":1054,"x_min":54,"x_max":1150,"o":"m 1075 617 l 1150 881 l 1115 897 l 282 897 q 274 885 279 897 q 264 863 268 872 q 248 818 258 849 q 227 753 238 788 q 208 687 217 718 q 196 642 199 656 q 194 629 194 639 q 193 617 193 619 l 599 617 l 124 288 q 113 258 121 286 q 94 189 104 229 q 72 106 83 149 q 54 36 61 64 l 54 0 l 947 0 q 957 31 949 1 q 975 99 965 60 q 995 181 985 139 q 1013 251 1006 222 q 1015 273 1014 257 q 1017 294 1017 289 l 665 294 l 1075 617 m 743 668 l 269 668 q 274 708 269 685 q 288 757 279 732 q 308 805 296 782 q 333 844 319 828 l 1069 844 q 1058 778 1064 810 q 1045 722 1051 746 q 1034 683 1039 697 q 1029 668 1029 668 l 517 244 l 946 244 q 943 194 946 226 q 933 130 940 161 q 916 75 926 99 q 890 51 906 51 l 119 51 q 123 101 119 67 q 134 169 126 135 q 153 229 142 203 q 179 256 164 256 l 743 668 z "},"{":{"ha":1043,"x_min":136,"x_max":1228,"o":"m 1228 1078 l 686 1078 l 136 550 l 367 0 l 878 0 l 678 536 l 1228 1078 m 244 536 l 724 1017 l 1069 1017 l 600 549 q 774 61 775 61 l 435 61 l 244 536 z "},"|":{"ha":642,"x_min":-18,"x_max":819,"o":"m 319 1083 l 819 1083 l 465 -118 l -18 -118 l 319 1083 m 67 -57 l 401 -57 q 412 -41 406 -57 q 424 -15 418 -25 q 429 -3 426 -12 q 435 16 432 6 q 441 35 439 26 q 443 49 443 44 q 559 437 511 278 q 638 701 607 596 q 687 865 669 806 q 713 953 704 924 q 723 990 721 982 q 725 1000 725 997 l 725 1019 l 376 1019 l 67 -57 z "},"}":{"ha":1192,"x_min":126,"x_max":1218,"o":"m 126 0 l 668 0 l 1218 528 l 990 1078 l 476 1078 l 676 542 l 126 0 m 1110 542 l 633 61 l 285 61 l 757 532 q 583 1017 581 1017 l 922 1017 l 1110 542 z "},"~":{"ha":775,"x_min":88,"x_max":861,"o":"m 736 289 q 794 378 767 333 q 846 472 821 424 q 853 490 850 481 q 861 510 856 499 q 803 566 836 542 q 732 605 769 590 q 653 622 694 619 q 574 615 613 625 q 472 579 524 593 q 369 564 419 565 q 274 576 319 563 q 189 621 228 589 q 133 526 158 571 q 97 429 107 482 q 92 410 94 418 q 88 392 89 403 q 133 323 101 349 q 204 285 164 297 q 288 274 244 274 q 371 282 332 274 q 468 321 418 304 q 565 341 518 338 q 656 333 613 344 q 736 289 700 322 m 132 383 q 133 390 132 386 q 132 397 133 394 q 149 440 140 415 q 166 487 157 464 q 187 529 175 510 q 213 557 199 549 q 363 520 283 525 q 510 549 442 515 q 663 570 589 578 q 792 518 738 563 q 790 492 794 503 q 776 454 783 475 q 760 415 769 433 q 735 384 750 397 q 700 368 721 371 q 568 391 638 400 q 439 351 499 382 q 271 326 351 321 q 132 383 190 331 z "},"":{"ha":204,"x_min":0,"x_max":0,"o":""},"":{"ha":1299,"x_min":-36,"x_max":1417,"o":"m 142 174 q 147 115 142 146 q 167 59 153 85 q 206 17 182 33 q 268 0 231 0 l 1143 0 q 1174 41 1156 0 q 1209 137 1192 82 q 1238 245 1226 192 q 1250 324 1250 299 l 667 324 q 683 386 675 349 q 701 467 692 424 q 722 553 711 510 q 743 633 732 596 q 766 695 754 669 q 790 728 778 721 q 802 729 794 731 q 818 724 810 728 q 834 718 826 721 q 844 715 842 715 q 836 636 844 671 q 828 561 828 601 l 893 561 l 1351 686 q 1363 706 1356 688 q 1376 751 1369 724 q 1391 810 1383 778 q 1404 870 1399 842 q 1413 920 1410 899 q 1417 949 1417 942 q 1406 994 1417 971 q 1378 1038 1396 1018 q 1338 1071 1361 1058 q 1290 1083 1315 1083 l 499 1083 q 444 1066 471 1083 q 394 1023 417 1049 q 355 968 371 997 q 332 917 339 939 l 319 871 l 124 871 q 113 842 121 871 q 94 774 104 814 q 72 691 83 733 q 54 619 61 649 q 51 598 53 614 q 50 576 50 582 l 238 576 l 215 494 l 38 494 q 26 466 35 494 q 8 397 18 438 q -14 315 -3 357 q -32 243 -25 272 q -35 222 -33 238 q -36 200 -36 206 l 142 200 l 142 174 m 176 819 l 371 819 l 386 871 q 409 924 396 897 q 438 972 422 951 q 474 1006 454 993 q 518 1019 494 1019 l 1268 1019 q 1295 1013 1281 1019 q 1322 994 1310 1006 q 1341 970 1333 983 q 1349 944 1349 957 q 1344 847 1347 885 q 1327 783 1340 808 q 1289 741 1314 757 q 1219 710 1264 725 q 1107 679 1175 696 q 942 636 1039 663 q 918 633 936 635 q 894 632 900 632 q 907 712 894 672 q 933 790 919 751 l 726 792 l 586 260 l 1168 260 q 1167 244 1168 254 q 1165 228 1165 233 q 1156 181 1163 208 q 1142 126 1149 153 q 1129 81 1135 100 q 1124 61 1124 63 l 310 61 q 231 92 261 61 q 201 167 201 122 q 203 181 201 169 q 206 200 204 192 l 215 251 l 35 251 q 38 301 35 269 q 47 365 40 333 q 65 419 54 396 q 90 443 75 443 l 264 440 q 264 442 264 442 q 265 443 265 442 l 281 494 q 292 536 286 515 q 303 576 297 557 l 318 628 l 121 628 q 124 678 121 646 q 133 741 126 710 q 151 796 140 772 q 176 819 161 819 z "},"":{"ha":415,"x_min":-54,"x_max":342,"o":"m 186 -175 q 198 -151 188 -175 q 224 -89 208 -126 q 256 -5 239 -51 q 290 86 274 42 q 318 167 306 131 q 336 224 331 204 q 340 245 339 229 q 342 267 342 261 l 93 267 q 82 239 93 267 q 54 169 71 211 q 19 78 38 128 q -17 -17 0 28 q -44 -94 -33 -61 q -54 -133 -54 -126 l -53 -176 l 186 -175 m 13 -125 q 19 -83 13 -114 q 38 -15 26 -53 q 65 63 50 22 q 94 138 79 104 q 122 194 108 172 q 146 217 136 217 l 271 217 q 264 174 271 204 q 246 106 257 144 q 220 27 235 68 q 191 -48 206 -14 q 163 -104 176 -82 q 138 -126 149 -126 l 13 -125 z "},"":{"ha":1208,"x_min":8,"x_max":1068,"o":"m 971 -6 q 985 19 972 -6 q 1012 81 997 44 q 1041 156 1026 117 q 1063 224 1056 194 q 1067 245 1065 229 q 1068 267 1068 261 l 819 267 q 806 242 817 267 q 780 181 794 217 q 752 105 765 144 q 732 36 739 65 q 728 15 729 31 q 726 -7 726 -1 l 971 -6 m 797 44 q 803 92 797 63 q 820 149 810 121 q 844 197 831 176 q 872 217 857 217 l 997 217 q 991 169 997 199 q 974 112 985 140 q 950 63 964 83 q 922 43 936 43 l 797 44 m 610 -6 q 624 19 611 -6 q 651 81 636 44 q 680 156 665 117 q 701 224 694 194 q 706 245 704 229 q 707 267 707 261 l 458 267 q 444 242 456 267 q 419 181 433 217 q 391 105 404 144 q 371 36 378 65 q 367 15 368 31 q 365 -7 365 -1 l 610 -6 m 436 44 q 442 92 436 63 q 459 149 449 121 q 483 197 469 176 q 511 217 496 217 l 636 217 q 630 169 636 199 q 613 112 624 140 q 589 63 603 83 q 561 43 575 43 l 436 44 m 253 -8 q 267 17 254 -8 q 294 78 279 42 q 323 153 308 114 q 344 221 338 192 q 349 242 347 226 q 350 264 350 258 l 101 264 q 88 239 99 264 q 62 178 76 214 q 34 102 47 142 q 14 33 21 63 q 10 12 11 28 q 8 -10 8 -4 l 253 -8 m 79 42 q 85 89 79 60 q 102 146 92 118 q 126 194 113 174 q 154 214 139 214 l 279 214 q 273 167 279 196 q 256 109 267 138 q 232 60 246 81 q 204 40 218 40 l 79 42 z "},"":{"ha":983,"x_min":125,"x_max":1082,"o":"m 500 769 l 218 769 q 204 740 215 769 q 178 668 193 710 q 150 583 164 626 q 129 510 136 539 q 126 488 128 504 q 125 467 125 472 l 350 467 q 376 463 365 464 q 396 464 388 463 l 304 51 l 310 -3 l 614 0 l 738 475 l 758 476 l 1008 476 q 1010 479 1010 476 q 1011 481 1011 481 q 1013 483 1011 482 q 1018 500 1015 490 q 1024 522 1021 510 q 1025 525 1025 524 q 1026 529 1025 526 q 1032 550 1028 539 q 1056 644 1043 593 q 1078 728 1069 694 l 1078 729 q 1079 738 1079 732 q 1081 749 1079 743 q 1081 757 1081 753 q 1082 764 1082 761 l 1082 771 l 833 771 l 890 976 l 590 976 l 500 769 m 408 518 l 196 518 q 194 529 193 515 q 201 565 196 543 q 215 615 207 588 q 231 665 222 642 q 251 703 240 688 q 271 718 261 718 l 524 717 q 529 715 526 717 q 535 715 532 713 q 545 727 539 717 q 562 763 551 738 q 588 831 572 788 q 628 942 604 874 l 821 944 l 821 928 l 768 747 q 772 744 768 744 q 779 738 778 744 l 779 719 l 1011 719 l 1011 707 q 1010 702 1011 704 q 1010 697 1010 700 q 1006 650 1010 675 q 1003 631 1006 644 q 990 575 999 599 q 983 556 989 565 q 980 549 981 551 q 976 543 979 546 q 969 533 975 539 q 958 528 961 528 l 707 528 q 703 526 704 528 q 697 524 700 526 q 693 520 694 521 q 689 517 692 519 q 686 513 686 514 q 681 506 683 511 q 679 503 679 504 q 678 501 679 503 q 677 499 678 500 q 676 497 676 499 q 674 482 672 488 q 674 480 674 481 q 675 479 675 479 q 678 476 675 479 q 664 422 674 460 q 641 338 654 385 q 614 240 628 290 q 589 147 600 189 q 569 78 578 106 q 561 51 561 51 l 350 56 l 453 508 l 408 518 z "},"":{"ha":535,"x_min":158,"x_max":807,"o":"m 531 1060 l 563 1019 l 571 974 l 807 974 l 663 1256 l 422 1256 l 158 972 l 417 972 l 510 1068 l 528 1058 l 531 1060 m 454 1229 l 632 1229 q 641 1209 632 1226 q 663 1168 650 1192 q 692 1117 676 1144 q 721 1065 707 1089 q 745 1022 735 1040 q 757 1000 756 1004 l 608 1000 q 576 1050 589 1031 q 553 1081 563 1069 q 535 1098 543 1093 q 518 1103 526 1103 l 497 1096 q 491 1094 492 1093 q 482 1091 490 1096 q 453 1067 474 1086 q 390 1003 433 1047 l 229 1003 q 241 1012 236 1006 q 253 1029 246 1018 q 257 1033 253 1029 q 311 1090 281 1058 q 369 1147 342 1121 q 414 1192 396 1174 q 432 1211 432 1211 l 454 1229 z "},"":{"ha":1931,"x_min":140,"x_max":2101,"o":"m 1206 165 l 1243 165 l 1303 358 l 1265 358 l 1206 165 m 381 560 l 418 560 l 478 753 l 440 753 l 381 560 m 440 531 l 343 531 l 418 781 l 515 781 l 507 756 l 508 756 l 440 531 m 1265 136 l 1168 136 l 1243 386 l 1340 386 l 1332 361 l 1333 361 l 1265 136 m 992 89 q 997 58 992 75 q 1022 40 1003 40 l 1347 40 q 1381 51 1367 40 q 1404 77 1394 61 q 1421 111 1414 93 q 1432 144 1428 129 q 1433 150 1433 147 q 1435 156 1433 153 q 1472 275 1457 222 q 1499 360 1488 328 q 1508 390 1504 375 q 1514 415 1511 404 q 1515 425 1515 418 q 1515 435 1515 432 q 1510 465 1515 447 q 1485 482 1504 482 l 1160 482 q 1124 470 1139 482 q 1099 440 1110 458 q 1080 403 1088 422 q 1068 369 1072 383 q 1042 285 1053 321 q 1024 219 1032 250 q 1008 158 1015 188 q 992 89 1000 128 m 167 483 q 172 452 167 469 q 197 435 178 435 l 522 435 q 556 445 542 435 q 579 472 569 456 q 596 506 589 488 q 607 539 603 524 q 608 544 608 542 q 610 550 608 547 q 647 669 632 617 q 674 754 663 722 q 683 784 679 769 q 689 810 686 799 q 690 819 690 813 q 690 829 690 826 q 685 859 690 842 q 660 876 679 876 l 335 876 q 299 865 314 876 q 274 835 285 853 q 255 797 263 817 q 243 764 247 778 q 217 680 228 715 q 199 613 207 644 q 183 552 190 582 q 167 483 175 522 m 1463 146 q 1447 103 1456 126 q 1424 60 1438 81 q 1392 26 1411 40 q 1347 13 1374 13 l 1032 13 q 983 35 1000 13 q 965 85 965 57 l 965 108 q 983 165 974 133 q 1002 231 992 196 q 1023 303 1013 267 q 1044 376 1033 340 q 1059 419 1050 396 q 1082 463 1068 443 q 1115 497 1096 483 q 1160 511 1135 511 l 1476 511 q 1526 489 1508 511 q 1543 439 1543 467 l 1542 415 l 1463 146 m 638 540 q 622 498 631 521 q 599 455 613 475 q 567 421 586 435 q 522 407 549 407 l 207 407 q 158 429 175 407 q 140 479 140 451 l 140 503 q 158 559 149 528 q 177 626 167 590 q 198 698 188 661 q 219 771 208 735 q 234 814 225 790 q 257 858 243 838 q 290 892 271 878 q 335 906 310 906 l 651 906 q 701 883 683 906 q 718 833 718 861 l 717 810 l 638 540 m 711 43 q 821 201 763 115 q 938 375 879 288 q 1049 546 996 463 q 1144 694 1103 629 q 1209 801 1185 760 q 1233 847 1233 843 l 1233 864 l 903 864 l 410 46 l 711 43 m 900 903 l 1317 903 l 753 7 l 336 7 l 900 903 m 1764 174 l 1801 174 l 1861 367 l 1824 367 l 1764 174 m 1824 144 l 1726 144 l 1801 394 l 1899 394 l 1890 369 l 1892 369 l 1824 144 m 1550 97 q 1556 66 1550 83 q 1581 49 1561 49 l 1906 49 q 1939 59 1925 49 q 1963 85 1953 69 q 1979 119 1972 101 q 1990 153 1986 138 q 1992 158 1992 156 q 1993 164 1992 161 q 2031 283 2015 231 q 2057 368 2046 336 q 2066 398 2063 383 q 2072 424 2069 413 q 2074 433 2074 426 q 2074 443 2074 440 q 2068 473 2074 456 q 2043 490 2063 490 l 1718 490 q 1683 478 1697 490 q 1657 449 1668 467 q 1638 411 1646 431 q 1626 378 1631 392 q 1601 294 1611 329 q 1582 227 1590 258 q 1566 166 1574 196 q 1550 97 1558 136 m 2021 154 q 2005 112 2014 135 q 1983 69 1996 89 q 1951 35 1969 49 q 1906 21 1932 21 l 1590 21 q 1541 43 1558 21 q 1524 93 1524 65 l 1524 117 q 1541 173 1532 142 q 1560 240 1550 204 q 1581 312 1571 275 q 1603 385 1592 349 q 1617 428 1608 404 q 1640 472 1626 451 q 1674 506 1654 492 q 1718 519 1693 519 l 2035 519 q 2084 497 2067 519 q 2101 447 2101 475 l 2100 424 l 2021 154 z "},"":{"ha":1001,"x_min":57,"x_max":1153,"o":"m 575 279 l 597 343 l 113 343 l 131 396 l 133 396 l 204 663 q 230 740 214 697 q 271 821 246 783 q 331 883 296 858 q 413 908 365 908 l 1153 908 l 1072 631 l 593 631 l 572 564 l 1057 564 q 1032 484 1043 521 q 1010 410 1021 447 q 988 332 1000 372 q 961 243 976 292 q 934 166 950 208 q 893 87 918 124 q 834 25 868 50 q 753 0 800 0 l 181 0 q 90 36 122 0 q 57 124 57 72 l 57 131 l 58 174 l 93 279 l 575 279 m 1036 676 l 1096 854 l 413 854 q 351 834 376 854 q 308 785 326 814 q 277 722 289 756 q 257 660 265 688 q 256 653 256 658 q 253 646 256 649 q 235 590 244 621 q 216 525 225 558 q 198 458 207 492 q 182 396 189 425 l 667 396 l 617 228 l 125 228 l 107 139 q 109 112 107 126 q 117 83 111 97 q 133 60 122 69 q 163 51 144 51 l 753 51 q 827 78 796 51 q 881 149 858 106 q 917 244 903 192 q 943 349 932 297 q 965 444 954 400 q 988 513 975 488 l 508 513 l 556 676 l 1036 676 z "},"":{"ha":503,"x_min":126,"x_max":478,"o":"m 339 563 l 385 585 l 432 585 l 478 815 l 174 731 l 126 494 l 351 179 l 403 433 l 326 543 l 340 558 l 339 563 m 158 521 l 193 694 q 215 700 196 694 q 260 714 233 706 q 316 731 286 722 q 373 749 346 740 q 419 765 400 758 q 443 772 439 771 l 413 626 q 357 603 379 613 q 322 588 335 594 q 302 574 308 581 q 294 558 296 567 l 297 536 q 297 530 299 531 q 299 520 294 529 q 317 488 303 511 q 367 413 331 464 l 335 256 q 328 268 333 263 q 314 283 324 274 q 313 285 313 283 q 311 289 313 288 q 266 353 290 318 q 221 420 242 389 q 185 474 200 451 q 171 496 171 496 l 158 521 z "},"":{"ha":1901,"x_min":28,"x_max":2039,"o":"m 1764 0 q 1777 19 1768 0 q 1796 67 1786 38 q 1815 134 1806 97 q 1833 206 1825 171 q 1847 273 1842 242 q 1851 324 1851 304 l 1294 324 l 1307 365 l 1681 365 q 1692 399 1682 365 q 1715 481 1701 433 q 1742 581 1728 529 q 1764 667 1756 632 q 1767 692 1765 674 q 1768 718 1768 711 l 1410 718 l 1419 760 l 1950 760 l 1972 792 q 1978 824 1972 793 q 1994 901 1985 856 q 2015 997 2003 947 q 2039 1086 2026 1047 l 385 1086 q 330 1068 357 1086 q 280 1024 303 1050 q 241 968 257 997 q 218 917 225 939 l 31 228 q 29 205 31 226 q 28 174 28 183 q 34 115 28 146 q 55 59 40 85 q 94 17 69 33 q 156 0 118 0 l 1764 0 m 89 167 l 93 208 q 106 272 96 229 q 131 369 117 315 q 162 481 144 422 q 194 592 179 539 q 222 687 210 644 q 239 750 233 729 q 254 809 243 765 q 285 900 265 853 q 334 983 304 947 q 406 1019 364 1019 l 1965 1019 q 1965 1015 1965 1019 q 1964 1007 1964 1010 q 1953 969 1958 994 q 1943 919 1947 944 q 1935 875 1939 894 q 1931 853 1932 856 q 1920 834 1926 844 q 1908 824 1914 824 l 1389 824 q 1381 804 1389 824 q 1367 769 1372 785 q 1350 725 1353 735 q 1347 710 1347 715 q 1349 697 1347 704 q 1350 657 1350 690 l 1706 657 l 1647 426 l 1289 426 q 1258 403 1274 426 q 1242 349 1242 381 q 1244 292 1242 318 q 1247 260 1247 267 l 1781 260 q 1778 244 1781 254 q 1775 228 1776 233 l 1731 61 l 1697 60 l 197 60 q 119 91 149 60 q 89 167 89 122 m 886 719 l 899 807 l 897 825 l 640 825 l 474 260 l 719 260 q 742 261 732 261 q 761 264 753 261 l 772 326 l 886 719 m 692 768 q 701 767 693 769 q 710 765 708 765 l 831 765 l 714 322 l 553 322 q 571 388 561 347 q 592 476 581 429 q 615 573 603 524 q 640 663 628 622 q 666 733 653 704 q 692 768 679 761 z "},"":{"ha":367,"x_min":131,"x_max":531,"o":"m 375 460 l 131 458 q 132 480 131 464 q 135 501 133 496 q 150 558 138 521 q 178 639 163 594 q 213 731 194 683 q 246 816 231 778 q 272 878 261 854 q 283 903 282 903 l 531 903 q 529 881 531 897 q 526 860 528 865 q 508 803 521 840 q 480 722 496 767 q 446 631 464 678 q 413 547 428 585 q 388 484 399 508 q 375 460 378 460 m 201 510 l 326 508 q 351 531 336 508 q 380 587 365 553 q 409 663 394 621 q 435 742 424 704 q 453 810 446 781 q 460 853 460 840 l 335 853 q 311 831 325 853 q 283 774 297 808 q 253 699 268 740 q 227 620 239 658 q 208 551 215 582 q 201 510 201 521 z "},"":{"ha":367,"x_min":131,"x_max":531,"o":"m 375 460 l 131 458 q 132 480 131 464 q 135 501 133 496 q 150 558 138 521 q 178 639 163 594 q 213 731 194 683 q 246 816 231 778 q 272 878 261 854 q 283 903 282 903 l 531 903 q 529 881 531 897 q 526 860 528 865 q 508 803 521 840 q 480 722 496 767 q 446 631 464 678 q 413 547 428 585 q 388 484 399 508 q 375 460 378 460 m 201 510 l 326 508 q 351 531 336 508 q 380 587 365 553 q 409 663 394 621 q 435 742 424 704 q 453 810 446 781 q 460 853 460 840 l 335 853 q 311 831 325 853 q 283 774 297 808 q 253 699 268 740 q 227 620 239 658 q 208 551 215 582 q 201 510 201 521 z "},"":{"ha":739,"x_min":146,"x_max":904,"o":"m 575 510 l 700 508 q 724 531 710 508 q 753 587 739 553 q 783 663 768 621 q 808 742 797 704 q 826 810 819 781 q 833 853 833 840 l 708 853 q 685 831 699 853 q 656 774 671 808 q 627 699 642 740 q 601 620 613 658 q 582 551 589 582 q 575 510 575 521 m 390 472 l 146 471 q 147 492 146 476 q 151 514 149 508 q 167 570 154 533 q 195 651 179 607 q 228 743 211 696 q 261 828 246 790 q 287 891 276 867 q 299 915 297 915 l 547 915 q 545 893 547 910 q 542 871 543 876 q 526 815 538 851 q 497 733 514 778 q 461 642 479 689 q 427 558 443 596 q 401 497 411 521 q 390 472 390 472 m 217 522 l 342 521 q 366 543 351 521 q 395 599 381 565 q 424 674 410 633 q 450 753 439 715 q 468 822 461 792 q 475 864 475 851 l 350 864 q 326 842 340 864 q 298 785 313 819 q 269 710 283 751 q 242 632 254 669 q 224 564 231 594 q 217 522 217 533 m 749 460 l 503 458 q 505 480 503 464 q 508 501 507 496 q 524 558 511 521 q 552 639 536 594 q 586 731 568 683 q 619 816 604 778 q 644 878 635 854 q 656 903 654 903 l 904 903 q 903 881 904 897 q 899 860 901 865 q 883 803 894 840 q 854 722 871 767 q 819 631 838 678 q 785 547 800 585 q 759 484 769 508 q 749 460 749 460 z "},"":{"ha":739,"x_min":146,"x_max":904,"o":"m 575 510 l 700 508 q 724 531 710 508 q 753 587 739 553 q 783 663 768 621 q 808 742 797 704 q 826 810 819 781 q 833 853 833 840 l 708 853 q 685 831 699 853 q 656 774 671 808 q 627 699 642 740 q 601 620 613 658 q 582 551 589 582 q 575 510 575 521 m 390 472 l 146 471 q 147 492 146 476 q 151 514 149 508 q 167 570 154 533 q 195 651 179 607 q 228 743 211 696 q 261 828 246 790 q 287 891 276 867 q 299 915 297 915 l 547 915 q 545 893 547 910 q 542 871 543 876 q 526 815 538 851 q 497 733 514 778 q 461 642 479 689 q 427 558 443 596 q 401 497 411 521 q 390 472 390 472 m 217 522 l 342 521 q 366 543 351 521 q 395 599 381 565 q 424 674 410 633 q 450 753 439 715 q 468 822 461 792 q 475 864 475 851 l 350 864 q 326 842 340 864 q 298 785 313 819 q 269 710 283 751 q 242 632 254 669 q 224 564 231 594 q 217 522 217 533 m 749 460 l 503 458 q 505 480 503 464 q 508 501 507 496 q 524 558 511 521 q 552 639 536 594 q 586 731 568 683 q 619 816 604 778 q 644 878 635 854 q 656 903 654 903 l 904 903 q 903 881 904 897 q 899 860 901 865 q 883 803 894 840 q 854 722 871 767 q 819 631 838 678 q 785 547 800 585 q 759 484 769 508 q 749 460 749 460 z "},"":{"ha":568,"x_min":179,"x_max":492,"o":"m 481 635 l 478 635 l 492 681 l 315 681 l 179 225 l 357 225 l 481 635 m 357 628 l 425 628 l 315 278 l 247 278 l 357 628 z "},"":{"ha":503,"x_min":100,"x_max":556,"o":"m 186 304 l 114 301 q 100 311 100 301 q 112 339 100 322 q 133 356 124 356 l 429 356 q 469 359 453 356 q 492 361 485 363 q 497 347 499 360 q 481 304 494 335 l 186 304 m 550 556 q 528 547 550 547 l 485 547 l 207 547 q 205 581 207 575 q 203 592 203 588 q 216 600 203 596 q 272 599 229 604 l 556 599 q 553 577 556 593 q 550 556 551 561 z "},"":{"ha":501,"x_min":110,"x_max":564,"o":"m 479 599 l 550 600 q 563 592 563 600 q 559 574 564 583 q 545 556 554 564 q 531 547 536 547 l 236 547 q 210 524 221 547 q 193 469 200 500 q 183 406 186 438 q 181 356 181 374 l 458 356 q 460 321 458 328 q 461 311 461 314 q 449 303 461 307 q 392 304 436 299 l 110 304 q 111 326 110 310 q 114 347 113 342 q 132 419 121 376 q 153 501 143 461 q 172 570 164 542 q 183 599 181 599 l 479 599 z "},"":{"ha":925,"x_min":313,"x_max":1006,"o":"m 894 971 q 945 1038 922 1008 q 992 1110 968 1068 q 998 1124 996 1117 q 1006 1142 1000 1132 q 888 1224 960 1197 q 742 1232 815 1250 q 560 1192 647 1193 q 401 1247 472 1192 q 356 1166 374 1208 q 317 1082 338 1124 q 314 1075 314 1072 q 313 1069 314 1078 q 354 1010 325 1032 q 419 977 383 988 q 496 967 456 967 q 572 975 536 967 q 745 1020 661 1014 q 894 971 829 1026 m 353 1061 q 353 1067 353 1064 q 353 1074 354 1071 q 365 1107 360 1089 q 375 1142 369 1125 q 389 1173 381 1158 q 413 1197 397 1188 q 469 1176 433 1185 q 544 1164 504 1167 q 625 1165 585 1161 q 696 1185 665 1169 q 830 1199 768 1210 q 942 1149 892 1188 q 940 1126 944 1135 q 928 1097 935 1111 q 914 1069 922 1082 q 893 1049 906 1057 q 861 1039 881 1040 q 747 1064 803 1067 q 635 1035 690 1061 q 481 1013 556 1008 q 353 1061 406 1017 z "},"":{"ha":1026,"x_min":71,"x_max":1118,"o":"m 688 626 l 683 579 q 658 580 675 579 q 626 585 642 581 q 598 599 610 589 q 589 625 586 608 l 688 626 m 465 340 q 473 350 467 344 q 482 357 479 356 l 492 357 l 519 353 q 543 347 533 353 q 559 335 553 342 q 569 322 565 328 q 575 314 574 315 q 569 297 578 301 q 546 290 560 292 q 519 290 532 289 q 500 292 506 292 q 480 308 489 292 q 465 340 471 325 m 121 190 q 138 283 125 253 q 183 324 151 313 q 269 335 214 336 q 415 333 325 333 q 419 319 415 331 q 426 297 422 308 q 433 274 429 285 q 436 263 436 264 q 443 251 438 258 q 453 244 449 244 l 610 244 q 628 257 621 244 q 639 285 635 269 q 644 318 643 301 q 646 343 646 335 q 616 378 646 367 q 542 397 586 390 q 444 410 497 404 q 347 431 392 417 q 273 474 303 446 q 243 549 243 501 q 247 588 243 560 q 258 652 250 617 q 275 726 265 688 q 298 796 285 764 q 326 848 311 828 q 357 868 340 868 l 1029 868 q 1060 852 1053 868 q 1065 821 1068 836 l 1061 729 q 1045 703 1054 713 q 1009 684 1036 693 q 926 664 982 675 q 771 633 871 653 q 750 631 757 633 q 740 631 743 629 q 735 643 736 633 q 735 676 735 653 l 543 676 q 533 663 536 676 q 527 633 529 650 q 524 602 525 617 q 524 583 524 588 q 525 566 524 576 q 526 556 526 556 l 908 468 q 961 408 961 456 q 957 365 961 396 q 944 294 953 333 q 922 213 935 256 q 890 136 908 171 q 848 79 871 101 q 797 57 825 57 l 186 57 q 169 67 179 57 q 149 96 160 78 q 131 138 139 114 q 121 190 122 163 m 71 167 q 83 108 71 138 q 117 54 96 78 q 163 15 138 31 q 214 0 189 0 l 769 0 q 888 47 840 0 q 963 158 935 93 q 1002 295 990 224 q 1014 417 1014 367 q 986 490 1014 464 q 917 529 958 515 q 828 550 875 543 q 744 568 782 557 l 1082 642 q 1099 669 1092 643 q 1110 726 1106 694 q 1116 785 1114 757 q 1118 821 1118 814 q 1115 853 1118 836 q 1103 885 1111 871 q 1081 910 1094 900 q 1047 919 1067 919 l 335 919 q 309 911 322 919 q 284 890 296 903 q 263 861 272 876 q 249 833 254 846 q 231 778 242 817 q 210 696 221 739 q 190 614 199 653 q 175 557 181 575 q 174 544 175 553 q 174 531 174 535 q 187 479 174 503 q 220 435 200 456 q 265 400 240 415 q 314 375 290 385 l 140 375 q 149 372 150 375 q 143 365 149 369 q 131 356 138 361 q 124 349 125 351 q 85 261 99 308 q 71 167 71 214 m 721 1167 l 689 1207 l 681 1253 l 444 1251 l 589 969 l 829 971 l 1093 1256 l 835 1254 l 742 1158 l 724 1168 l 721 1167 m 797 997 l 619 997 q 610 1017 619 1000 q 588 1058 601 1035 q 560 1110 575 1082 q 531 1162 544 1138 q 506 1203 517 1186 q 494 1225 496 1221 l 643 1226 q 676 1176 663 1196 q 699 1145 689 1157 q 717 1128 708 1133 q 733 1124 725 1124 l 754 1131 q 760 1132 760 1133 q 769 1135 761 1131 q 798 1160 778 1140 q 861 1224 818 1179 l 1022 1225 q 1010 1216 1015 1222 q 999 1199 1006 1210 q 994 1194 999 1199 q 940 1138 971 1169 q 883 1080 910 1107 q 838 1034 856 1053 q 819 1015 819 1015 l 797 997 z "},"":{"ha":503,"x_min":128,"x_max":479,"o":"m 267 432 l 221 410 l 174 410 l 128 179 l 432 264 l 479 500 l 254 815 l 203 561 l 279 451 l 265 436 l 267 432 m 447 474 l 413 300 q 391 294 410 300 q 346 281 372 289 q 290 263 319 272 q 233 245 260 254 q 186 230 206 236 q 163 222 167 224 l 193 368 q 249 391 226 382 q 284 407 271 400 q 303 421 297 414 q 311 436 310 428 l 308 458 q 308 465 306 464 q 307 474 311 465 q 288 507 303 483 q 239 582 274 531 l 271 739 q 277 726 272 732 q 292 711 282 721 q 293 708 293 711 q 294 706 293 707 q 340 641 315 676 q 385 574 364 606 q 420 521 406 543 q 435 499 435 499 l 447 474 z "},"":{"ha":1585,"x_min":24,"x_max":1699,"o":"m 1469 0 q 1488 33 1475 0 q 1513 111 1500 67 q 1534 201 1525 156 q 1543 269 1543 246 l 1079 269 l 1089 304 l 1400 304 q 1410 333 1401 304 q 1429 401 1418 361 q 1451 484 1440 442 q 1469 556 1463 526 q 1472 577 1471 561 q 1474 599 1474 593 l 1175 599 l 1183 633 l 1625 633 l 1643 660 q 1648 688 1643 661 q 1661 751 1653 714 q 1679 831 1669 789 q 1699 906 1689 874 l 321 906 q 275 890 297 906 q 234 853 253 875 q 201 807 215 832 q 182 764 188 782 l 25 190 q 24 171 25 189 q 24 144 24 153 q 28 95 24 121 q 46 49 33 69 q 78 14 58 28 q 129 0 99 0 l 1469 0 m 74 139 l 78 174 q 88 227 79 192 q 109 307 97 263 q 135 400 121 351 q 162 493 149 449 q 185 573 175 538 q 199 625 194 608 q 212 674 203 638 q 238 750 221 711 q 278 819 254 789 q 338 850 303 850 l 1638 850 q 1637 846 1638 850 q 1636 839 1636 842 q 1628 808 1632 828 q 1619 767 1624 788 q 1613 730 1615 746 q 1608 711 1610 714 q 1600 695 1606 704 q 1590 686 1594 686 l 1157 686 q 1150 669 1157 686 q 1139 642 1143 653 q 1125 604 1128 613 q 1122 592 1122 596 q 1124 581 1122 588 q 1125 547 1125 575 l 1421 547 l 1372 356 l 1074 356 q 1049 336 1063 356 q 1035 290 1035 317 q 1037 244 1035 265 q 1039 217 1039 222 l 1483 217 q 1482 203 1483 213 q 1479 190 1481 194 l 1442 51 l 1414 50 l 164 50 q 99 76 124 50 q 74 139 74 103 m 739 600 l 749 672 l 747 688 l 533 688 l 394 217 l 600 217 q 619 218 611 218 q 635 219 628 218 l 643 272 l 739 600 m 576 640 q 584 640 578 642 q 592 638 590 638 l 692 638 l 594 268 l 461 268 q 476 323 468 289 q 494 397 485 357 q 513 477 503 436 q 534 553 524 518 q 555 611 544 588 q 576 640 565 635 z "},"":{"ha":1054,"x_min":54,"x_max":1150,"o":"m 1075 617 l 1150 881 l 1115 897 l 282 897 q 274 885 279 897 q 264 863 268 872 q 248 818 258 849 q 227 753 238 788 q 208 687 217 718 q 196 642 199 656 q 194 629 194 639 q 193 617 193 619 l 599 617 l 124 288 q 113 258 121 286 q 94 189 104 229 q 72 106 83 149 q 54 36 61 64 l 54 0 l 947 0 q 957 31 949 1 q 975 99 965 60 q 995 181 985 139 q 1013 251 1006 222 q 1015 273 1014 257 q 1017 294 1017 289 l 665 294 l 1075 617 m 743 668 l 269 668 q 274 708 269 685 q 288 757 279 732 q 308 805 296 782 q 333 844 319 828 l 1069 844 q 1058 778 1064 810 q 1045 722 1051 746 q 1034 683 1039 697 q 1029 668 1029 668 l 517 244 l 946 244 q 943 194 946 226 q 933 130 940 161 q 916 75 926 99 q 890 51 906 51 l 119 51 q 123 101 119 67 q 134 169 126 135 q 153 229 142 203 q 179 256 164 256 l 743 668 m 721 1167 l 689 1207 l 681 1253 l 444 1251 l 589 969 l 829 971 l 1093 1256 l 835 1254 l 742 1158 l 724 1168 l 721 1167 m 797 997 l 619 997 q 610 1017 619 1000 q 588 1058 601 1035 q 560 1110 575 1082 q 531 1162 544 1138 q 506 1203 517 1186 q 494 1225 496 1221 l 643 1226 q 676 1176 663 1196 q 699 1145 689 1157 q 717 1128 708 1133 q 733 1124 725 1124 l 754 1131 q 760 1132 760 1133 q 769 1135 761 1131 q 798 1160 778 1140 q 861 1224 818 1179 l 1022 1225 q 1010 1216 1015 1222 q 999 1199 1006 1210 q 994 1194 999 1199 q 940 1138 971 1169 q 883 1080 910 1107 q 838 1034 856 1053 q 819 1015 819 1015 l 797 997 z "},"":{"ha":419,"x_min":4,"x_max":581,"o":"m 272 50 l 79 50 l 79 61 q 83 72 79 63 q 99 119 86 82 q 137 230 113 156 q 203 435 161 304 q 207 447 204 439 q 212 463 210 454 q 216 478 214 471 q 219 488 218 485 q 230 509 224 496 q 238 522 236 522 l 426 522 l 272 50 m 497 575 l 185 575 l 4 -1 l 317 -1 l 497 575 m 336 900 q 322 876 333 900 q 297 817 311 851 q 270 744 283 782 q 250 676 257 706 q 246 655 247 671 q 244 633 244 639 l 493 633 q 506 658 494 633 q 530 717 517 682 q 556 790 543 751 q 576 858 569 829 q 579 880 578 864 q 581 901 581 896 l 336 900 m 510 850 q 505 803 510 832 q 490 749 500 775 q 468 703 481 722 q 440 683 456 683 l 315 683 q 320 730 315 701 q 335 785 325 758 q 357 832 344 813 q 385 851 369 851 l 510 850 z "},"":{"ha":942,"x_min":176,"x_max":890,"o":"m 474 0 l 890 0 l 593 903 l 176 903 l 474 0 m 256 850 l 543 850 l 811 51 l 517 51 l 256 850 z "},"":{"ha":535,"x_min":186,"x_max":885,"o":"m 788 969 q 801 994 789 969 q 828 1056 814 1019 q 858 1131 843 1092 q 879 1199 872 1169 q 883 1220 882 1204 q 885 1242 885 1236 l 636 1242 q 622 1217 633 1242 q 597 1156 611 1192 q 569 1080 582 1119 q 549 1011 556 1040 l 547 971 l 788 969 m 614 1019 q 620 1067 614 1038 q 637 1124 626 1096 q 660 1172 647 1151 q 689 1192 674 1192 l 814 1192 q 808 1144 814 1174 q 791 1087 801 1115 q 767 1038 781 1058 q 739 1018 753 1018 l 614 1019 m 431 971 q 444 996 432 971 q 472 1057 457 1021 q 501 1132 486 1093 q 522 1200 515 1171 q 526 1222 525 1206 q 528 1243 528 1238 l 279 1243 q 265 1218 276 1243 q 240 1157 254 1193 q 212 1081 225 1121 q 192 1013 199 1042 q 188 991 189 1007 q 186 969 186 975 l 431 971 m 257 1021 q 263 1068 257 1039 q 280 1125 269 1097 q 303 1173 290 1153 q 332 1193 317 1193 l 457 1193 q 451 1146 457 1175 q 434 1088 444 1117 q 410 1040 424 1060 q 382 1019 396 1019 l 257 1021 z "},"":{"ha":1889,"x_min":6,"x_max":1844,"o":"m 1844 425 q 1682 503 1844 454 q 1768 565 1768 514 l 1767 572 q 1764 579 1767 576 l 1518 633 q 1567 694 1568 644 l 1540 718 l 1250 718 l 1258 781 l 1171 790 l 929 749 l 918 757 l 928 790 l 882 822 l 664 728 l 551 790 q 489 749 522 779 q 411 667 456 719 l 275 704 l 265 704 q 224 669 238 704 q 214 557 211 633 l 72 568 l 61 503 l 136 432 l 6 411 l 18 357 l 158 304 l 83 250 q 122 210 86 210 l 318 176 l 282 146 l 283 104 l 600 82 l 593 29 l 629 10 l 932 51 l 933 -11 l 971 -25 l 1199 82 l 1276 19 l 1338 29 l 1453 146 q 1524 115 1494 126 q 1578 103 1554 103 q 1624 125 1607 103 l 1633 250 l 1754 229 q 1790 276 1792 240 l 1790 285 q 1788 294 1790 294 l 1714 376 l 1822 376 l 1843 419 q 1844 424 1844 421 l 1844 425 m 1810 411 l 1651 399 q 1756 271 1756 303 q 1753 263 1757 263 l 1592 285 l 1589 133 l 1428 176 l 1311 51 l 1197 113 l 958 10 l 968 51 l 931 93 l 628 42 l 661 113 l 319 125 l 415 186 l 121 243 l 251 294 l 40 389 l 199 399 l 111 494 l 99 538 l 256 528 l 275 675 q 396 626 353 626 q 424 633 406 626 l 553 757 l 651 694 l 868 790 l 893 781 l 907 718 l 1224 757 l 1200 686 l 1529 686 l 1436 619 l 1718 568 l 1729 549 l 1718 549 l 1597 515 l 1794 432 l 1810 411 m 1565 485 l 1513 494 l 1511 354 l 1547 347 l 1565 485 m 1554 288 l 1521 301 l 1494 281 l 1522 260 l 1554 288 m 1461 301 l 1454 485 l 1417 494 l 1414 367 l 1288 485 l 1300 299 l 1332 301 l 1329 392 q 1461 301 1408 301 m 1260 301 l 1251 440 q 1192 499 1236 499 q 1178 497 1185 499 q 1164 494 1172 496 q 1083 307 1092 401 l 1126 307 q 1179 354 1151 354 q 1231 307 1206 354 l 1260 301 m 1050 494 l 1010 488 l 996 299 l 1043 313 l 1050 494 m 954 294 l 947 478 l 911 488 l 908 357 l 778 478 l 792 288 l 825 294 l 821 385 q 954 294 900 294 m 757 425 q 668 486 733 486 l 654 486 q 653 485 654 486 q 644 485 651 485 q 569 322 565 439 q 642 290 581 290 q 660 292 651 290 q 679 294 669 293 q 757 425 743 294 m 546 489 q 394 383 389 472 l 394 374 q 396 360 394 360 q 481 276 418 276 q 524 285 488 276 l 524 315 q 500 313 511 314 q 479 313 489 313 q 435 347 435 313 q 463 425 433 393 q 518 451 489 451 q 531 451 525 451 q 544 444 538 450 l 546 489 m 368 488 l 326 479 l 314 288 l 363 304 l 368 488 m 1215 392 l 1146 392 l 1188 454 l 1215 392 m 719 397 q 701 342 719 369 q 644 328 674 328 q 618 338 628 328 q 607 374 608 349 q 606 381 606 379 q 607 385 607 383 q 669 444 629 444 q 710 418 693 444 q 717 410 715 415 q 719 397 718 404 z "},"":{"ha":501,"x_min":108,"x_max":563,"o":"m 193 301 l 489 301 q 499 330 490 301 q 519 399 508 358 q 540 481 529 439 q 558 553 551 524 q 561 574 560 558 q 563 596 563 590 l 281 596 q 224 597 236 601 q 211 589 211 593 q 213 579 211 586 q 214 544 214 572 l 492 544 q 489 494 492 526 q 479 431 486 463 q 462 376 472 400 q 436 353 451 353 l 142 353 q 126 344 135 353 q 113 326 118 336 q 109 308 108 317 q 122 300 110 300 l 193 301 z "},"":{"ha":490,"x_min":110,"x_max":543,"o":"m 469 306 q 479 334 471 306 q 499 402 488 363 q 521 485 510 442 q 539 557 532 528 q 542 578 540 563 q 543 600 543 594 l 183 597 q 172 569 181 597 q 153 501 164 540 q 132 419 143 461 q 114 347 121 376 q 111 326 113 342 q 110 304 110 310 l 469 306 m 181 356 q 181 394 178 364 q 191 459 183 425 q 210 520 199 493 q 236 547 221 547 l 472 550 q 476 510 478 542 q 465 445 474 479 q 444 384 457 411 q 417 357 432 357 l 181 356 z "},"":{"ha":1729,"x_min":13,"x_max":1681,"o":"m 1681 563 l 1611 579 l 1608 342 l 1651 336 l 1681 563 m 1668 242 l 1622 263 l 1582 232 l 1621 194 l 1668 242 m 1542 258 l 1531 563 l 1485 579 l 1479 368 l 1308 563 l 1324 256 l 1365 263 l 1360 411 q 1463 295 1418 332 q 1542 258 1507 258 m 1268 263 l 1257 489 q 1179 589 1236 589 q 1144 576 1161 589 q 1036 276 1042 428 l 1096 276 q 1165 342 1132 342 q 1235 276 1206 342 l 1268 263 m 992 579 l 938 568 l 921 256 l 988 276 l 992 579 m 868 250 l 857 550 l 804 568 l 804 356 l 628 549 l 647 242 l 690 250 l 685 399 q 868 250 793 250 m 600 461 q 478 568 572 568 l 465 568 q 450 563 460 568 q 350 297 342 489 q 451 243 371 243 q 473 245 463 243 q 497 250 483 247 q 565 303 538 250 q 600 461 592 356 m 318 575 q 118 397 111 538 l 118 378 q 122 356 118 369 q 238 221 151 221 q 264 222 251 221 q 292 235 276 224 l 290 286 q 236 279 274 279 q 172 340 175 279 q 179 403 171 372 q 210 461 188 433 q 283 506 243 506 q 300 503 293 506 q 314 499 307 501 l 318 575 m 79 568 l 26 556 l 13 242 l 76 267 l 79 568 m 1213 411 l 1119 411 l 1174 513 l 1213 411 m 551 418 q 548 375 551 397 q 529 332 544 353 q 453 301 482 301 q 417 321 428 301 q 406 376 407 340 l 404 399 q 485 494 435 494 q 542 454 514 494 q 548 438 544 447 q 551 418 551 429 z "},"":{"ha":686,"x_min":249,"x_max":892,"o":"m 818 697 q 828 726 819 697 q 847 794 836 754 q 869 876 858 833 q 888 949 881 919 q 890 970 889 954 q 892 992 892 986 l 322 992 q 311 963 319 992 q 292 895 303 935 q 271 813 282 856 q 253 742 260 771 q 250 720 251 736 q 249 699 249 704 l 818 697 m 319 750 q 319 789 317 758 q 330 853 322 819 q 349 915 338 888 q 375 942 360 942 l 821 942 q 824 902 826 933 q 814 837 822 871 q 793 776 806 803 q 765 749 781 749 l 319 750 z "},"":{"ha":535,"x_min":206,"x_max":631,"o":"m 450 686 q 473 715 451 686 q 522 783 494 743 q 576 865 549 822 q 615 936 603 907 q 624 958 619 942 q 631 979 629 974 l 382 979 q 358 951 379 979 q 311 883 338 922 q 258 800 285 843 q 219 728 232 757 q 211 706 215 722 q 206 685 207 690 l 450 686 m 288 736 q 308 787 292 754 q 344 851 324 819 q 387 906 365 882 q 424 929 408 929 l 549 929 q 528 878 544 911 q 492 814 513 846 q 449 758 471 782 q 413 735 426 735 l 288 736 z "},"":{"ha":415,"x_min":92,"x_max":433,"o":"m 336 271 q 350 296 338 271 q 377 357 363 321 q 406 432 392 393 q 428 500 421 471 q 432 522 431 506 q 433 543 433 538 l 185 543 q 171 518 182 543 q 145 457 160 493 q 117 381 131 421 q 97 313 104 342 q 93 291 94 307 q 92 269 92 275 l 336 271 m 163 321 q 169 368 163 339 q 185 425 175 397 q 209 473 196 453 q 238 493 222 493 l 363 493 q 356 446 363 475 q 340 388 350 417 q 315 340 329 360 q 288 319 301 319 l 163 321 z "},"":{"ha":617,"x_min":140,"x_max":718,"o":"m 717 803 l 718 826 q 701 876 718 854 q 651 899 683 899 l 335 899 q 290 885 310 899 q 258 851 271 871 q 235 807 244 831 q 221 764 226 783 q 199 691 210 728 q 177 619 188 654 q 158 552 167 583 q 140 496 149 521 l 140 472 q 158 422 140 444 q 207 400 175 400 l 522 400 q 567 414 549 400 q 599 448 586 428 q 622 491 613 468 q 638 533 631 514 l 717 803 m 167 476 q 183 545 175 515 q 199 606 190 575 q 217 673 207 638 q 244 757 228 708 q 256 790 249 771 q 274 828 263 810 q 299 858 285 846 q 335 869 314 869 l 660 869 q 685 852 679 869 q 690 822 690 835 q 690 813 690 819 q 689 803 690 806 q 683 777 686 792 q 674 747 679 763 q 647 663 663 715 q 610 543 632 610 q 599 508 606 528 q 583 471 593 489 q 558 440 572 453 q 522 428 543 428 l 197 428 q 172 445 178 428 q 167 476 167 463 m 508 749 l 507 749 l 515 774 l 418 774 l 343 524 l 440 524 l 508 749 m 440 746 l 478 746 l 418 553 l 381 553 l 440 746 z "},"":{"ha":988,"x_min":11,"x_max":1056,"o":"m 892 390 l 442 390 l 393 224 l 857 224 q 836 165 849 196 q 806 109 824 135 q 765 66 789 83 q 708 49 740 49 l 118 49 q 89 58 100 49 q 72 81 78 67 q 65 109 67 94 q 63 136 63 124 q 63 153 63 139 q 65 171 64 167 l 171 508 l 631 508 l 657 576 l 976 576 l 892 390 m 128 508 l 14 171 l 11 126 l 11 119 q 20 72 11 94 q 45 33 29 50 q 84 7 61 17 q 135 -3 107 -3 l 708 -3 q 789 22 754 -3 q 849 84 824 47 q 890 163 874 121 q 917 240 907 206 l 913 276 l 458 276 l 481 342 l 926 342 l 1038 621 l 636 621 l 611 585 l 599 561 l 143 561 l 128 508 m 811 903 q 799 884 808 903 q 777 837 789 865 q 753 776 765 808 q 735 714 742 743 q 731 692 732 708 q 729 671 729 676 l 978 671 q 989 690 979 671 q 1010 737 999 708 q 1033 799 1021 765 q 1051 861 1044 832 q 1054 883 1053 867 q 1056 904 1056 899 l 811 903 m 985 853 q 981 812 985 835 q 970 769 978 789 q 951 735 963 749 q 925 721 940 721 l 800 721 q 803 762 800 739 q 815 806 807 785 q 833 840 822 826 q 860 854 844 854 l 985 853 z "},"":{"ha":1936,"x_min":-7,"x_max":2074,"o":"m 1799 0 q 1812 19 1803 0 q 1831 67 1821 38 q 1850 134 1840 97 q 1868 206 1860 171 q 1881 273 1876 242 q 1886 324 1886 304 l 1331 324 l 1342 365 l 1715 365 q 1726 399 1717 365 q 1749 481 1736 433 q 1776 581 1763 529 q 1799 667 1790 632 q 1801 692 1800 674 q 1803 718 1803 711 l 1444 718 l 1456 760 l 1985 760 l 2007 792 q 2012 824 2007 793 q 2026 900 2017 856 q 2047 994 2035 944 q 2074 1081 2060 1043 l 640 1081 l -7 0 l 474 0 l 557 83 l 836 83 l 849 0 l 1799 0 m 701 1019 l 1999 1019 l 1999 1007 q 1988 969 1993 994 q 1978 919 1982 944 q 1970 875 1974 894 q 1965 853 1967 856 q 1955 834 1961 844 q 1943 824 1949 824 l 1424 824 q 1415 804 1424 824 q 1401 769 1407 785 q 1385 725 1388 735 q 1382 710 1382 715 q 1383 697 1382 704 q 1385 657 1385 690 l 1740 657 l 1682 426 l 1324 426 q 1293 403 1310 426 q 1276 349 1276 381 q 1279 292 1276 318 q 1282 260 1282 267 l 1815 260 q 1813 244 1815 254 q 1810 228 1811 233 l 1765 61 l 1732 60 l 939 60 l 900 61 l 900 144 l 515 144 l 432 60 l 117 60 q 165 156 133 97 q 238 285 197 214 q 324 433 278 356 q 417 588 371 511 q 505 733 463 664 q 581 856 547 803 q 635 942 614 910 q 660 978 657 975 l 701 1019 m 849 728 q 835 720 843 726 q 826 708 828 714 q 797 658 819 697 q 748 573 775 619 q 696 482 721 526 q 660 417 671 438 l 618 333 l 875 333 l 875 425 q 869 581 875 500 q 849 728 864 661 m 807 519 l 807 417 l 740 417 q 762 476 740 447 q 807 519 783 504 z "},"":{"ha":1199,"x_min":78,"x_max":1332,"o":"m 458 -7 l 389 -7 q 329 -7 353 -7 q 288 -6 306 -7 q 257 -4 271 -6 q 226 0 243 -3 q 119 69 161 19 q 78 182 78 119 l 78 201 q 99 281 85 228 q 131 400 113 333 q 168 541 149 467 q 206 683 188 615 q 241 806 225 751 q 267 890 257 861 q 288 953 274 917 q 323 1021 301 989 q 372 1076 344 1053 q 433 1099 400 1099 l 1244 1099 q 1286 1083 1269 1099 q 1313 1044 1303 1067 q 1328 995 1324 1021 q 1332 951 1332 969 q 1315 839 1332 889 q 1267 724 1297 789 q 1031 646 1153 674 q 786 618 908 618 l 767 618 l 801 760 l 715 760 q 685 697 700 743 q 655 593 669 651 q 626 474 640 535 q 600 368 613 414 l 1207 368 l 1078 35 q 1063 26 1078 33 q 1036 15 1047 18 q 960 -24 1008 -3 q 854 -65 911 -44 q 738 -103 797 -85 q 629 -137 678 -122 q 548 -160 581 -151 q 514 -168 515 -168 l 450 -168 l 458 -7 m 525 43 l 508 -92 q 602 -78 549 -89 q 713 -52 656 -68 q 828 -14 771 -36 q 934 35 886 8 q 1015 93 982 61 q 1058 160 1049 125 q 1074 201 1065 185 q 1090 229 1082 218 q 1104 248 1099 240 q 1111 265 1110 256 q 1113 272 1113 267 q 1115 285 1114 278 q 1115 297 1115 292 q 1115 307 1115 304 l 543 307 l 536 368 l 668 828 l 875 828 l 857 674 l 1126 732 q 1151 738 1143 735 q 1166 746 1160 742 q 1179 755 1172 750 q 1203 765 1186 760 q 1250 854 1232 806 q 1268 951 1268 903 q 1265 974 1268 960 q 1257 1001 1263 988 q 1243 1025 1251 1015 q 1225 1035 1235 1035 l 453 1035 q 408 1015 428 1035 q 372 969 388 996 q 346 915 357 943 q 328 868 335 886 q 303 781 318 835 q 269 662 288 726 q 233 527 251 597 q 198 393 214 457 q 169 277 182 329 q 151 194 157 225 q 155 162 150 182 q 170 122 160 142 q 194 85 181 101 q 225 67 208 69 l 317 44 l 525 43 z "},"":{"ha":1260,"x_min":8,"x_max":1415,"o":"m 696 0 l 642 168 l 460 0 l 8 0 l 467 451 l 300 899 l 728 899 l 785 696 l 964 899 l 1415 899 l 957 447 l 1124 0 l 696 0 m 769 600 l 751 606 l 669 847 l 389 847 q 533 443 386 847 l 140 51 l 431 51 l 658 257 l 674 258 l 753 51 l 1035 51 q 890 457 1036 51 l 1283 847 l 993 847 l 769 600 z "},"":{"ha":1201,"x_min":68,"x_max":1332,"o":"m 1328 878 l 1332 932 q 1322 989 1332 961 q 1292 1038 1311 1017 q 1246 1073 1274 1060 q 1183 1086 1218 1086 l 494 1086 q 398 1056 439 1086 q 326 983 357 1026 q 276 888 296 939 q 244 794 257 836 q 195 634 219 715 q 149 476 171 553 q 106 331 126 400 q 69 208 86 263 l 68 157 q 78 98 68 126 q 108 48 89 69 q 154 13 126 26 q 217 0 182 0 l 903 0 q 1000 30 958 0 q 1071 104 1042 60 q 1120 199 1100 149 q 1153 292 1140 250 l 1328 878 m 128 167 q 130 188 128 172 q 133 208 132 203 q 165 335 149 278 q 200 455 181 393 q 243 591 219 517 q 297 768 267 665 q 320 844 306 800 q 359 928 335 888 q 417 997 383 968 q 494 1025 450 1025 l 1203 1025 q 1238 1014 1225 1025 q 1258 987 1251 1003 q 1267 952 1265 971 q 1269 919 1269 933 q 1269 900 1269 917 q 1267 878 1268 883 q 1252 823 1260 854 q 1233 757 1244 792 q 1176 572 1210 688 q 1093 311 1142 456 q 1069 236 1083 279 q 1034 154 1056 193 q 981 88 1013 115 q 903 61 949 61 l 194 61 q 159 72 172 61 q 139 99 146 83 q 130 133 132 115 q 128 167 128 151 m 900 815 l 660 815 l 556 489 l 900 815 m 701 757 l 772 757 l 683 674 l 701 757 m 733 269 l 851 558 l 503 268 l 733 269 m 757 418 l 708 317 l 639 317 l 757 418 z "},"":{"ha":1135,"x_min":8,"x_max":1107,"o":"m 686 347 l 631 347 q 649 396 631 372 q 686 433 667 419 l 686 347 m 721 607 q 710 600 717 606 q 703 590 704 594 q 678 548 697 581 q 638 477 660 515 q 594 402 615 439 q 564 347 574 365 l 529 278 l 743 278 l 743 354 q 739 484 743 417 q 721 607 735 551 m 964 850 q 968 814 964 850 q 978 719 972 778 q 992 588 985 661 q 1008 439 1000 514 q 1022 294 1015 364 q 1033 174 1029 224 q 1034 149 1033 167 q 1035 113 1035 132 q 1037 76 1036 93 q 1038 51 1038 58 l 764 51 l 764 121 l 443 121 l 374 51 l 111 50 q 151 129 125 81 q 212 237 178 178 q 284 361 246 296 q 360 490 322 426 q 435 611 399 553 q 499 714 471 669 q 544 785 526 758 q 564 815 561 813 l 599 850 l 964 850 m 8 0 l 408 0 l 478 69 l 711 69 l 711 0 l 1107 0 l 1015 903 l 547 903 l 8 0 m 878 971 q 879 997 879 971 q 876 1063 879 1025 q 869 1142 874 1101 q 858 1213 864 1183 l 851 1257 l 611 1257 q 610 1229 608 1257 q 615 1163 611 1201 q 626 1083 619 1125 q 638 1013 632 1042 q 641 991 636 1007 q 649 969 646 975 l 878 971 m 697 1021 q 682 1070 690 1039 q 669 1131 674 1101 q 668 1183 665 1161 q 686 1206 671 1206 l 807 1208 q 820 1158 814 1190 q 828 1096 826 1126 q 826 1042 831 1065 q 807 1019 821 1019 l 697 1021 z "},"":{"ha":1135,"x_min":8,"x_max":1107,"o":"m 686 347 l 631 347 q 649 396 631 372 q 686 433 667 419 l 686 347 m 721 607 q 710 600 717 606 q 703 590 704 594 q 678 548 697 581 q 638 477 660 515 q 594 402 615 439 q 564 347 574 365 l 529 278 l 743 278 l 743 354 q 739 484 743 417 q 721 607 735 551 m 964 850 q 968 814 964 850 q 978 719 972 778 q 992 588 985 661 q 1008 439 1000 514 q 1022 294 1015 364 q 1033 174 1029 224 q 1034 149 1033 167 q 1035 113 1035 132 q 1037 76 1036 93 q 1038 51 1038 58 l 764 51 l 764 121 l 443 121 l 374 51 l 111 50 q 151 129 125 81 q 212 237 178 178 q 284 361 246 296 q 360 490 322 426 q 435 611 399 553 q 499 714 471 669 q 544 785 526 758 q 564 815 561 813 l 599 850 l 964 850 m 8 0 l 408 0 l 478 69 l 711 69 l 711 0 l 1107 0 l 1015 903 l 547 903 l 8 0 m 851 972 q 874 1001 853 972 q 923 1069 896 1029 q 977 1151 950 1108 q 1017 1222 1004 1193 q 1026 1244 1021 1228 q 1032 1265 1031 1260 l 783 1265 q 760 1237 781 1265 q 713 1169 739 1208 q 660 1086 686 1129 q 621 1014 633 1043 q 613 992 617 1008 q 607 971 608 976 l 851 972 m 689 1022 q 709 1073 693 1040 q 746 1137 725 1106 q 788 1192 767 1168 q 825 1215 810 1215 l 950 1215 q 930 1165 946 1197 q 893 1100 914 1132 q 850 1044 872 1068 q 814 1021 828 1021 l 689 1022 z "},"":{"ha":1135,"x_min":8,"x_max":1107,"o":"m 686 347 l 631 347 q 649 396 631 372 q 686 433 667 419 l 686 347 m 721 607 q 710 600 717 606 q 703 590 704 594 q 678 548 697 581 q 638 477 660 515 q 594 402 615 439 q 564 347 574 365 l 529 278 l 743 278 l 743 354 q 739 484 743 417 q 721 607 735 551 m 964 850 q 968 814 964 850 q 978 719 972 778 q 992 588 985 661 q 1008 439 1000 514 q 1022 294 1015 364 q 1033 174 1029 224 q 1034 149 1033 167 q 1035 113 1035 132 q 1037 76 1036 93 q 1038 51 1038 58 l 764 51 l 764 121 l 443 121 l 374 50 l 111 50 q 151 129 125 81 q 212 237 178 178 q 284 361 246 296 q 360 490 322 426 q 435 611 399 553 q 499 714 471 669 q 544 785 526 758 q 564 815 561 813 l 599 850 l 964 850 m 8 0 l 408 0 l 478 69 l 711 69 l 711 0 l 1107 0 l 1015 903 l 547 903 l 8 0 m 829 1063 l 861 1022 l 869 976 l 1106 976 l 961 1258 l 721 1258 l 457 975 l 715 975 l 808 1071 l 826 1061 l 829 1063 m 753 1232 l 931 1232 q 940 1212 931 1229 q 962 1171 949 1194 q 990 1119 975 1147 q 1019 1067 1006 1092 q 1043 1025 1033 1043 q 1056 1003 1053 1007 l 907 1003 q 874 1053 888 1033 q 851 1084 861 1072 q 833 1101 842 1096 q 817 1106 825 1106 l 796 1099 q 790 1097 790 1096 q 781 1094 789 1099 q 752 1069 772 1089 q 689 1006 732 1050 l 528 1006 q 540 1015 535 1008 q 551 1032 544 1021 q 556 1036 551 1032 q 610 1092 579 1061 q 667 1150 640 1124 q 713 1195 694 1176 q 731 1214 731 1214 l 753 1232 z "},"":{"ha":1135,"x_min":8,"x_max":1156,"o":"m 686 347 l 631 347 q 649 396 631 372 q 686 433 667 419 l 686 347 m 721 607 q 710 600 717 606 q 703 590 704 594 q 678 548 697 581 q 638 477 660 515 q 594 402 615 439 q 564 347 574 365 l 529 278 l 743 278 l 743 354 q 739 484 743 417 q 721 607 735 551 m 964 850 q 968 814 964 850 q 978 719 972 778 q 992 588 985 661 q 1008 439 1000 514 q 1022 294 1015 364 q 1033 174 1029 224 q 1034 149 1033 167 q 1035 113 1035 132 q 1037 76 1036 93 q 1038 51 1038 58 l 764 51 l 764 121 l 443 121 l 374 51 l 111 50 q 151 129 125 81 q 212 237 178 178 q 284 361 246 296 q 360 490 322 426 q 435 611 399 553 q 499 714 471 669 q 544 785 526 758 q 564 815 561 813 l 599 850 l 964 850 m 8 0 l 408 0 l 478 69 l 711 69 l 711 0 l 1107 0 l 1015 903 l 547 903 l 8 0 m 1044 972 q 1095 1040 1072 1010 q 1142 1111 1118 1069 q 1148 1126 1146 1118 q 1156 1143 1150 1133 q 1038 1225 1110 1199 q 892 1233 965 1251 q 710 1194 797 1194 q 551 1249 622 1193 q 506 1167 524 1210 q 467 1083 488 1125 q 464 1076 464 1074 q 463 1071 464 1079 q 504 1011 475 1033 q 569 978 533 989 q 646 968 606 968 q 722 976 686 968 q 895 1022 811 1015 q 1044 972 979 1028 m 503 1063 q 503 1069 503 1065 q 503 1075 504 1072 q 515 1108 510 1090 q 525 1143 519 1126 q 539 1174 531 1160 q 563 1199 547 1189 q 619 1177 583 1186 q 694 1165 654 1168 q 775 1167 735 1163 q 846 1186 815 1171 q 980 1200 918 1211 q 1092 1150 1042 1189 q 1090 1128 1094 1136 q 1078 1098 1085 1113 q 1064 1071 1072 1083 q 1043 1050 1056 1058 q 1011 1040 1031 1042 q 897 1065 953 1068 q 785 1036 840 1063 q 631 1014 706 1010 q 503 1063 556 1018 z "},"":{"ha":1135,"x_min":8,"x_max":1175,"o":"m 686 347 l 631 347 q 649 396 631 372 q 686 433 667 419 l 686 347 m 721 607 q 710 600 717 606 q 703 590 704 594 q 678 548 697 581 q 638 477 660 515 q 594 402 615 439 q 564 347 574 365 l 529 278 l 743 278 l 743 354 q 739 484 743 417 q 721 607 735 551 m 964 850 q 968 814 964 850 q 978 719 972 778 q 992 588 985 661 q 1008 439 1000 514 q 1022 294 1015 364 q 1033 174 1029 224 q 1034 149 1033 167 q 1035 113 1035 132 q 1037 76 1036 93 q 1038 51 1038 58 l 764 51 l 764 121 l 443 121 l 374 51 l 111 50 q 151 129 125 81 q 212 237 178 178 q 284 361 246 296 q 360 490 322 426 q 435 611 399 553 q 499 714 471 669 q 544 785 526 758 q 564 815 561 813 l 599 850 l 964 850 m 8 0 l 408 0 l 478 69 l 711 69 l 711 0 l 1107 0 l 1015 903 l 547 903 l 8 0 m 1078 972 q 1092 997 1079 972 q 1119 1058 1104 1022 q 1148 1133 1133 1094 q 1169 1201 1163 1172 q 1174 1223 1172 1207 q 1175 1244 1175 1239 l 926 1244 q 913 1219 924 1244 q 887 1158 901 1194 q 859 1083 872 1122 q 839 1014 846 1043 l 838 974 l 1078 972 m 904 1022 q 910 1069 904 1040 q 927 1126 917 1099 q 951 1174 938 1154 q 979 1194 964 1194 l 1104 1194 q 1098 1147 1104 1176 q 1081 1090 1092 1118 q 1057 1041 1071 1061 q 1029 1021 1043 1021 l 904 1022 m 721 974 q 735 999 722 974 q 762 1060 747 1024 q 791 1135 776 1096 q 813 1203 806 1174 q 817 1224 815 1208 q 818 1246 818 1240 l 569 1246 q 556 1221 567 1246 q 530 1160 544 1196 q 502 1084 515 1124 q 482 1015 489 1044 q 478 994 479 1010 q 476 972 476 978 l 721 974 m 547 1024 q 553 1071 547 1042 q 570 1128 560 1100 q 594 1176 581 1156 q 622 1196 607 1196 l 747 1196 q 741 1149 747 1178 q 724 1091 735 1119 q 700 1042 714 1063 q 672 1022 686 1022 l 547 1024 z "},"":{"ha":1135,"x_min":8,"x_max":1107,"o":"m 686 347 l 631 347 q 649 396 631 372 q 686 433 667 419 l 686 347 m 721 607 q 710 600 717 606 q 703 590 704 594 q 678 548 697 581 q 638 477 660 515 q 594 402 615 439 q 564 347 574 365 l 529 278 l 743 278 l 743 354 q 739 484 743 417 q 721 607 735 551 m 964 850 q 968 814 964 850 q 978 719 972 778 q 992 588 985 661 q 1008 439 1000 514 q 1022 294 1015 364 q 1033 174 1029 224 q 1034 149 1033 167 q 1035 113 1035 132 q 1037 76 1036 93 q 1038 51 1038 58 l 764 51 l 764 121 l 443 121 l 374 51 l 111 50 q 151 129 125 81 q 212 237 178 178 q 284 361 246 296 q 360 490 322 426 q 435 611 399 553 q 499 714 471 669 q 544 785 526 758 q 564 815 561 813 l 599 850 l 964 850 m 8 0 l 408 0 l 478 69 l 711 69 l 711 0 l 1107 0 l 1015 903 l 547 903 l 8 0 m 889 969 q 903 994 890 969 q 930 1056 915 1019 q 959 1131 944 1092 q 981 1199 974 1169 q 985 1220 983 1204 q 986 1242 986 1236 l 738 1242 q 724 1217 735 1242 q 698 1156 713 1192 q 670 1080 683 1119 q 650 1011 657 1040 l 649 971 l 889 969 m 715 1019 q 722 1067 715 1038 q 738 1124 728 1096 q 762 1172 749 1151 q 790 1192 775 1192 l 915 1192 q 909 1144 915 1174 q 892 1087 903 1115 q 868 1038 882 1058 q 840 1018 854 1018 l 715 1019 z "},"":{"ha":1614,"x_min":-6,"x_max":1728,"o":"m 1499 0 q 1517 33 1504 0 q 1542 111 1529 67 q 1563 201 1554 156 q 1572 269 1572 246 l 1108 269 l 1118 304 l 1429 304 q 1439 333 1431 304 q 1458 401 1447 361 q 1481 484 1469 442 q 1499 556 1492 526 q 1501 577 1500 561 q 1503 599 1503 593 l 1204 599 l 1213 633 l 1654 633 l 1672 660 q 1676 687 1672 661 q 1688 750 1681 713 q 1706 828 1696 788 q 1728 900 1717 869 l 533 900 l -6 0 l 394 0 l 464 69 l 697 69 l 707 0 l 1499 0 m 585 850 l 1665 850 l 1665 839 q 1657 808 1661 828 q 1649 767 1653 788 q 1642 730 1644 746 q 1638 711 1639 714 q 1629 695 1635 704 q 1619 686 1624 686 l 1186 686 q 1179 669 1186 686 q 1168 642 1172 653 q 1154 604 1157 613 q 1151 592 1151 596 q 1153 581 1151 588 q 1154 547 1154 575 l 1450 547 l 1401 356 l 1103 356 q 1078 336 1092 356 q 1064 290 1064 317 q 1066 244 1064 265 q 1068 217 1068 222 l 1513 217 q 1511 203 1513 213 q 1508 190 1510 194 l 1471 51 l 1443 50 l 782 50 l 750 51 l 750 121 l 429 121 l 360 50 l 97 50 q 138 129 111 81 q 198 237 164 178 q 270 361 232 296 q 347 490 308 426 q 421 611 385 553 q 485 714 457 669 q 530 785 513 758 q 550 815 547 813 l 585 850 m 707 607 q 697 600 703 606 q 689 590 690 594 q 665 548 683 581 q 624 477 646 515 q 581 402 601 439 q 550 347 560 365 l 515 278 l 729 278 l 729 354 q 725 484 729 417 q 707 607 721 551 m 672 433 l 672 347 l 617 347 q 635 396 617 372 q 672 433 653 419 z "},"":{"ha":999,"x_min":65,"x_max":1110,"o":"m 382 -6 l 324 -6 q 275 -6 294 -6 q 241 -5 256 -6 q 215 -3 226 -4 q 189 0 203 -3 q 100 58 135 17 q 65 151 65 100 l 65 168 q 83 233 71 189 q 109 333 94 278 q 140 451 124 389 q 172 569 157 513 q 201 672 188 625 q 222 742 214 718 q 240 794 228 764 q 269 851 251 824 q 310 897 288 878 q 361 915 333 915 l 1038 915 q 1072 902 1058 915 q 1094 870 1086 889 q 1106 830 1103 851 q 1110 793 1110 808 q 1106 744 1110 767 q 1095 700 1103 722 q 1078 654 1088 678 q 1056 603 1068 631 q 858 538 960 561 q 656 515 756 515 l 639 515 l 668 633 l 596 633 q 571 581 583 619 q 546 494 558 543 q 522 395 533 446 q 500 307 510 344 l 1006 307 l 899 29 q 886 22 899 28 q 864 13 874 15 q 801 -20 842 -3 q 712 -54 760 -37 q 615 -87 664 -71 q 524 -115 565 -103 q 456 -133 483 -126 q 428 -140 429 -140 l 375 -140 l 382 -6 m 438 36 l 424 -76 q 547 -56 474 -72 q 691 -12 621 -39 q 815 52 761 15 q 882 133 869 89 q 895 168 888 154 q 909 191 903 182 q 920 206 915 200 q 926 221 925 213 q 928 238 928 224 q 929 256 929 251 l 453 256 l 447 307 l 557 690 l 729 690 l 714 561 l 939 610 q 960 615 953 613 q 972 622 967 618 q 983 629 976 625 q 1003 638 989 633 q 1042 713 1026 672 q 1057 793 1057 753 q 1054 812 1057 800 q 1047 835 1051 824 q 1036 854 1043 846 q 1021 863 1029 863 l 378 863 q 340 847 357 863 q 310 808 322 831 q 288 763 297 786 q 274 724 279 739 q 252 651 265 696 q 224 551 239 606 q 194 439 210 497 q 165 328 178 381 q 141 231 151 275 q 126 163 131 188 q 129 135 125 151 q 142 101 133 118 q 162 72 150 85 q 188 56 174 58 l 264 38 l 438 36 z "},"":{"ha":996,"x_min":21,"x_max":1117,"o":"m 21 0 l 881 0 q 899 33 886 0 q 924 111 911 67 q 945 201 936 156 q 954 269 954 246 l 490 269 l 500 304 l 811 304 q 821 333 813 304 q 840 401 829 361 q 863 484 851 442 q 881 556 874 526 q 883 577 882 561 q 885 599 885 593 l 586 599 l 594 633 l 1036 633 l 1054 660 q 1061 690 1054 661 q 1078 758 1068 718 q 1099 839 1089 797 q 1117 908 1110 881 l 1117 911 l 269 911 l 21 0 m 97 78 q 98 82 97 79 q 99 86 99 85 q 119 160 106 110 q 150 275 133 211 q 185 409 167 339 q 221 542 204 479 q 251 656 238 606 q 272 729 265 706 q 277 747 274 735 q 285 774 281 760 q 293 801 289 789 q 300 821 297 814 q 310 843 304 831 q 318 856 315 856 l 1049 856 q 1048 847 1049 851 q 1047 839 1047 842 q 1039 808 1043 828 q 1031 767 1035 788 q 1024 730 1026 746 q 1019 711 1021 714 q 1011 695 1017 704 q 1001 686 1006 686 l 568 686 q 561 669 568 686 q 550 642 554 653 q 536 604 539 613 q 533 592 533 596 q 535 581 533 588 q 536 547 536 575 l 832 547 l 783 356 l 485 356 q 460 336 474 356 q 446 290 446 317 q 448 244 446 265 q 450 217 450 222 l 894 217 q 893 203 894 213 q 890 190 892 194 l 853 51 l 825 50 l 117 50 q 108 58 113 51 q 99 69 103 65 q 98 73 99 69 q 97 78 97 76 m 803 974 q 804 1000 804 974 q 801 1066 804 1028 q 794 1145 799 1104 q 783 1215 789 1186 l 776 1260 l 536 1260 q 535 1232 533 1260 q 540 1166 536 1204 q 551 1086 544 1128 q 563 1015 557 1044 q 566 994 561 1010 q 574 972 571 978 l 803 974 m 622 1024 q 607 1073 615 1042 q 594 1134 599 1104 q 593 1186 590 1164 q 611 1208 596 1208 l 732 1211 q 745 1161 739 1193 q 753 1099 751 1129 q 751 1045 756 1068 q 732 1022 746 1022 l 622 1024 z "},"":{"ha":996,"x_min":21,"x_max":1117,"o":"m 21 0 l 881 0 q 899 33 886 0 q 924 111 911 67 q 945 201 936 156 q 954 269 954 246 l 490 269 l 500 304 l 811 304 q 821 333 813 304 q 840 401 829 361 q 863 484 851 442 q 881 556 874 526 q 883 577 882 561 q 885 599 885 593 l 586 599 l 594 633 l 1036 633 l 1054 660 q 1061 690 1054 661 q 1078 758 1068 718 q 1099 839 1089 797 q 1117 908 1110 881 l 1117 911 l 269 911 l 21 0 m 97 78 q 98 82 97 79 q 99 86 99 85 q 119 160 106 110 q 150 275 133 211 q 185 409 167 339 q 221 542 204 479 q 251 656 238 606 q 272 729 265 706 q 277 747 274 735 q 285 774 281 760 q 293 801 289 789 q 300 821 297 814 q 310 843 304 831 q 318 856 315 856 l 1049 856 q 1048 847 1049 851 q 1047 839 1047 842 q 1039 808 1043 828 q 1031 767 1035 788 q 1024 730 1026 746 q 1019 711 1021 714 q 1011 695 1017 704 q 1001 686 1006 686 l 568 686 q 561 669 568 686 q 550 642 554 653 q 536 604 539 613 q 533 592 533 596 q 535 581 533 588 q 536 547 536 575 l 832 547 l 783 356 l 485 356 q 460 336 474 356 q 446 290 446 317 q 448 244 446 265 q 450 217 450 222 l 894 217 q 893 203 894 213 q 890 190 892 194 l 853 51 l 825 50 l 117 50 q 108 58 113 51 q 99 69 103 65 q 98 73 99 69 q 97 78 97 76 m 790 974 q 813 1002 792 974 q 862 1070 835 1031 q 916 1152 889 1110 q 956 1224 943 1194 q 965 1245 960 1229 q 971 1267 969 1261 l 722 1267 q 699 1238 719 1267 q 651 1170 678 1210 q 599 1088 625 1131 q 560 1015 572 1044 q 551 994 556 1010 q 546 972 547 978 l 790 974 m 628 1024 q 648 1074 632 1042 q 685 1138 664 1107 q 727 1193 706 1169 q 764 1217 749 1217 l 889 1217 q 869 1166 885 1199 q 832 1101 853 1133 q 789 1046 811 1069 q 753 1022 767 1022 l 628 1024 z "},"":{"ha":996,"x_min":21,"x_max":1117,"o":"m 21 0 l 881 0 q 899 33 886 0 q 924 111 911 67 q 945 201 936 156 q 954 269 954 246 l 490 269 l 500 304 l 811 304 q 821 333 813 304 q 840 401 829 361 q 863 484 851 442 q 881 556 874 526 q 883 577 882 561 q 885 599 885 593 l 586 599 l 594 633 l 1036 633 l 1054 660 q 1061 690 1054 661 q 1078 758 1068 718 q 1099 839 1089 797 q 1117 908 1110 881 l 1117 911 l 269 911 l 21 0 m 97 78 l 99 86 q 119 160 106 110 q 150 275 133 211 q 185 409 167 339 q 221 542 204 479 q 251 656 238 606 q 272 729 265 706 q 277 747 274 735 q 285 774 281 760 q 293 801 289 789 q 300 821 297 814 q 310 843 304 831 q 318 856 315 856 l 1049 856 l 1047 839 q 1039 808 1043 828 q 1031 767 1035 788 q 1024 730 1026 746 q 1019 711 1021 714 q 1011 695 1017 704 q 1001 686 1006 686 l 568 686 q 561 669 568 686 q 550 642 554 653 q 536 604 539 613 q 533 592 533 596 q 535 581 533 588 q 536 547 536 575 l 832 547 l 783 356 l 485 356 q 460 336 474 356 q 446 290 446 317 q 448 244 446 265 q 450 217 450 222 l 894 217 q 893 203 894 213 q 890 190 892 194 l 847 47 l 126 47 q 120 65 124 61 q 113 69 117 69 q 104 68 108 69 q 99 69 100 67 q 98 73 99 69 q 97 78 97 76 m 749 1061 l 781 1021 l 789 975 l 1025 975 l 881 1257 l 640 1257 l 376 974 l 635 974 l 728 1069 l 746 1060 l 749 1061 m 672 1231 l 850 1231 q 859 1210 850 1228 q 881 1169 868 1193 q 910 1118 894 1146 q 939 1066 925 1090 q 963 1024 953 1042 q 975 1001 974 1006 l 826 1001 q 794 1051 807 1032 q 771 1083 781 1071 q 753 1099 761 1094 q 736 1104 744 1104 l 715 1097 q 709 1096 710 1094 q 700 1092 708 1097 q 672 1068 692 1088 q 608 1004 651 1049 l 447 1004 q 459 1013 454 1007 q 471 1031 464 1019 q 475 1035 471 1031 q 529 1091 499 1060 q 587 1149 560 1122 q 632 1194 614 1175 q 650 1213 650 1213 l 672 1231 z "},"":{"ha":996,"x_min":21,"x_max":1117,"o":"m 21 0 l 881 0 q 899 33 886 0 q 924 111 911 67 q 945 201 936 156 q 954 269 954 246 l 490 269 l 500 304 l 811 304 q 821 333 813 304 q 840 401 829 361 q 863 484 851 442 q 881 556 874 526 q 883 577 882 561 q 885 599 885 593 l 586 599 l 594 633 l 1036 633 l 1054 660 q 1061 690 1054 661 q 1078 758 1068 718 q 1099 839 1089 797 q 1117 908 1110 881 l 1117 911 l 269 911 l 21 0 m 97 78 q 98 82 97 79 q 99 86 99 85 q 119 160 106 110 q 150 275 133 211 q 185 409 167 339 q 221 542 204 479 q 251 656 238 606 q 272 729 265 706 q 277 747 274 735 q 285 774 281 760 q 293 801 289 789 q 300 821 297 814 q 310 843 304 831 q 318 856 315 856 l 1049 856 q 1048 847 1049 851 q 1047 839 1047 842 q 1039 808 1043 828 q 1031 767 1035 788 q 1024 730 1026 746 q 1019 711 1021 714 q 1011 695 1017 704 q 1001 686 1006 686 l 568 686 q 561 669 568 686 q 550 642 554 653 q 536 604 539 613 q 533 592 533 596 q 535 581 533 588 q 536 547 536 575 l 832 547 l 783 356 l 485 356 q 460 336 474 356 q 446 290 446 317 q 448 244 446 265 q 450 217 450 222 l 894 217 q 893 203 894 213 q 890 190 892 194 l 853 51 l 825 50 l 117 50 q 108 58 113 51 q 99 69 103 65 q 98 73 99 69 q 97 78 97 76 m 972 969 q 986 994 974 969 q 1013 1056 999 1019 q 1042 1131 1028 1092 q 1064 1199 1057 1169 q 1068 1220 1067 1204 q 1069 1242 1069 1236 l 821 1242 q 807 1217 818 1242 q 781 1156 796 1192 q 753 1080 767 1119 q 733 1011 740 1040 l 732 971 l 972 969 m 799 1019 q 805 1067 799 1038 q 822 1124 811 1096 q 845 1172 832 1151 q 874 1192 858 1192 l 999 1192 q 992 1144 999 1174 q 976 1087 986 1115 q 951 1038 965 1058 q 924 1018 938 1018 l 799 1019 m 615 971 q 629 996 617 971 q 656 1057 642 1021 q 685 1132 671 1093 q 707 1200 700 1171 q 711 1222 710 1206 q 713 1243 713 1238 l 464 1243 q 450 1218 461 1243 q 424 1157 439 1193 q 397 1081 410 1121 q 376 1013 383 1042 q 372 991 374 1007 q 371 969 371 975 l 615 971 m 442 1021 q 448 1068 442 1039 q 465 1125 454 1097 q 488 1173 475 1153 q 517 1193 501 1193 l 642 1193 q 635 1146 642 1175 q 619 1088 629 1117 q 594 1040 608 1060 q 567 1019 581 1019 l 442 1021 z "},"":{"ha":535,"x_min":14,"x_max":683,"o":"m 314 850 l 604 850 l 604 833 q 594 794 604 832 q 567 697 583 757 q 529 560 550 636 q 487 408 508 485 q 446 260 465 332 q 413 139 426 189 q 410 127 413 135 q 406 111 408 119 q 400 96 403 103 q 396 86 397 89 q 386 65 392 78 q 378 51 381 51 l 85 51 l 314 850 m 14 0 l 431 0 l 683 903 l 267 903 l 14 0 m 615 971 q 617 997 617 971 q 614 1063 617 1025 q 606 1142 611 1101 q 596 1213 601 1183 l 589 1257 l 349 1257 q 347 1229 346 1257 q 353 1163 349 1201 q 363 1083 357 1125 q 375 1013 369 1042 q 378 991 374 1007 q 386 969 383 975 l 615 971 m 435 1021 q 419 1070 428 1039 q 407 1131 411 1101 q 406 1183 403 1161 q 424 1206 408 1206 l 544 1208 q 558 1158 551 1190 q 566 1096 564 1126 q 563 1042 568 1065 q 544 1019 558 1019 l 435 1021 z "},"":{"ha":535,"x_min":14,"x_max":747,"o":"m 314 850 l 604 850 l 604 833 q 594 794 604 832 q 567 697 583 757 q 529 560 550 636 q 487 408 508 485 q 446 260 465 332 q 413 139 426 189 q 410 127 413 135 q 406 111 408 119 q 400 96 403 103 q 396 86 397 89 q 386 65 392 78 q 378 51 381 51 l 85 51 l 314 850 m 14 0 l 431 0 l 683 903 l 267 903 l 14 0 m 567 971 q 590 999 568 971 q 638 1067 611 1028 q 692 1149 665 1107 q 732 1221 719 1192 q 741 1242 736 1226 q 747 1264 746 1258 l 499 1264 q 475 1235 496 1264 q 428 1167 454 1207 q 375 1085 401 1128 q 336 1013 349 1042 q 328 991 332 1007 q 322 969 324 975 l 567 971 m 404 1021 q 424 1072 408 1039 q 461 1135 440 1104 q 503 1190 482 1167 q 540 1214 525 1214 l 665 1214 q 645 1163 661 1196 q 608 1099 629 1131 q 565 1043 588 1067 q 529 1019 543 1019 l 404 1021 z "},"":{"ha":535,"x_min":14,"x_max":807,"o":"m 314 850 l 604 850 l 604 833 q 594 794 604 832 q 567 697 583 757 q 529 560 550 636 q 487 408 508 485 q 446 260 465 332 q 413 139 426 189 q 410 127 413 135 q 406 111 408 119 q 400 96 403 103 q 396 86 397 89 q 386 65 392 78 q 378 51 381 51 l 85 51 l 314 850 m 14 0 l 431 0 l 683 903 l 267 903 l 14 0 m 531 1060 l 563 1019 l 571 974 l 807 974 l 663 1256 l 422 1256 l 158 972 l 417 972 l 510 1068 l 528 1058 l 531 1060 m 454 1229 l 632 1229 q 641 1209 632 1226 q 663 1168 650 1192 q 692 1117 676 1144 q 721 1065 707 1089 q 745 1022 735 1040 q 757 1000 756 1004 l 608 1000 q 576 1050 589 1031 q 553 1081 563 1069 q 535 1098 543 1093 q 518 1103 526 1103 l 497 1096 q 491 1094 492 1093 q 482 1091 490 1096 q 453 1067 474 1086 q 390 1003 433 1047 l 229 1003 q 241 1012 236 1006 q 253 1029 246 1018 q 257 1033 253 1029 q 311 1090 281 1058 q 369 1147 342 1121 q 414 1192 396 1174 q 432 1211 432 1211 l 454 1229 z "},"":{"ha":535,"x_min":14,"x_max":885,"o":"m 314 850 l 604 850 l 604 833 q 594 794 604 832 q 567 697 583 757 q 529 560 550 636 q 487 408 508 485 q 446 260 465 332 q 413 139 426 189 q 410 127 413 135 q 406 111 408 119 q 400 96 403 103 q 396 86 397 89 q 386 65 392 78 q 378 51 381 51 l 85 51 l 314 850 m 14 0 l 431 0 l 683 903 l 267 903 l 14 0 m 788 969 q 801 994 789 969 q 828 1056 814 1019 q 858 1131 843 1092 q 879 1199 872 1169 q 883 1220 882 1204 q 885 1242 885 1236 l 636 1242 q 622 1217 633 1242 q 597 1156 611 1192 q 569 1080 582 1119 q 549 1011 556 1040 l 547 971 l 788 969 m 614 1019 q 620 1067 614 1038 q 637 1124 626 1096 q 660 1172 647 1151 q 689 1192 674 1192 l 814 1192 q 808 1144 814 1174 q 791 1087 801 1115 q 767 1038 781 1058 q 739 1018 753 1018 l 614 1019 m 431 971 q 444 996 432 971 q 472 1057 457 1021 q 501 1132 486 1093 q 522 1200 515 1171 q 526 1222 525 1206 q 528 1243 528 1238 l 279 1243 q 265 1218 276 1243 q 240 1157 254 1193 q 212 1081 225 1121 q 192 1013 199 1042 q 188 991 189 1007 q 186 969 186 975 l 431 971 m 257 1021 q 263 1068 257 1039 q 280 1125 269 1097 q 303 1173 290 1153 q 332 1193 317 1193 l 457 1193 q 451 1146 457 1175 q 434 1088 444 1117 q 410 1040 424 1060 q 382 1019 396 1019 l 257 1021 z "},"":{"ha":1001,"x_min":57,"x_max":1110,"o":"m 556 278 l 485 278 l 568 565 l 182 565 q 163 526 172 549 q 141 461 154 503 q 109 351 128 419 q 60 174 90 282 l 57 129 q 90 40 57 79 q 181 0 122 0 l 754 0 q 835 25 800 0 q 894 87 869 50 q 936 166 919 124 q 963 243 953 208 q 1003 376 983 308 q 1042 508 1024 444 q 1078 630 1061 572 q 1108 732 1094 688 l 1110 775 q 1077 866 1110 826 q 986 906 1044 906 l 414 906 q 306 880 353 906 q 233 801 260 854 l 186 631 l 665 631 l 556 278 m 1060 767 q 1058 749 1060 763 q 1056 732 1057 736 q 1030 626 1043 674 q 1000 526 1017 578 q 964 413 983 475 q 919 265 944 351 q 900 202 913 239 q 867 132 888 165 q 819 75 847 99 q 754 51 792 51 l 164 51 q 135 60 146 51 q 118 83 124 69 q 110 112 113 97 q 108 139 108 126 q 109 156 108 142 q 111 174 110 169 q 119 206 113 181 q 137 267 126 232 q 158 343 147 303 q 180 420 169 383 q 199 485 190 457 q 210 522 207 513 l 507 522 l 419 225 l 597 225 l 735 681 l 238 681 q 265 776 243 742 q 315 828 288 811 q 370 850 343 846 q 414 854 397 854 l 1004 854 q 1033 845 1022 854 q 1050 822 1044 836 q 1058 794 1056 808 q 1060 767 1060 779 z "},"":{"ha":1028,"x_min":8,"x_max":1182,"o":"m 540 903 l 267 903 l 8 0 l 418 0 l 478 272 l 610 0 l 924 0 l 1182 903 l 772 903 l 696 621 q 681 653 692 629 q 654 709 669 678 q 622 774 639 740 q 588 837 604 808 q 558 884 571 865 q 540 903 546 903 m 894 69 l 876 51 l 654 51 q 646 60 650 56 q 636 72 642 65 l 482 392 l 464 403 l 450 378 l 383 86 q 374 65 379 78 q 367 51 368 51 l 72 51 q 99 135 79 65 q 147 312 118 206 q 215 553 176 418 q 297 833 253 688 l 314 850 l 531 850 l 710 513 l 793 814 q 803 836 797 824 q 811 849 808 849 l 1103 849 l 1103 815 q 1085 753 1101 815 q 1042 587 1069 690 q 976 349 1014 483 q 894 69 939 214 m 974 974 q 1024 1041 1001 1011 q 1071 1113 1047 1071 q 1077 1127 1075 1119 q 1085 1144 1079 1135 q 967 1226 1039 1200 q 821 1235 894 1253 q 639 1195 726 1196 q 481 1250 551 1194 q 435 1169 453 1211 q 396 1085 417 1126 q 393 1078 393 1075 q 392 1072 393 1081 q 433 1013 404 1035 q 499 980 463 990 q 575 969 535 969 q 651 978 615 969 q 824 1023 740 1017 q 974 974 908 1029 m 432 1064 q 433 1070 432 1067 q 432 1076 433 1074 q 444 1110 439 1092 q 454 1144 449 1128 q 468 1176 460 1161 q 492 1200 476 1190 q 548 1178 513 1188 q 624 1167 583 1169 q 704 1168 664 1164 q 775 1188 744 1172 q 909 1201 847 1213 q 1021 1151 971 1190 q 1019 1129 1024 1138 q 1008 1099 1014 1114 q 993 1072 1001 1085 q 972 1051 985 1060 q 940 1042 960 1043 q 826 1067 882 1069 q 714 1038 769 1064 q 560 1015 635 1011 q 432 1064 485 1019 z "},"":{"ha":1001,"x_min":57,"x_max":1110,"o":"m 1107 732 l 1110 776 q 1077 866 1110 826 q 986 906 1044 906 l 413 906 q 332 881 367 906 q 272 819 297 856 q 231 740 247 782 q 204 663 214 697 q 163 529 183 597 q 124 397 143 461 q 89 276 106 333 q 58 174 72 218 l 57 131 q 90 40 57 79 q 181 0 122 0 l 753 0 q 834 25 800 0 q 893 87 868 50 q 934 166 918 124 q 961 243 950 208 l 1107 732 m 107 139 q 136 263 124 208 q 164 374 149 318 q 199 495 179 431 q 249 649 218 560 q 268 710 256 675 q 300 778 281 746 q 347 832 319 810 q 413 854 375 854 l 1003 854 q 1032 845 1021 854 q 1049 822 1043 836 q 1056 794 1054 808 q 1058 767 1058 779 q 1058 750 1058 764 q 1056 732 1057 736 q 1044 686 1050 713 q 1028 631 1038 660 q 980 476 1008 572 q 911 260 951 381 q 892 197 903 233 q 863 129 881 161 q 818 74 844 97 q 753 51 792 51 l 163 51 q 133 60 144 51 q 117 83 122 69 q 109 112 111 97 q 107 139 107 126 m 728 635 l 725 635 l 739 681 l 563 681 l 426 225 l 604 225 l 728 635 m 604 628 l 672 628 l 563 278 l 494 278 l 604 628 m 819 974 q 821 1000 821 974 q 818 1066 821 1028 q 810 1145 815 1104 q 800 1215 806 1186 l 793 1260 l 553 1260 q 551 1232 550 1260 q 557 1166 553 1204 q 567 1086 561 1128 q 579 1015 574 1044 q 583 994 578 1010 q 590 972 588 978 l 819 974 m 639 1024 q 624 1073 632 1042 q 611 1134 615 1104 q 610 1186 607 1164 q 628 1208 613 1208 l 749 1211 q 762 1161 756 1193 q 770 1099 768 1129 q 767 1045 772 1068 q 749 1022 763 1022 l 639 1024 z "},"":{"ha":1001,"x_min":57,"x_max":1110,"o":"m 1107 732 l 1110 776 q 1077 866 1110 826 q 986 906 1044 906 l 413 906 q 332 881 367 906 q 272 819 297 856 q 231 740 247 782 q 204 663 214 697 q 163 529 183 597 q 124 397 143 461 q 89 276 106 333 q 58 174 72 218 l 57 131 q 90 40 57 79 q 181 0 122 0 l 753 0 q 834 25 800 0 q 893 87 868 50 q 934 166 918 124 q 961 243 950 208 l 1107 732 m 107 139 q 136 263 124 208 q 164 374 149 318 q 199 495 179 431 q 249 649 218 560 q 268 710 256 675 q 300 778 281 746 q 347 832 319 810 q 413 854 375 854 l 1003 854 q 1032 845 1021 854 q 1049 822 1043 836 q 1056 794 1054 808 q 1058 767 1058 779 q 1058 750 1058 764 q 1056 732 1057 736 q 1044 686 1050 713 q 1028 631 1038 660 q 980 476 1008 572 q 911 260 951 381 q 892 197 903 233 q 863 129 881 161 q 818 74 844 97 q 753 51 792 51 l 163 51 q 133 60 144 51 q 117 83 122 69 q 109 112 111 97 q 107 139 107 126 m 728 635 l 725 635 l 739 681 l 563 681 l 426 225 l 604 225 l 728 635 m 604 628 l 672 628 l 563 278 l 494 278 l 604 628 m 761 974 q 784 1002 763 974 q 833 1070 806 1031 q 887 1152 860 1110 q 926 1224 914 1194 q 935 1245 931 1229 q 942 1267 940 1261 l 693 1267 q 669 1238 690 1267 q 622 1170 649 1210 q 569 1088 596 1131 q 531 1015 543 1044 q 522 994 526 1010 q 517 972 518 978 l 761 974 m 599 1024 q 619 1074 603 1042 q 656 1138 635 1107 q 698 1193 676 1169 q 735 1217 719 1217 l 860 1217 q 840 1166 856 1199 q 803 1101 824 1133 q 760 1046 782 1069 q 724 1022 738 1022 l 599 1024 z "},"":{"ha":1001,"x_min":57,"x_max":1110,"o":"m 1107 732 l 1110 776 q 1077 866 1110 826 q 986 906 1044 906 l 413 906 q 332 881 367 906 q 272 819 297 856 q 231 740 247 782 q 204 663 214 697 q 163 529 183 597 q 124 397 143 461 q 89 276 106 333 q 58 174 72 218 l 57 131 q 90 40 57 79 q 181 0 122 0 l 753 0 q 834 25 800 0 q 893 87 868 50 q 934 166 918 124 q 961 243 950 208 l 1107 732 m 107 139 q 136 263 124 208 q 164 374 149 318 q 199 495 179 431 q 249 649 218 560 q 268 710 256 675 q 300 778 281 746 q 347 832 319 810 q 413 854 375 854 l 1003 854 q 1032 845 1021 854 q 1049 822 1043 836 q 1056 794 1054 808 q 1058 767 1058 779 q 1058 750 1058 764 q 1056 732 1057 736 q 1044 686 1050 713 q 1028 631 1038 660 q 980 476 1008 572 q 911 260 951 381 q 892 197 903 233 q 863 129 881 161 q 818 74 844 97 q 753 51 792 51 l 163 51 q 133 60 144 51 q 117 83 122 69 q 109 112 111 97 q 107 139 107 126 m 728 635 l 725 635 l 739 681 l 563 681 l 426 225 l 604 225 l 728 635 m 604 628 l 672 628 l 563 278 l 494 278 l 604 628 m 749 1061 l 781 1021 l 789 975 l 1025 975 l 881 1257 l 640 1257 l 376 974 l 635 974 l 728 1069 l 746 1060 l 749 1061 m 672 1231 l 850 1231 q 859 1210 850 1228 q 881 1169 868 1193 q 910 1118 894 1146 q 939 1066 925 1090 q 963 1024 953 1042 q 975 1001 974 1006 l 826 1001 q 794 1051 807 1032 q 771 1083 781 1071 q 753 1099 761 1094 q 736 1104 744 1104 l 715 1097 q 709 1096 710 1094 q 700 1092 708 1097 q 672 1068 692 1088 q 608 1004 651 1049 l 447 1004 q 459 1013 454 1007 q 471 1031 464 1019 q 475 1035 471 1031 q 529 1091 499 1060 q 587 1149 560 1122 q 632 1194 614 1175 q 650 1213 650 1213 l 672 1231 z "},"":{"ha":1001,"x_min":57,"x_max":1110,"o":"m 1107 732 l 1110 776 q 1077 866 1110 826 q 986 906 1044 906 l 413 906 q 332 881 367 906 q 272 819 297 856 q 231 740 247 782 q 204 663 214 697 q 163 529 183 597 q 124 397 143 461 q 89 276 106 333 q 58 174 72 218 l 57 131 q 90 40 57 79 q 181 0 122 0 l 753 0 q 834 25 800 0 q 893 87 868 50 q 934 166 918 124 q 961 243 950 208 l 1107 732 m 107 139 q 136 263 124 208 q 164 374 149 318 q 199 495 179 431 q 249 649 218 560 q 268 710 256 675 q 300 778 281 746 q 347 832 319 810 q 413 854 375 854 l 1003 854 q 1032 845 1021 854 q 1049 822 1043 836 q 1056 794 1054 808 q 1058 767 1058 779 q 1058 750 1058 764 q 1056 732 1057 736 q 1044 686 1050 713 q 1028 631 1038 660 q 980 476 1008 572 q 911 260 951 381 q 892 197 903 233 q 863 129 881 161 q 818 74 844 97 q 753 51 792 51 l 163 51 q 133 60 144 51 q 117 83 122 69 q 109 112 111 97 q 107 139 107 126 m 728 635 l 725 635 l 739 681 l 563 681 l 426 225 l 604 225 l 728 635 m 604 628 l 672 628 l 563 278 l 494 278 l 604 628 m 971 971 q 1022 1038 999 1008 q 1068 1110 1044 1068 q 1074 1124 1072 1117 q 1082 1142 1076 1132 q 964 1224 1036 1197 q 818 1232 892 1250 q 636 1192 724 1193 q 478 1247 549 1192 q 432 1166 450 1208 q 393 1082 414 1124 q 390 1075 390 1072 q 389 1069 390 1078 q 431 1010 401 1032 q 496 977 460 988 q 572 967 532 967 q 649 975 613 967 q 822 1020 738 1014 q 971 971 906 1026 m 429 1061 q 430 1067 429 1064 q 429 1074 431 1071 q 441 1107 436 1089 q 451 1142 446 1125 q 465 1173 457 1158 q 489 1197 474 1188 q 545 1176 510 1185 q 621 1164 581 1167 q 701 1165 661 1161 q 772 1185 742 1169 q 906 1199 844 1210 q 1018 1149 968 1188 q 1017 1126 1021 1135 q 1005 1097 1011 1111 q 990 1069 999 1082 q 969 1049 982 1057 q 938 1039 957 1040 q 823 1064 879 1067 q 711 1035 767 1061 q 557 1013 632 1008 q 429 1061 482 1017 z "},"":{"ha":1001,"x_min":57,"x_max":1110,"o":"m 1107 732 l 1110 776 q 1077 866 1110 826 q 986 906 1044 906 l 413 906 q 332 881 367 906 q 272 819 297 856 q 231 740 247 782 q 204 663 214 697 q 163 529 183 597 q 124 397 143 461 q 89 276 106 333 q 58 174 72 218 l 57 131 q 90 40 57 79 q 181 0 122 0 l 753 0 q 834 25 800 0 q 893 87 868 50 q 934 166 918 124 q 961 243 950 208 l 1107 732 m 107 139 q 136 263 124 208 q 164 374 149 318 q 199 495 179 431 q 249 649 218 560 q 268 710 256 675 q 300 778 281 746 q 347 832 319 810 q 413 854 375 854 l 1003 854 q 1032 845 1021 854 q 1049 822 1043 836 q 1056 794 1054 808 q 1058 767 1058 779 q 1058 750 1058 764 q 1056 732 1057 736 q 1044 686 1050 713 q 1028 631 1038 660 q 980 476 1008 572 q 911 260 951 381 q 892 197 903 233 q 863 129 881 161 q 818 74 844 97 q 753 51 792 51 l 163 51 q 133 60 144 51 q 117 83 122 69 q 109 112 111 97 q 107 139 107 126 m 728 635 l 725 635 l 739 681 l 563 681 l 426 225 l 604 225 l 728 635 m 604 628 l 672 628 l 563 278 l 494 278 l 604 628 m 1011 971 q 1025 996 1013 971 q 1052 1057 1038 1021 q 1081 1132 1067 1093 q 1103 1200 1096 1171 q 1107 1222 1106 1206 q 1108 1243 1108 1238 l 860 1243 q 846 1218 857 1243 q 820 1157 835 1193 q 792 1081 806 1121 q 772 1013 779 1042 l 771 972 l 1011 971 m 838 1021 q 844 1068 838 1039 q 860 1125 850 1097 q 884 1173 871 1153 q 913 1193 897 1193 l 1038 1193 q 1031 1146 1038 1175 q 1015 1088 1025 1117 q 990 1040 1004 1060 q 963 1019 976 1019 l 838 1021 m 654 972 q 668 997 656 972 q 695 1058 681 1022 q 724 1133 710 1094 q 746 1201 739 1172 q 750 1223 749 1207 q 751 1244 751 1239 l 503 1244 q 489 1219 500 1244 q 463 1158 478 1194 q 435 1083 449 1122 q 415 1014 422 1043 q 411 992 413 1008 q 410 971 410 976 l 654 972 m 481 1022 q 487 1069 481 1040 q 503 1126 493 1099 q 527 1174 514 1154 q 556 1194 540 1194 l 681 1194 q 674 1147 681 1176 q 658 1090 668 1118 q 633 1041 647 1061 q 606 1021 619 1021 l 481 1022 z "},"":{"ha":1001,"x_min":57,"x_max":1110,"o":"m 1107 732 l 1110 776 q 1077 866 1110 826 q 986 906 1044 906 l 413 906 q 332 881 367 906 q 272 819 297 856 q 231 740 247 782 q 204 663 214 697 q 163 529 183 597 q 124 397 143 461 q 89 276 106 333 q 58 174 72 218 l 57 131 q 90 40 57 79 q 181 0 122 0 l 753 0 q 834 25 800 0 q 893 87 868 50 q 934 166 918 124 q 961 243 950 208 l 1107 732 m 107 139 q 108 156 107 143 q 111 174 110 169 q 137 280 124 232 q 167 379 150 328 q 203 492 183 431 q 247 640 222 554 q 267 703 254 667 q 299 774 279 740 q 347 831 319 807 q 413 854 375 854 l 1003 854 q 1032 845 1021 854 q 1049 822 1043 836 q 1056 794 1054 808 q 1058 767 1058 779 q 1058 750 1058 764 q 1056 732 1057 736 q 1044 686 1050 713 q 1028 631 1038 660 q 980 476 1008 572 q 911 260 951 381 q 892 197 903 233 q 863 129 881 161 q 818 74 844 97 q 753 51 792 51 l 163 51 q 133 60 144 51 q 117 83 122 69 q 109 112 111 97 q 107 139 107 126 m 750 679 l 550 679 l 463 407 l 750 679 m 585 631 l 643 631 l 569 561 l 585 631 m 611 225 l 710 465 l 419 224 l 611 225 m 631 349 l 590 264 l 532 264 l 631 349 z "},"":{"ha":1007,"x_min":68,"x_max":1146,"o":"m 118 139 q 119 156 118 143 q 121 174 119 169 q 138 239 126 194 q 165 340 150 283 q 197 459 181 396 q 230 578 214 522 q 258 680 246 635 q 278 746 271 725 q 285 776 279 758 q 298 810 292 793 q 308 838 304 826 q 313 850 313 850 l 604 850 l 438 225 l 614 225 l 792 850 l 1076 850 l 1076 833 q 1068 801 1076 832 q 1047 719 1060 769 q 1017 607 1033 669 q 983 481 1000 544 q 949 360 965 418 q 919 260 932 301 q 901 197 913 233 q 872 129 890 161 q 828 74 854 97 q 764 51 801 51 l 174 51 q 144 60 156 51 q 128 83 133 69 q 120 112 122 97 q 118 139 118 126 m 68 131 q 100 40 68 79 q 190 0 132 0 l 764 0 q 845 25 811 0 q 904 87 879 50 q 945 166 929 124 q 972 243 961 208 q 1003 354 985 289 q 1040 491 1021 419 q 1078 633 1058 563 q 1112 758 1097 703 q 1136 849 1126 814 q 1146 885 1146 885 l 1146 903 l 746 903 l 572 278 l 503 278 l 660 850 l 678 903 l 286 903 l 260 868 q 250 843 257 863 q 243 815 243 824 q 223 742 236 792 q 192 630 210 693 q 156 497 175 567 q 121 363 138 426 q 90 248 104 299 q 69 174 76 197 q 69 152 69 168 q 68 131 68 136 m 819 974 q 821 1000 821 974 q 818 1066 821 1028 q 810 1145 815 1104 q 800 1215 806 1186 l 793 1260 l 553 1260 q 551 1232 550 1260 q 557 1166 553 1204 q 567 1086 561 1128 q 579 1015 574 1044 q 583 994 578 1010 q 590 972 588 978 l 819 974 m 639 1024 q 624 1073 632 1042 q 611 1134 615 1104 q 610 1186 607 1164 q 628 1208 613 1208 l 749 1211 q 762 1161 756 1193 q 770 1099 768 1129 q 767 1045 772 1068 q 749 1022 763 1022 l 639 1024 z "},"":{"ha":1007,"x_min":68,"x_max":1146,"o":"m 118 139 q 119 156 118 143 q 121 174 119 169 q 138 239 126 194 q 165 340 150 283 q 197 459 181 396 q 230 578 214 522 q 258 680 246 635 q 278 746 271 725 q 285 776 279 758 q 298 810 292 793 q 308 838 304 826 q 313 850 313 850 l 604 850 l 438 225 l 614 225 l 792 850 l 1076 850 l 1076 833 q 1068 801 1076 832 q 1047 719 1060 769 q 1017 607 1033 669 q 983 481 1000 544 q 949 360 965 418 q 919 260 932 301 q 901 197 913 233 q 872 129 890 161 q 828 74 854 97 q 764 51 801 51 l 174 51 q 144 60 156 51 q 128 83 133 69 q 120 112 122 97 q 118 139 118 126 m 68 131 q 100 40 68 79 q 190 0 132 0 l 764 0 q 845 25 811 0 q 904 87 879 50 q 945 166 929 124 q 972 243 961 208 q 1003 354 985 289 q 1040 491 1021 419 q 1078 633 1058 563 q 1112 758 1097 703 q 1136 849 1126 814 q 1146 885 1146 885 l 1146 903 l 746 903 l 572 278 l 503 278 l 660 850 l 678 903 l 286 903 l 260 868 q 250 843 257 863 q 243 815 243 824 q 223 742 236 792 q 192 630 210 693 q 156 497 175 567 q 121 363 138 426 q 90 248 104 299 q 69 174 76 197 q 69 152 69 168 q 68 131 68 136 m 776 972 q 799 1001 778 972 q 848 1069 821 1029 q 902 1151 875 1108 q 942 1222 929 1193 q 951 1244 946 1228 q 957 1265 956 1260 l 708 1265 q 685 1237 706 1265 q 638 1169 664 1208 q 585 1086 611 1129 q 546 1014 558 1043 q 538 992 542 1008 q 532 971 533 976 l 776 972 m 614 1022 q 634 1073 618 1040 q 671 1137 650 1106 q 713 1192 692 1168 q 750 1215 735 1215 l 875 1215 q 855 1165 871 1197 q 818 1100 839 1132 q 775 1044 797 1068 q 739 1021 753 1021 l 614 1022 z "},"":{"ha":1007,"x_min":68,"x_max":1146,"o":"m 118 139 q 119 156 118 143 q 121 174 119 169 q 138 239 126 194 q 165 340 150 283 q 197 459 181 396 q 230 578 214 522 q 258 680 246 635 q 278 746 271 725 q 285 776 279 758 q 298 810 292 793 q 308 838 304 826 q 313 850 313 850 l 604 850 l 438 225 l 614 225 l 792 850 l 1076 850 l 1076 833 q 1068 801 1076 832 q 1047 719 1060 769 q 1017 607 1033 669 q 983 481 1000 544 q 949 360 965 418 q 919 260 932 301 q 901 197 913 233 q 872 129 890 161 q 828 74 854 97 q 764 51 801 51 l 174 51 q 144 60 156 51 q 128 83 133 69 q 120 112 122 97 q 118 139 118 126 m 68 131 q 100 40 68 79 q 190 0 132 0 l 764 0 q 845 25 811 0 q 904 87 879 50 q 945 166 929 124 q 972 243 961 208 q 1003 354 985 289 q 1040 491 1021 419 q 1078 633 1058 563 q 1112 758 1097 703 q 1136 849 1126 814 q 1146 885 1146 885 l 1146 903 l 746 903 l 572 278 l 503 278 l 660 850 l 678 903 l 286 903 l 260 868 q 250 843 257 863 q 243 815 243 824 q 223 742 236 792 q 192 630 210 693 q 156 497 175 567 q 121 363 138 426 q 90 248 104 299 q 69 174 76 197 q 69 152 69 168 q 68 131 68 136 m 749 1061 l 781 1021 l 789 975 l 1025 975 l 881 1257 l 640 1257 l 376 974 l 635 974 l 728 1069 l 746 1060 l 749 1061 m 672 1231 l 850 1231 q 859 1210 850 1228 q 881 1169 868 1193 q 910 1118 894 1146 q 939 1066 925 1090 q 963 1024 953 1042 q 975 1001 974 1006 l 826 1001 q 794 1051 807 1032 q 771 1083 781 1071 q 753 1099 761 1094 q 736 1104 744 1104 l 715 1097 q 709 1096 710 1094 q 700 1092 708 1097 q 672 1068 692 1088 q 608 1004 651 1049 l 447 1004 q 459 1013 454 1007 q 471 1031 464 1019 q 475 1035 471 1031 q 529 1091 499 1060 q 587 1149 560 1122 q 632 1194 614 1175 q 650 1213 650 1213 l 672 1231 z "},"":{"ha":1007,"x_min":68,"x_max":1146,"o":"m 118 139 q 119 156 118 143 q 121 174 119 169 q 138 239 126 194 q 165 340 150 283 q 197 459 181 396 q 230 578 214 522 q 258 680 246 635 q 278 746 271 725 q 285 776 279 758 q 298 810 292 793 q 308 838 304 826 q 313 850 313 850 l 604 850 l 438 225 l 614 225 l 792 850 l 1076 850 l 1076 833 q 1068 801 1076 832 q 1047 719 1060 769 q 1017 607 1033 669 q 983 481 1000 544 q 949 360 965 418 q 919 260 932 301 q 901 197 913 233 q 872 129 890 161 q 828 74 854 97 q 764 51 801 51 l 174 51 q 144 60 156 51 q 128 83 133 69 q 120 112 122 97 q 118 139 118 126 m 68 131 q 100 40 68 79 q 190 0 132 0 l 764 0 q 845 25 811 0 q 904 87 879 50 q 945 166 929 124 q 972 243 961 208 q 1003 354 985 289 q 1040 491 1021 419 q 1078 633 1058 563 q 1112 758 1097 703 q 1136 849 1126 814 q 1146 885 1146 885 l 1146 903 l 746 903 l 572 278 l 503 278 l 660 850 l 678 903 l 286 903 l 260 868 q 250 843 257 863 q 243 815 243 824 q 223 742 236 792 q 192 630 210 693 q 156 497 175 567 q 121 363 138 426 q 90 248 104 299 q 69 174 76 197 q 69 152 69 168 q 68 131 68 136 m 654 972 q 668 997 656 972 q 695 1058 681 1022 q 724 1133 710 1094 q 746 1201 739 1172 q 750 1223 749 1207 q 751 1244 751 1239 l 503 1244 q 489 1219 500 1244 q 463 1158 478 1194 q 435 1083 449 1122 q 415 1014 422 1043 q 411 992 413 1008 q 410 971 410 976 l 654 972 m 481 1022 q 487 1069 481 1040 q 503 1126 493 1099 q 527 1174 514 1154 q 556 1194 540 1194 l 681 1194 q 674 1147 681 1176 q 658 1090 668 1118 q 633 1041 647 1061 q 606 1021 619 1021 l 481 1022 m 1011 971 q 1025 996 1013 971 q 1052 1057 1038 1021 q 1081 1132 1067 1093 q 1103 1200 1096 1171 q 1107 1222 1106 1206 q 1108 1243 1108 1238 l 860 1243 q 846 1218 857 1243 q 820 1157 835 1193 q 792 1081 806 1121 q 772 1013 779 1042 l 771 972 l 1011 971 m 838 1021 q 844 1068 838 1039 q 860 1125 850 1097 q 884 1173 871 1153 q 913 1193 897 1193 l 1038 1193 q 1031 1146 1038 1175 q 1015 1088 1025 1117 q 990 1040 1004 1060 q 963 1019 976 1019 l 838 1021 z "},"":{"ha":1228,"x_min":267,"x_max":1382,"o":"m 924 447 l 1382 899 l 931 899 l 751 696 l 694 899 l 267 899 l 433 451 l 325 0 l 776 0 l 924 447 m 736 600 l 960 847 l 1250 847 l 857 457 l 728 50 l 388 50 l 500 443 q 356 847 351 847 l 638 847 l 718 606 l 736 600 m 865 972 q 888 1001 867 972 q 937 1069 910 1029 q 991 1151 964 1108 q 1031 1222 1018 1193 q 1040 1244 1035 1228 q 1046 1265 1044 1260 l 797 1265 q 774 1237 794 1265 q 726 1169 753 1208 q 674 1086 700 1129 q 635 1014 647 1043 q 626 992 631 1008 q 621 971 622 976 l 865 972 m 703 1022 q 723 1073 707 1040 q 760 1137 739 1106 q 802 1192 781 1168 q 839 1215 824 1215 l 964 1215 q 944 1165 960 1197 q 907 1100 928 1132 q 864 1044 886 1068 q 828 1021 842 1021 l 703 1022 z "},"":{"ha":1228,"x_min":267,"x_max":1382,"o":"m 924 447 l 1382 899 l 931 899 l 751 696 l 694 899 l 267 899 l 433 451 l 325 0 l 776 0 l 924 447 m 736 600 l 960 847 l 1250 847 l 857 457 l 728 50 l 388 50 l 500 443 q 356 847 351 847 l 638 847 l 718 606 l 736 600 m 1131 972 q 1144 997 1132 972 q 1172 1058 1157 1022 q 1201 1133 1186 1094 q 1222 1201 1215 1172 q 1226 1223 1225 1207 q 1228 1244 1228 1239 l 979 1244 q 965 1219 976 1244 q 940 1158 954 1194 q 912 1083 925 1122 q 892 1014 899 1043 l 890 974 l 1131 972 m 957 1022 q 963 1069 957 1040 q 980 1126 969 1099 q 1003 1174 990 1154 q 1032 1194 1017 1194 l 1157 1194 q 1151 1147 1157 1176 q 1134 1090 1144 1118 q 1110 1041 1124 1061 q 1082 1021 1096 1021 l 957 1022 m 774 974 q 788 999 775 974 q 815 1060 800 1024 q 844 1135 829 1096 q 865 1203 858 1174 q 869 1224 868 1208 q 871 1246 871 1240 l 622 1246 q 608 1221 619 1246 q 583 1160 597 1196 q 555 1084 568 1124 q 535 1015 542 1044 q 531 994 532 1010 q 529 972 529 978 l 774 974 m 600 1024 q 606 1071 600 1042 q 623 1128 613 1100 q 647 1176 633 1156 q 675 1196 660 1196 l 800 1196 q 794 1149 800 1178 q 777 1091 788 1119 q 753 1042 767 1063 q 725 1022 739 1022 l 600 1024 z "}}}
